# ProBuilder 5.2.2
# https://unity3d.com/unity/features/worldbuilding/probuilder
# 6/28/2024 2:44:24 PM

mtllib ./RopeYad.mtl
o RopeYad

g Cylinder
v 1.297553 -2.969034 1.234549
v 1.297553 1.281066 1.234549
v 1.290451 1.281066 1.220611
v 1.290451 -2.969034 1.220611
v 1.279389 1.281066 1.209549
v 1.279389 -2.969034 1.209549
v 1.265451 1.281066 1.202447
v 1.265451 -2.969034 1.202447
v 1.25 1.281066 1.2
v 1.25 -2.969034 1.2
v 1.234549 1.281066 1.202447
v 1.234549 -2.969034 1.202447
v 1.220611 1.281066 1.209549
v 1.220611 -2.969034 1.209549
v 1.209549 1.281066 1.220611
v 1.209549 -2.969034 1.220611
v 1.202447 1.281066 1.234549
v 1.202447 -2.969034 1.234549
v 1.2 1.281066 1.25
v 1.2 -2.969034 1.25
v 1.202447 1.281066 1.265451
v 1.202447 -2.969034 1.265451
v 1.209549 1.281066 1.279389
v 1.209549 -2.969034 1.279389
v 1.220611 1.281066 1.290451
v 1.220611 -2.969034 1.290451
v 1.234549 1.281066 1.297553
v 1.234549 -2.969034 1.297553
v 1.25 1.281066 1.3
v 1.25 -2.969034 1.3
v 1.265451 1.281066 1.297553
v 1.265451 -2.969034 1.297553
v 1.279389 1.281066 1.290451
v 1.279389 -2.969034 1.290451
v 1.290451 1.281066 1.279389
v 1.290451 -2.969034 1.279389
v 1.297553 1.281066 1.265451
v 1.297553 -2.969034 1.265451
v 1.3 1.281066 1.25
v 1.3 -2.969034 1.25
v 0.09466469 2.954862 -0.05581665
v 0.08113551 2.954862 -0.06021214
v 0.09536099 2.954862 -0.06021214
v 0.0926441 2.954862 -0.05185127
v 0.09466481 2.954862 -0.06460857
v 0.08949697 2.954862 -0.04870415
v 0.0926441 2.954862 -0.06857395
v 0.08553135 2.954862 -0.04668331
v 0.08949697 2.954862 -0.07172108
v 0.08113551 2.954862 -0.04598713
v 0.08553135 2.954862 -0.07374191
v 0.07673955 2.954862 -0.04668331
v 0.08113551 2.954862 -0.0744381
v 0.07277381 2.954862 -0.04870415
v 0.07673955 2.954862 -0.07374191
v 0.06962657 2.954862 -0.05185127
v 0.07277381 2.954862 -0.07172108
v 0.06760609 2.954862 -0.05581665
v 0.06962657 2.954862 -0.06857395
v 0.06690991 2.954862 -0.06021214
v 0.06760609 2.954862 -0.06460857
v 1.25 -2.969034 1.25
v 1.297553 -2.969034 -1.26545
v 1.297553 1.281066 -1.26545
v 1.290451 1.281066 -1.279389
v 1.290451 -2.969034 -1.279389
v 1.279389 1.281066 -1.290451
v 1.279389 -2.969034 -1.290451
v 1.265451 1.281066 -1.297553
v 1.265451 -2.969034 -1.297553
v 1.25 1.281066 -1.3
v 1.25 -2.969034 -1.3
v 1.234549 1.281066 -1.297553
v 1.234549 -2.969034 -1.297553
v 1.220611 1.281066 -1.290451
v 1.220611 -2.969034 -1.290451
v 1.209549 1.281066 -1.279389
v 1.209549 -2.969034 -1.279389
v 1.202447 1.281066 -1.26545
v 1.202447 -2.969034 -1.26545
v 1.2 1.281066 -1.25
v 1.2 -2.969034 -1.25
v 1.202447 1.281066 -1.23455
v 1.202447 -2.969034 -1.23455
v 1.209549 1.281066 -1.220611
v 1.209549 -2.969034 -1.220611
v 1.220611 1.281066 -1.209549
v 1.220611 -2.969034 -1.209549
v 1.234549 1.281066 -1.202447
v 1.234549 -2.969034 -1.202447
v 1.25 1.281066 -1.2
v 1.25 -2.969034 -1.2
v 1.265451 1.281066 -1.202447
v 1.265451 -2.969034 -1.202447
v 1.279389 1.281066 -1.209549
v 1.279389 -2.969034 -1.209549
v 1.290451 1.281066 -1.220611
v 1.290451 -2.969034 -1.220611
v 1.297553 1.281066 -1.23455
v 1.297553 -2.969034 -1.23455
v 1.3 1.281066 -1.25
v 1.3 -2.969034 -1.25
v 0.0926038 2.951206 -0.05430126
v 0.08164072 2.954862 -0.06259632
v 0.09432936 2.954862 -0.05616474
v 0.08980536 2.947909 -0.05324936
v 0.09481192 2.958517 -0.05865669
v 0.08620787 2.945292 -0.05311298
v 0.0940057 2.961814 -0.06153584
v 0.08216333 2.943612 -0.05390453
v 0.09198964 2.964432 -0.06451797
v 0.0780673 2.943033 -0.05554676
v 0.08895981 2.966111 -0.06731224
v 0.07432151 2.943612 -0.0578804
v 0.08521378 2.96669 -0.06964493
v 0.07129204 2.945292 -0.06067467
v 0.08111811 2.966111 -0.07128811
v 0.06927502 2.947909 -0.06365681
v 0.07707322 2.964432 -0.07207966
v 0.06846881 2.951206 -0.066535
v 0.07347536 2.961814 -0.07194233
v 0.06895208 2.954862 -0.0690279
v 0.07067692 2.958517 -0.07089138
v 1.25 -2.969034 -1.25
v -1.202447 -2.969034 -1.26545
v -1.202447 1.281066 -1.26545
v -1.209549 1.281066 -1.279389
v -1.209549 -2.969034 -1.279389
v -1.22061 1.281066 -1.290451
v -1.22061 -2.969034 -1.290451
v -1.234549 1.281066 -1.297553
v -1.234549 -2.969034 -1.297553
v -1.25 1.281066 -1.3
v -1.25 -2.969034 -1.3
v -1.265451 1.281066 -1.297553
v -1.265451 -2.969034 -1.297553
v -1.279389 1.281066 -1.290451
v -1.279389 -2.969034 -1.290451
v -1.290451 1.281066 -1.279389
v -1.290451 -2.969034 -1.279389
v -1.297553 1.281066 -1.26545
v -1.297553 -2.969034 -1.26545
v -1.3 1.281066 -1.25
v -1.3 -2.969034 -1.25
v -1.297553 1.281066 -1.23455
v -1.297553 -2.969034 -1.23455
v -1.290451 1.281066 -1.220611
v -1.290451 -2.969034 -1.220611
v -1.279389 1.281066 -1.209549
v -1.279389 -2.969034 -1.209549
v -1.265451 1.281066 -1.202447
v -1.265451 -2.969034 -1.202447
v -1.25 1.281066 -1.2
v -1.25 -2.969034 -1.2
v -1.234549 1.281066 -1.202447
v -1.234549 -2.969034 -1.202447
v -1.22061 1.281066 -1.209549
v -1.22061 -2.969034 -1.209549
v -1.209549 1.281066 -1.220611
v -1.209549 -2.969034 -1.220611
v -1.202447 1.281066 -1.23455
v -1.202447 -2.969034 -1.23455
v -1.2 1.281066 -1.25
v -1.2 -2.969034 -1.25
v 0.0977037 2.954862 -0.05319309
v 0.08417451 2.954862 -0.05758953
v 0.09839988 2.954862 -0.05758953
v 0.09568334 2.954862 -0.04922771
v 0.0977037 2.954862 -0.06198502
v 0.09253585 2.954862 -0.04608059
v 0.09568334 2.954862 -0.06595039
v 0.08857036 2.954862 -0.04405975
v 0.09253585 2.954862 -0.06909847
v 0.08417451 2.954862 -0.04336357
v 0.08857036 2.954862 -0.07111835
v 0.07977843 2.954862 -0.04405975
v 0.08417451 2.954862 -0.07181454
v 0.0758127 2.954862 -0.04608059
v 0.07977843 2.954862 -0.07111835
v 0.07266557 2.954862 -0.04922771
v 0.0758127 2.954862 -0.06909847
v 0.07064509 2.954862 -0.05319309
v 0.07266557 2.954862 -0.06595039
v 0.06994891 2.954862 -0.05758953
v 0.07064509 2.954862 -0.06198502
v -1.25 -2.969034 -1.25
v -1.202447 -2.969034 1.234549
v -1.202447 1.281066 1.234549
v -1.209549 1.281066 1.220611
v -1.209549 -2.969034 1.220611
v -1.22061 1.281066 1.209549
v -1.22061 -2.969034 1.209549
v -1.234549 1.281066 1.202447
v -1.234549 -2.969034 1.202447
v -1.25 1.281066 1.2
v -1.25 -2.969034 1.2
v -1.265451 1.281066 1.202447
v -1.265451 -2.969034 1.202447
v -1.279389 1.281066 1.209549
v -1.279389 -2.969034 1.209549
v -1.290451 1.281066 1.220611
v -1.290451 -2.969034 1.220611
v -1.297553 1.281066 1.234549
v -1.297553 -2.969034 1.234549
v -1.3 1.281066 1.25
v -1.3 -2.969034 1.25
v -1.297553 1.281066 1.265451
v -1.297553 -2.969034 1.265451
v -1.290451 1.281066 1.279389
v -1.290451 -2.969034 1.279389
v -1.279389 1.281066 1.290451
v -1.279389 -2.969034 1.290451
v -1.265451 1.281066 1.297553
v -1.265451 -2.969034 1.297553
v -1.25 1.281066 1.3
v -1.25 -2.969034 1.3
v -1.234549 1.281066 1.297553
v -1.234549 -2.969034 1.297553
v -1.22061 1.281066 1.290451
v -1.22061 -2.969034 1.290451
v -1.209549 1.281066 1.279389
v -1.209549 -2.969034 1.279389
v -1.202447 1.281066 1.265451
v -1.202447 -2.969034 1.265451
v -1.2 1.281066 1.25
v -1.2 -2.969034 1.25
v 0.09139085 2.962207 -0.05279064
v 0.08229995 2.954862 -0.06089973
v 0.0926708 2.958084 -0.05171204
v 0.08922076 2.965612 -0.05466366
v 0.09293604 2.953645 -0.05153275
v 0.08637261 2.967964 -0.05714703
v 0.09216011 2.949325 -0.05226994
v 0.08312631 2.969034 -0.0599966
v 0.09041905 2.945547 -0.05385303
v 0.07979941 2.968717 -0.06293583
v 0.08788335 2.942679 -0.05612469
v 0.0767163 2.967043 -0.06567574
v 0.08480096 2.941006 -0.05886459
v 0.07418048 2.964177 -0.06794739
v 0.08147359 2.940688 -0.06180382
v 0.07243991 2.960398 -0.06953049
v 0.07822692 2.941759 -0.06465435
v 0.07166338 2.956078 -0.07026863
v 0.07537913 2.944111 -0.06713676
v 0.07192838 2.95164 -0.07008839
v 0.07320905 2.947515 -0.06900978
v -1.25 -2.969034 1.25
v 1.134301 1.764768 1.124021
v 1.147253 1.764768 1.117421
v 1.124021 1.764768 1.1343
v 1.117421 1.764768 1.147253
v 1.161612 1.764768 1.115147
v 1.17597 1.764768 1.117421
v 1.188923 1.764768 1.124021
v 1.199202 1.764768 1.1343
v 1.205802 1.764768 1.147253
v 1.208076 1.764768 1.161612
v 1.205802 1.764768 1.17597
v 1.199202 1.764768 1.188923
v 1.188923 1.764768 1.199202
v 1.17597 1.764768 1.205802
v 1.161612 1.764768 1.208076
v 1.147253 1.764768 1.205802
v 1.134301 1.764768 1.199202
v 1.124021 1.764768 1.188923
v 1.117421 1.764768 1.17597
v 1.115147 1.764768 1.161612
v 1.134301 1.764768 -1.199203
v 1.147253 1.764768 -1.205802
v 1.124021 1.764768 -1.188923
v 1.117421 1.764768 -1.175969
v 1.161612 1.764768 -1.208076
v 1.17597 1.764768 -1.205802
v 1.188923 1.764768 -1.199203
v 1.199202 1.764768 -1.188923
v 1.205802 1.764768 -1.175969
v 1.208076 1.764768 -1.161612
v 1.205802 1.764768 -1.147253
v 1.199202 1.764768 -1.1343
v 1.188923 1.764768 -1.124021
v 1.17597 1.764768 -1.117421
v 1.161612 1.764768 -1.115147
v 1.147253 1.764768 -1.117421
v 1.134301 1.764768 -1.124021
v 1.124021 1.764768 -1.1343
v 1.117421 1.764768 -1.147253
v 1.115147 1.764768 -1.161612
v -1.147253 1.764768 -1.205802
v -1.1343 1.764768 -1.199203
v -1.17597 1.764768 -1.205802
v -1.161611 1.764768 -1.208076
v -1.124021 1.764768 -1.188923
v -1.117421 1.764768 -1.175969
v -1.115147 1.764768 -1.161612
v -1.117421 1.764768 -1.147253
v -1.124021 1.764768 -1.1343
v -1.1343 1.764768 -1.124021
v -1.147253 1.764768 -1.117421
v -1.161611 1.764768 -1.115147
v -1.17597 1.764768 -1.117421
v -1.188923 1.764768 -1.124021
v -1.199202 1.764768 -1.1343
v -1.205802 1.764768 -1.147253
v -1.208076 1.764768 -1.161612
v -1.205802 1.764768 -1.175969
v -1.199202 1.764768 -1.188923
v -1.188923 1.764768 -1.199203
v -1.147253 1.764768 1.117421
v -1.1343 1.764768 1.124021
v -1.17597 1.764768 1.117421
v -1.161611 1.764768 1.115147
v -1.124021 1.764768 1.1343
v -1.117421 1.764768 1.147253
v -1.115147 1.764768 1.161612
v -1.117421 1.764768 1.17597
v -1.124021 1.764768 1.188923
v -1.1343 1.764768 1.199202
v -1.147253 1.764768 1.205802
v -1.161611 1.764768 1.208076
v -1.17597 1.764768 1.205802
v -1.188923 1.764768 1.199202
v -1.199202 1.764768 1.188923
v -1.205802 1.764768 1.17597
v -1.208076 1.764768 1.161612
v -1.205802 1.764768 1.147253
v -1.199202 1.764768 1.1343
v -1.188923 1.764768 1.124021
v 0.8335238 2.274501 0.8259697
v 0.843042 2.274501 0.8211198
v 0.8259702 2.274501 0.8335233
v 0.8211203 2.274501 0.8430414
v 0.8535931 2.274501 0.8194485
v 0.8641441 2.274501 0.8211198
v 0.8736622 2.274501 0.8259697
v 0.8812158 2.274501 0.8335233
v 0.8860657 2.274501 0.8430414
v 0.8877369 2.274501 0.8535929
v 0.8860655 2.274501 0.8641438
v 0.8812158 2.274501 0.873662
v 0.8736622 2.274501 0.8812156
v 0.8641441 2.274501 0.8860655
v 0.8535931 2.274501 0.8877363
v 0.843042 2.274501 0.8860655
v 0.8335238 2.274501 0.8812156
v 0.8259702 2.274501 0.873662
v 0.8211203 2.274501 0.8641438
v 0.8194492 2.274501 0.8535929
v 0.8335238 2.274501 -0.881216
v 0.843042 2.274501 -0.8860655
v 0.8259702 2.274501 -0.873662
v 0.8211203 2.274501 -0.8641434
v 0.8535931 2.274501 -0.8877363
v 0.8641441 2.274501 -0.8860655
v 0.8736622 2.274501 -0.881216
v 0.8812158 2.274501 -0.873662
v 0.8860655 2.274501 -0.8641434
v 0.8877366 2.274501 -0.8535929
v 0.8860655 2.274501 -0.8430414
v 0.8812157 2.274501 -0.8335238
v 0.8736622 2.274501 -0.8259697
v 0.8641441 2.274501 -0.8211203
v 0.8535931 2.274501 -0.8194485
v 0.843042 2.274501 -0.8211203
v 0.8335238 2.274501 -0.8259697
v 0.8259702 2.274501 -0.8335238
v 0.8211203 2.274501 -0.8430414
v 0.8194492 2.274501 -0.8535929
v -0.8430414 2.274501 -0.8860655
v -0.8335233 2.274501 -0.881216
v -0.8641436 2.274501 -0.8860655
v -0.8535926 2.274501 -0.8877363
v -0.8259695 2.274501 -0.873662
v -0.82112 2.274501 -0.8641434
v -0.8194492 2.274501 -0.8535929
v -0.82112 2.274501 -0.8430414
v -0.8259695 2.274501 -0.8335238
v -0.8335233 2.274501 -0.8259697
v -0.8430414 2.274501 -0.8211203
v -0.8535926 2.274501 -0.8194485
v -0.8641436 2.274501 -0.8211203
v -0.8736618 2.274501 -0.8259697
v -0.8812156 2.274501 -0.8335238
v -0.8860652 2.274501 -0.8430414
v -0.8877363 2.274501 -0.8535929
v -0.8860652 2.274501 -0.8641434
v -0.8812156 2.274501 -0.873662
v -0.8736618 2.274501 -0.881216
v -0.8430414 2.274501 0.8211198
v -0.8335233 2.274501 0.8259697
v -0.8641436 2.274501 0.8211198
v -0.8535926 2.274501 0.8194485
v -0.8259695 2.274501 0.8335233
v -0.82112 2.274501 0.8430414
v -0.8194492 2.274501 0.8535929
v -0.82112 2.274501 0.8641438
v -0.8259695 2.274501 0.873662
v -0.8335233 2.274501 0.8812156
v -0.8430414 2.274501 0.8860655
v -0.8535926 2.274501 0.8877363
v -0.8641436 2.274501 0.8860655
v -0.8736618 2.274501 0.8812156
v -0.8812156 2.274501 0.873662
v -0.8860652 2.274501 0.8641438
v -0.8877363 2.274501 0.8535929
v -0.8860652 2.274501 0.8430414
v -0.8812156 2.274501 0.8335233
v -0.8736618 2.274501 0.8259697
v 0.347277 2.941864 0.3441296
v 0.3512428 2.941864 0.3421087
v 0.3441298 2.941864 0.3472767
v 0.3421092 2.941864 0.3512421
v 0.3556387 2.941864 0.3414125
v 0.3600345 2.941864 0.3421087
v 0.3640002 2.941864 0.3441296
v 0.3671473 2.941864 0.3472767
v 0.369168 2.941864 0.3512421
v 0.3698642 2.941864 0.3556385
v 0.3691678 2.941864 0.360034
v 0.3671473 2.941864 0.3639994
v 0.3640002 2.941864 0.3671465
v 0.3600345 2.941864 0.3691673
v 0.3556387 2.941864 0.3698635
v 0.3512428 2.941864 0.3691673
v 0.347277 2.941864 0.3671465
v 0.3441298 2.941864 0.3639994
v 0.3421092 2.941864 0.360034
v 0.341413 2.941864 0.3556385
v 0.347277 2.941864 -0.3671474
v 0.3512428 2.941864 -0.3691673
v 0.3441298 2.941864 -0.3639994
v 0.3421092 2.941864 -0.360034
v 0.3556387 2.941864 -0.3698635
v 0.3600345 2.941864 -0.3691673
v 0.3640002 2.941864 -0.3671474
v 0.3671473 2.941864 -0.3639994
v 0.3691678 2.941864 -0.360034
v 0.3698642 2.941864 -0.3556385
v 0.3691678 2.941864 -0.3512421
v 0.3671472 2.941864 -0.3472767
v 0.3640002 2.941864 -0.3441296
v 0.3600345 2.941864 -0.3421087
v 0.3556387 2.941864 -0.3414125
v 0.3512428 2.941864 -0.3421087
v 0.347277 2.941864 -0.3441296
v 0.3441298 2.941864 -0.3472767
v 0.3421092 2.941864 -0.3512421
v 0.341413 2.941864 -0.3556385
v -0.3512418 2.941864 -0.3691673
v -0.3472762 2.941864 -0.3671474
v -0.3600338 2.941864 -0.3691673
v -0.3556376 2.941864 -0.3698635
v -0.3441288 2.941864 -0.3639994
v -0.3421085 2.941864 -0.360034
v -0.3414123 2.941864 -0.3556385
v -0.3421085 2.941864 -0.3512421
v -0.3441288 2.941864 -0.3472767
v -0.3472762 2.941864 -0.3441296
v -0.3512418 2.941864 -0.3421087
v -0.3556376 2.941864 -0.3414125
v -0.3600338 2.941864 -0.3421087
v -0.3639994 2.941864 -0.3441296
v -0.3671465 2.941864 -0.3472767
v -0.3691671 2.941864 -0.3512421
v -0.3698633 2.941864 -0.3556385
v -0.3691671 2.941864 -0.360034
v -0.3671465 2.941864 -0.3639994
v -0.3639994 2.941864 -0.3671474
v -0.3512418 2.941864 0.3421087
v -0.3472762 2.941864 0.3441296
v -0.3600338 2.941864 0.3421087
v -0.3556376 2.941864 0.3414125
v -0.3441288 2.941864 0.3472767
v -0.3421085 2.941864 0.3512421
v -0.3414123 2.941864 0.3556385
v -0.3421085 2.941864 0.360034
v -0.3441288 2.941864 0.3639994
v -0.3472762 2.941864 0.3671465
v -0.3512418 2.941864 0.3691673
v -0.3556376 2.941864 0.3698635
v -0.3600338 2.941864 0.3691673
v -0.3639994 2.941864 0.3671465
v -0.3671465 2.941864 0.3639994
v -0.3691671 2.941864 0.360034
v -0.3698633 2.941864 0.3556385
v -0.3691671 2.941864 0.3512421
v -0.3671465 2.941864 0.3472767
v -0.3639994 2.941864 0.3441296

vt 0.1005999 0.0004537381
vt 0.1005996 0.9994308
vt 0.2005053 0.9994308
vt 0.2005054 0.0004537381
vt 0.300411 0.9994308
vt 0.300411 0.0004537381
vt 0.4003165 0.9994308
vt 0.4003165 0.0004537381
vt 0.500222 0.9994308
vt 0.500222 0.0004537381
vt 0.6001273 0.9994308
vt 0.6001273 0.0004537381
vt 0.7000328 0.9994308
vt 0.7000327 0.0004537381
vt 0.7999381 0.9994308
vt 0.799938 0.0004537381
vt 0.8998435 0.9994308
vt 0.8998432 0.0004537381
vt 0.9997491 0.9994308
vt 0.999749 0.0004537381
vt 0.0006936856 0.0004537381
vt 0.0006940446 0.9994308
vt 0.9720591 0.3466357
vt 0.5002245 0.4999442
vt 0.9963408 0.4999439
vt 0.901591 0.2083343
vt 0.9720596 0.6532523
vt 0.7918344 0.09857755
vt 0.9015915 0.7915539
vt 0.6535327 0.02810941
vt 0.7918347 0.9013107
vt 0.5002242 0.003827723
vt 0.653533 0.971779
vt 0.3469159 0.02810938
vt 0.5002243 0.9960608
vt 0.2086144 0.09857755
vt 0.3469157 0.971779
vt 0.09885782 0.2083341
vt 0.2086142 0.9013106
vt 0.02838971 0.3466356
vt 0.0988576 0.7915537
vt 0.004108027 0.4999439
vt 0.0283896 0.6532522
vt 12.10368 11.62303
vt 12.24251 11.55093
vt 11.22372 10.75474
vt 11.35273 10.68774
vt 11.91159 11.81761
vt 12.02125 11.70605
vt 11.03383 10.9471
vt 11.13573 10.84342
vt 11.73859 12.0627
vt 11.80853 11.92277
vt 10.86176 11.18635
vt 10.92676 11.05631
vt 12.51449 11.43644
vt 12.66879 11.46214
vt 11.64331 10.5453
vt 11.78671 10.56918
vt 12.31532 11.48224
vt 12.46973 11.45713
vt 11.43465 10.60976
vt 11.57813 10.58642
vt 12.31042 11.96884
vt 12.44414 12.05002
vt 11.5162 10.99691
vt 11.64046 11.07235
vt -11.36527 13.24403
vt -11.42926 13.38678
vt -10.44438 12.36009
vt -10.50385 12.49274
vt -17.59945 0.5209928
vt -17.75589 0.5209928
vt -16.35498 0.7512743
vt -16.50035 0.7512745
vt -12.5832 12.38265
vt -12.55927 12.53725
vt -11.63666 11.49828
vt -11.61442 11.64194
vt -12.28603 12.52041
vt -12.30951 12.67507
vt -11.3415 11.64659
vt -11.36333 11.79031
vt -12.72952 12.4246
vt -12.61976 12.53606
vt -11.79582 11.51297
vt -11.69382 11.61655
vt -12.70236 12.38532
vt -12.6323 12.52519
vt -11.75998 11.48742
vt -11.69487 11.61739
vt -12.62668 12.46936
vt -12.47226 12.49439
vt -11.72465 11.53093
vt -11.58115 11.55418
vt -12.6978 12.45879
vt -12.55891 12.53077
vt -11.77719 11.53394
vt -11.64812 11.60083
vt -12.13355 12.7519
vt -11.99818 12.6735
vt -11.33997 11.73902
vt -11.21417 11.66616
vt -12.5145 12.47272
vt -12.36016 12.44723
vt -11.64209 11.51515
vt -11.49865 11.49146
vt 10.17417 14.01948
vt 10.11266 13.87565
vt 9.319641 13.08593
vt 9.262481 12.95226
vt 17.75589 0.5209779
vt 17.59945 0.5209779
vt 16.50035 0.7512603
vt 16.35498 0.7512602
vt 11.55872 12.37561
vt 11.58257 12.22101
vt 10.68075 11.49117
vt 10.70291 11.34749
vt 11.26385 12.84541
vt 11.24055 12.69072
vt 10.38472 11.94955
vt 10.36307 11.80579
vt -11.99817 -12.6735
vt -12.13354 -12.75191
vt -11.21417 -11.66617
vt -11.33996 -11.73903
vt -17.59946 0.5210375
vt -17.75589 0.5210375
vt 10.11278 -13.87554
vt 10.17429 -14.01938
vt 9.262601 -12.95216
vt 9.319762 -13.08584
vt -12.47226 -12.49439
vt -12.62668 -12.46936
vt -11.58115 -11.55419
vt -11.72465 -11.53093
vt -12.36016 -12.44723
vt -12.5145 -12.47272
vt -11.49865 -11.49146
vt -11.64209 -11.51515
vt -12.55891 -12.53077
vt -12.6978 -12.45879
vt -11.64812 -11.60083
vt -11.77719 -11.53394
vt -12.63229 -12.5252
vt -12.70235 -12.38533
vt -11.69486 -11.6174
vt -11.75997 -11.48742
vt -12.61976 -12.53606
vt -12.72952 -12.4246
vt -11.69382 -11.61656
vt -11.79582 -11.51297
vt -12.30951 -12.67508
vt -12.28602 -12.52042
vt -11.36332 -11.79032
vt -11.3415 -11.6466
vt -12.55928 -12.53724
vt -12.5832 -12.38265
vt -11.61442 -11.64193
vt -11.63666 -11.49828
vt -11.42935 -13.38671
vt -11.36536 -13.24395
vt -10.50393 -12.49267
vt -10.44446 -12.36002
vt 12.66879 -11.46212
vt 12.51449 -11.43642
vt 11.78671 -10.56918
vt 11.64331 -10.54529
vt 12.44413 -12.05003
vt 12.31041 -11.96884
vt 11.64045 -11.07236
vt 11.51618 -10.99692
vt 12.24251 -11.55092
vt 12.10368 -11.62302
vt 11.35273 -10.68774
vt 11.22372 -10.75473
vt 12.46973 -11.45712
vt 12.31532 -11.48224
vt 11.57813 -10.58642
vt 11.43465 -10.60976
vt 11.80853 -11.92277
vt 11.73858 -12.06271
vt 10.92675 -11.05632
vt 10.86175 -11.18635
vt 12.02125 -11.70605
vt 11.91159 -11.81761
vt 11.13573 -10.84342
vt 11.03383 -10.9471
vt 11.24055 -12.69072
vt 11.26384 -12.84541
vt 10.36306 -11.8058
vt 10.38471 -11.94955
vt 11.58257 -12.22101
vt 11.55873 -12.37561
vt 10.70292 -11.34749
vt 10.68076 -11.49117
vt 12.13353 -12.75191
vt 11.99816 -12.67351
vt 11.33995 -11.73903
vt 11.21416 -11.66618
vt 12.62668 -12.46936
vt 12.47226 -12.49439
vt 11.72465 -11.53093
vt 11.58114 -11.55418
vt 12.5145 -12.47273
vt 12.36016 -12.44724
vt 11.64208 -11.51515
vt 11.49865 -11.49147
vt -10.17456 -14.01916
vt -10.11306 -13.87532
vt -9.320022 -13.08562
vt -9.262864 -12.95195
vt -11.55873 -12.37561
vt -11.58257 -12.22101
vt -10.68076 -11.49117
vt -10.70292 -11.34749
vt -11.26385 -12.84541
vt -11.24055 -12.69072
vt -10.38471 -11.94955
vt -10.36306 -11.8058
vt -11.91159 -11.81762
vt -12.02124 -11.70605
vt -11.03382 -10.94711
vt -11.13572 -10.84343
vt -11.73858 -12.06271
vt -11.80853 -11.92278
vt -10.86175 -11.18636
vt -10.92675 -11.05633
vt -12.31532 -11.48223
vt -12.46972 -11.45712
vt -11.43464 -10.60975
vt -11.57813 -10.58642
vt -12.10368 -11.62303
vt -12.24251 -11.55093
vt -11.22371 -10.75474
vt -11.35272 -10.68774
vt -12.31039 -11.96886
vt -12.44411 -12.05005
vt -11.51616 -10.99693
vt -11.64043 -11.07237
vt -12.51448 -11.43643
vt -12.66879 -11.46213
vt -11.6433 -10.5453
vt -11.78671 -10.56918
vt 11.36537 -13.24394
vt 11.42936 -13.3867
vt 10.44448 -12.36001
vt 10.50394 -12.49266
vt 12.5832 -12.38265
vt 12.55928 -12.53724
vt 11.63666 -11.49828
vt 11.61442 -11.64193
vt 12.28602 -12.52042
vt 12.30951 -12.67508
vt 11.3415 -11.6466
vt 11.36332 -11.79032
vt 12.70236 -12.38533
vt 12.63229 -12.5252
vt 11.75998 -11.48742
vt 11.69487 -11.6174
vt 12.69779 -12.45878
vt 12.5589 -12.53077
vt 11.77718 -11.53394
vt 11.64811 -11.60083
vt 12.72952 -12.4246
vt 12.61976 -12.53607
vt 11.79582 -11.51297
vt 11.69382 -11.61656
vt -12.24251 11.55093
vt -12.10368 11.62303
vt -11.35272 10.68774
vt -11.22371 10.75474
vt -12.66879 11.46213
vt -12.51448 11.43643
vt -11.78671 10.56918
vt -11.64331 10.5453
vt -12.46972 11.45713
vt -12.31532 11.48224
vt -11.57813 10.58642
vt -11.43464 10.60975
vt -11.80852 11.92278
vt -11.73857 12.06271
vt -10.92674 11.05633
vt -10.86175 11.18636
vt -12.02125 11.70605
vt -11.91159 11.81761
vt -11.13573 10.84342
vt -11.03383 10.9471
vt -11.24055 12.69072
vt -11.26385 12.84541
vt -10.36307 11.80579
vt -10.38472 11.94955
vt -11.58257 12.22101
vt -11.55872 12.37561
vt -10.70292 11.34749
vt -10.68076 11.49117
vt -10.11276 13.87557
vt -10.17427 14.0194
vt -9.262581 12.95218
vt -9.319737 13.08585
vt 12.36016 12.44724
vt 12.5145 12.47273
vt 11.49865 11.49146
vt 11.64208 11.51515
vt 11.99817 12.67351
vt 12.13354 12.75191
vt 11.21416 11.66617
vt 11.33996 11.73903
vt 12.55891 12.53077
vt 12.69779 12.45879
vt 11.64812 11.60083
vt 11.77718 11.53394
vt 12.47226 12.49439
vt 12.62668 12.46936
vt 11.58114 11.55419
vt 11.72465 11.53093
vt 12.6323 12.52519
vt 12.70236 12.38533
vt 11.69487 11.61739
vt 11.75998 11.48742
vt 12.61976 12.53607
vt 12.72952 12.4246
vt 11.69382 11.61656
vt 11.79582 11.51297
vt 12.30952 12.67507
vt 12.28603 12.52041
vt 11.36333 11.79031
vt 11.3415 11.64658
vt 12.55928 12.53725
vt 12.5832 12.38265
vt 11.61442 11.64194
vt 11.63665 11.49828
vt 11.42928 13.38677
vt 11.36529 13.24402
vt 10.50386 12.49273
vt 10.44439 12.36008
vt -12.44412 12.05004
vt -12.3104 11.96886
vt -11.64044 11.07237
vt -11.51618 10.99692
vt 11.31637 11.16404
vt 11.44585 11.09795
vt 8.303207 8.179324
vt 8.398355 8.130756
vt 11.19797 11.28275
vt 11.30068 11.17987
vt 8.210242 8.272572
vt 8.285719 8.196976
vt 11.11439 11.42988
vt 11.18029 11.30031
vt 8.142822 8.386655
vt 8.191252 8.291439
vt 11.62752 11.03622
vt 11.77108 11.05907
vt 8.551387 8.065325
vt 8.656884 8.082117
vt 11.46268 11.08075
vt 11.60625 11.05795
vt 8.418104 8.110567
vt 8.523609 8.093813
vt 11.78703 11.0458
vt 11.91605 11.11279
vt 8.702286 8.03834
vt 8.797093 8.087566
vt -11.74721 11.49925
vt -11.81252 11.62913
vt -8.565969 8.483388
vt -8.613962 8.578825
vt -16.35497 0.5327969
vt -16.50035 0.5327969
vt -12.01821 0.8017863
vt -12.12503 0.8017859
vt -12.00148 11.59894
vt -11.97879 11.74254
vt -8.789279 8.518594
vt -8.772599 8.624109
vt -11.93818 11.49772
vt -11.96084 11.64132
vt -8.732116 8.455313
vt -8.748762 8.560838
vt -11.95199 11.83216
vt -11.84927 11.93502
vt -8.76533 8.677292
vt -8.689849 8.752882
vt -12.00134 11.71934
vt -11.93542 11.84891
vt -8.795974 8.600066
vt -8.747539 8.695278
vt -11.75053 11.97095
vt -11.60696 11.99374
vt -8.629968 8.766839
vt -8.524463 8.783583
vt -11.86415 11.92027
vt -11.73467 11.98635
vt -8.706452 8.736417
vt -8.611301 8.784977
vt -11.50253 11.93583
vt -11.37336 11.86914
vt -8.486506 8.704932
vt -8.391585 8.655924
vt -11.6266 11.97515
vt -11.48303 11.95232
vt -8.550068 8.759285
vt -8.444568 8.742511
vt 10.92997 12.08397
vt 10.86495 11.95395
vt 7.952608 8.919284
vt 7.904832 8.823738
vt 16.50035 0.5327973
vt 16.35498 0.5327973
vt 12.12503 0.8017871
vt 12.01821 0.8017873
vt 11.06685 11.59778
vt 11.08953 11.45418
vt 8.100348 8.517404
vt 8.117019 8.411882
vt 11.04156 11.78752
vt 11.01892 11.64392
vt 8.06924 8.668891
vt 8.052608 8.563369
vt -11.37336 -11.86915
vt -11.50253 -11.93583
vt -8.391581 -8.655936
vt -8.486502 -8.70494
vt -16.35499 0.5332287
vt -16.50037 0.5332287
vt -12.01822 0.8021731
vt -12.12505 0.8021726
vt 10.86499 -11.9539
vt 10.93001 -12.08394
vt 7.904869 -8.823703
vt 7.952645 -8.919253
vt -11.60696 -11.99373
vt -11.75053 -11.97095
vt -8.524466 -8.783585
vt -8.62997 -8.766841
vt -11.48303 -11.95233
vt -11.6266 -11.97515
vt -8.444564 -8.742517
vt -8.550064 -8.759291
vt -11.73467 -11.98635
vt -11.86415 -11.92028
vt -8.611302 -8.784979
vt -8.706454 -8.736423
vt -11.93542 -11.84892
vt -12.00133 -11.71934
vt -8.747537 -8.695285
vt -8.795972 -8.600067
vt -11.84927 -11.93503
vt -11.95199 -11.83216
vt -8.689847 -8.752892
vt -8.765328 -8.677298
vt -11.96083 -11.64133
vt -11.93818 -11.49773
vt -8.748759 -8.560842
vt -8.732113 -8.455317
vt -11.97879 -11.74253
vt -12.00148 -11.59895
vt -8.772598 -8.624109
vt -8.789274 -8.518599
vt -11.81252 -11.62913
vt -11.74721 -11.49926
vt -8.613958 -8.578829
vt -8.565967 -8.483397
vt 11.77109 -11.05908
vt 11.62752 -11.03622
vt 8.656888 -8.082121
vt 8.551391 -8.065325
vt 11.91605 -11.11279
vt 11.78703 -11.04581
vt 8.79709 -8.087574
vt 8.702281 -8.038352
vt 11.44585 -11.09795
vt 11.31637 -11.16404
vt 8.398355 -8.130764
vt 8.303208 -8.179326
vt 11.60625 -11.05796
vt 11.46268 -11.08076
vt 8.523606 -8.09382
vt 8.418102 -8.110578
vt 11.18029 -11.30031
vt 11.11439 -11.42989
vt 8.191252 -8.291448
vt 8.142822 -8.386659
vt 11.30068 -11.17987
vt 11.19797 -11.28275
vt 8.285719 -8.19698
vt 8.210242 -8.27258
vt 11.01892 -11.64392
vt 11.04156 -11.78751
vt 8.052605 -8.563375
vt 8.069237 -8.668892
vt 11.08953 -11.45419
vt 11.06685 -11.59778
vt 8.117019 -8.411886
vt 8.100348 -8.517407
vt 11.50253 -11.93583
vt 11.37335 -11.86915
vt 8.486495 -8.704939
vt 8.391576 -8.655936
vt 11.75053 -11.97095
vt 11.60695 -11.99373
vt 8.629966 -8.766841
vt 8.524461 -8.783585
vt 11.62659 -11.97515
vt 11.48302 -11.95233
vt 8.550059 -8.759291
vt 8.444557 -8.742517
vt -10.93005 -12.08389
vt -10.86504 -11.95386
vt -7.952681 -8.919214
vt -7.904909 -8.823664
vt 16.50036 0.5333158
vt 16.35499 0.5333158
vt 12.12505 0.8022508
vt 12.01822 0.8022505
vt -11.06685 -11.59778
vt -11.08953 -11.45419
vt -8.100348 -8.517407
vt -8.117016 -8.411886
vt -11.04156 -11.78751
vt -11.01892 -11.64392
vt -8.069234 -8.668892
vt -8.052604 -8.563375
vt -11.19796 -11.28275
vt -11.30067 -11.17987
vt -8.210236 -8.27258
vt -8.285713 -8.19698
vt -11.11438 -11.42989
vt -11.18029 -11.30031
vt -8.142817 -8.386662
vt -8.191243 -8.291451
vt -11.46267 -11.08076
vt -11.60625 -11.05796
vt -8.418096 -8.110578
vt -8.523602 -8.093819
vt -11.31636 -11.16404
vt -11.44584 -11.09795
vt -8.303204 -8.179326
vt -8.398349 -8.130764
vt -11.78703 -11.04581
vt -11.91605 -11.11279
vt -8.702277 -8.038352
vt -8.797084 -8.087573
vt -11.62752 -11.03623
vt -11.77108 -11.05908
vt -8.551385 -8.065326
vt -8.656883 -8.082122
vt 11.74722 -11.49925
vt 11.81252 -11.62913
vt 8.56597 -8.483391
vt 8.613961 -8.578824
vt 12.00148 -11.59895
vt 11.97879 -11.74253
vt 8.789272 -8.518599
vt 8.772596 -8.624109
vt 11.93818 -11.49773
vt 11.96083 -11.64133
vt 8.732109 -8.455318
vt 8.748755 -8.560843
vt 12.00134 -11.71934
vt 11.93542 -11.84892
vt 8.795969 -8.600067
vt 8.747534 -8.695284
vt 11.86415 -11.92028
vt 11.73467 -11.98635
vt 8.706449 -8.736423
vt 8.611299 -8.784979
vt 11.95199 -11.83216
vt 11.84927 -11.93503
vt 8.765326 -8.677298
vt 8.689841 -8.752892
vt -11.44584 11.09795
vt -11.31636 11.16404
vt -8.398348 8.130756
vt -8.303203 8.179324
vt -11.77108 11.05907
vt -11.62751 11.03622
vt -8.656879 8.082117
vt -8.551381 8.065325
vt -11.60625 11.05795
vt -11.46267 11.08075
vt -8.523604 8.093813
vt -8.418097 8.110567
vt -11.18029 11.30031
vt -11.11438 11.42989
vt -8.191243 8.291442
vt -8.142817 8.386658
vt -11.30067 11.17987
vt -11.19796 11.28275
vt -8.285713 8.196976
vt -8.210236 8.272572
vt -11.01893 11.64392
vt -11.04156 11.78752
vt -8.052607 8.563369
vt -8.069237 8.668891
vt -11.08953 11.45418
vt -11.06685 11.59778
vt -8.117016 8.411882
vt -8.100348 8.517404
vt -10.865 11.9539
vt -10.93001 12.08393
vt -7.904873 8.823698
vt -7.952645 8.919244
vt 11.48302 11.95232
vt 11.62659 11.97515
vt 8.44456 8.742511
vt 8.550063 8.759285
vt 11.37335 11.86914
vt 11.50253 11.93583
vt 8.39158 8.655924
vt 8.4865 8.704932
vt 11.73467 11.98635
vt 11.86415 11.92027
vt 8.611298 8.784977
vt 8.706447 8.736417
vt 11.60695 11.99374
vt 11.75053 11.97095
vt 8.524459 8.783583
vt 8.629964 8.766839
vt 11.93542 11.84891
vt 12.00134 11.71934
vt 8.747536 8.695278
vt 8.795971 8.600065
vt 11.84927 11.93502
vt 11.95199 11.83216
vt 8.689843 8.752882
vt 8.765327 8.677292
vt 11.96083 11.64132
vt 11.93818 11.49773
vt 8.748755 8.560839
vt 8.732109 8.455315
vt 11.97879 11.74254
vt 12.00148 11.59894
vt 8.772595 8.624111
vt 8.78927 8.518596
vt 11.81252 11.62912
vt 11.74722 11.49925
vt 8.613961 8.57882
vt 8.56597 8.483383
vt -11.91605 11.11279
vt -11.78703 11.0458
vt -8.797088 8.087566
vt -8.702281 8.03834
vt 8.309764 8.198194
vt 8.404923 8.14965
vt 3.441581 3.375333
vt 3.481228 3.355106
vt 8.220655 8.287508
vt 8.296152 8.211932
vt 3.394604 3.422487
vt 3.42606 3.390999
vt 8.157578 8.397228
vt 8.206032 8.302024
vt 3.358394 3.478054
vt 3.378582 3.438391
vt 8.548606 8.093647
vt 8.654107 8.110412
vt 3.573363 3.298517
vt 3.617317 3.3055
vt 8.420524 8.133677
vt 8.52603 8.116938
vt 3.499922 3.335958
vt 3.54388 3.328985
vt 8.696008 8.068397
vt 8.790944 8.117375
vt 3.690503 3.230903
vt 3.730058 3.251311
vt -8.626163 8.445228
vt -8.674329 8.540578
vt -3.484075 3.574111
vt -3.504143 3.613836
vt -12.01821 0.7280174
vt -12.12504 0.7280174
vt -5.007232 1.098595
vt -5.051739 1.098595
vt -8.808852 8.522849
vt -8.792162 8.628363
vt -3.620779 3.543133
vt -3.613824 3.58709
vt -8.761702 8.449082
vt -8.77837 8.554604
vt -3.583491 3.530775
vt -3.590436 3.574742
vt -8.775196 8.691445
vt -8.699696 8.767016
vt -3.627299 3.592424
vt -3.595843 3.62391
vt -8.809959 8.610076
vt -8.761503 8.705277
vt -3.632499 3.567901
vt -3.612311 3.607563
vt -8.63222 8.788377
vt -8.526714 8.805108
vt -3.588682 3.612242
vt -3.544726 3.619213
vt -8.712625 8.754197
vt -8.617462 8.802736
vt -3.6106 3.609275
vt -3.570951 3.6295
vt -8.47944 8.734106
vt -8.384429 8.685272
vt -3.589138 3.529435
vt -3.549553 3.509087
vt -8.547506 8.785276
vt -8.442002 8.768525
vt -3.57184 3.593317
vt -3.527883 3.586338
vt 8.028565 8.872126
vt 7.980545 8.776703
vt 3.213641 3.762554
vt 3.193634 3.722799
vt 12.12503 0.7278873
vt 12.01821 0.7278873
vt 5.051735 1.098491
vt 5.007227 1.09849
vt 8.121231 8.521946
vt 8.137916 8.416427
vt 3.33077 3.542204
vt 3.337721 3.498238
vt 8.101959 8.662023
vt 8.0853 8.556505
vt 3.301974 3.620535
vt 3.295033 3.576577
vt -8.384422 -8.685286
vt -8.479434 -8.734115
vt -3.54954 -3.509113
vt -3.589125 -3.529451
vt -12.01822 0.7285198
vt -12.12505 0.7285198
vt -5.007235 1.099006
vt -5.051749 1.099003
vt 7.980563 -8.776686
vt 8.028584 -8.872113
vt 3.193649 -3.722789
vt 3.213657 -3.762543
vt -8.526714 -8.805112
vt -8.63222 -8.788381
vt -3.544726 -3.619217
vt -3.588682 -3.612246
vt -8.442002 -8.768529
vt -8.547506 -8.78528
vt -3.527883 -3.586341
vt -3.57184 -3.593321
vt -8.617464 -8.802738
vt -8.712626 -8.754204
vt -3.570953 -3.629502
vt -3.610603 -3.609287
vt -8.761502 -8.705282
vt -8.809958 -8.610076
vt -3.61231 -3.607568
vt -3.632498 -3.567906
vt -8.699695 -8.767026
vt -8.775195 -8.69145
vt -3.595841 -3.623924
vt -3.627298 -3.592429
vt -8.778367 -8.554607
vt -8.761699 -8.449086
vt -3.590435 -3.574746
vt -3.583489 -3.530779
vt -8.79216 -8.628364
vt -8.808848 -8.522855
vt -3.613822 -3.587095
vt -3.620776 -3.543139
vt 12.12502 0.7271339
vt 12.0182 0.7271339
vt 5.051735 1.097876
vt 5.007229 1.097877
vt -8.674318 -8.540589
vt -8.626154 -8.445244
vt -3.504135 -3.613846
vt -3.484068 -3.574121
vt 8.654112 -8.110415
vt 8.54861 -8.093646
vt 3.617322 -3.305498
vt 3.573368 -3.298515
vt 8.790937 -8.117386
vt 8.696001 -8.068412
vt 3.730041 -3.251332
vt 3.690486 -3.230923
vt 8.404925 -8.149657
vt 8.309766 -8.198196
vt 3.48123 -3.355108
vt 3.441583 -3.375335
vt 8.526028 -8.116944
vt 8.420521 -8.133689
vt 3.543877 -3.328992
vt 3.499919 -3.335965
vt 8.206033 -8.302032
vt 8.157579 -8.397231
vt 3.378583 -3.438394
vt 3.358395 -3.478057
vt 8.29615 -8.211938
vt 8.220654 -8.287518
vt 3.426058 -3.391004
vt 3.394603 -3.422492
vt 8.085299 -8.55651
vt 8.101958 -8.662023
vt 3.295032 -3.576582
vt 3.301973 -3.62054
vt 8.137916 -8.41643
vt 8.121231 -8.52195
vt 3.337721 -3.498242
vt 3.33077 -3.542208
vt 8.479427 -8.734114
vt 8.384418 -8.685285
vt 3.589118 -3.529449
vt 3.549533 -3.50911
vt 8.632216 -8.788381
vt 8.52671 -8.805112
vt 3.588675 -3.612246
vt 3.544716 -3.619217
vt 8.547502 -8.785281
vt 8.441996 -8.76853
vt 3.571829 -3.593321
vt 3.527873 -3.586342
vt -8.028605 -8.872087
vt -7.980588 -8.776659
vt -3.21367 -3.762521
vt -3.193665 -3.722767
vt 12.12504 0.7282777
vt 12.01821 0.7282777
vt 5.051741 1.098807
vt 5.007226 1.098809
vt -8.121229 -8.521951
vt -8.137911 -8.416432
vt -3.330761 -3.542209
vt -3.337712 -3.498243
vt -8.101959 -8.66202
vt -8.085302 -8.556507
vt -3.301968 -3.620537
vt -3.295028 -3.576579
vt -8.220648 -8.287517
vt -8.296146 -8.211937
vt -3.394593 -3.422492
vt -3.42605 -3.391004
vt -8.157575 -8.397232
vt -8.206024 -8.302033
vt -3.358386 -3.478059
vt -3.378571 -3.438395
vt -8.420514 -8.133689
vt -8.526023 -8.116944
vt -3.499909 -3.335964
vt -3.543866 -3.328992
vt -8.309761 -8.198196
vt -8.404919 -8.149657
vt -3.441573 -3.375336
vt -3.48122 -3.355108
vt -8.695998 -8.068411
vt -8.790934 -8.117385
vt -3.690481 -3.23092
vt -3.730035 -3.251328
vt -8.548605 -8.093646
vt -8.654107 -8.110415
vt -3.573358 -3.298515
vt -3.617315 -3.305498
vt 8.626163 -8.445233
vt 8.674325 -8.54058
vt 3.484068 -3.574113
vt 3.504135 -3.613837
vt -12.01821 0.7277619
vt -12.12504 0.7277619
vt -5.007226 1.098388
vt -5.051734 1.098388
vt 8.808845 -8.522856
vt 8.792157 -8.628364
vt 3.620766 -3.543139
vt 3.613814 -3.587095
vt 8.761697 -8.449085
vt 8.778364 -8.554606
vt 3.583483 -3.530777
vt 3.590426 -3.574744
vt 8.809956 -8.610076
vt 8.761499 -8.705282
vt 3.63249 -3.567906
vt 3.6123 -3.607568
vt 8.712621 -8.754204
vt 8.61746 -8.802738
vt 3.610593 -3.609287
vt 3.570945 -3.629503
vt 8.775193 -8.691449
vt 8.69969 -8.767026
vt 3.627289 -3.592428
vt 3.595833 -3.623924
vt -8.404917 8.149651
vt -8.309759 8.198195
vt -3.481218 3.355107
vt -3.441571 3.375334
vt -8.654103 8.110412
vt -8.548601 8.093647
vt -3.617309 3.3055
vt -3.573352 3.298517
vt -8.526026 8.116938
vt -8.420517 8.133677
vt -3.543869 3.328984
vt -3.499913 3.335958
vt -8.206023 8.302025
vt -8.157574 8.397229
vt -3.378569 3.438392
vt -3.358384 3.478056
vt -8.296148 8.211932
vt -8.220649 8.287507
vt -3.426052 3.390998
vt -3.394594 3.422486
vt -8.085303 8.556501
vt -8.10196 8.66202
vt -3.295029 3.576574
vt -3.30197 3.620532
vt -8.137911 8.416429
vt -8.121229 8.521947
vt -3.337712 3.498239
vt -3.330761 3.542205
vt -7.980571 8.776676
vt -8.028587 8.8721
vt -3.19365 3.722777
vt -3.213655 3.762532
vt 8.441996 8.768526
vt 8.547502 8.785277
vt 3.527873 3.586338
vt 3.571829 3.593318
vt 8.384425 8.68527
vt 8.479434 8.734105
vt 3.549547 3.509085
vt 3.589131 3.529433
vt 8.617458 8.802736
vt 8.712619 8.754197
vt 3.570943 3.629501
vt 3.61059 3.609276
vt 8.52671 8.805108
vt 8.632216 8.788377
vt 3.544716 3.619213
vt 3.588675 3.612242
vt 8.7615 8.705277
vt 8.809957 8.610076
vt 3.612301 3.607563
vt 3.632491 3.567901
vt 8.699691 8.767015
vt 8.775194 8.691444
vt 3.595834 3.623909
vt 3.62729 3.592423
vt 8.778364 8.554603
vt 8.761697 8.449081
vt 3.590426 3.574741
vt 3.583483 3.530773
vt 8.792156 8.628366
vt 8.808844 8.522852
vt 3.613814 3.587092
vt 3.620766 3.543136
vt 8.674336 8.540564
vt 8.626174 8.445213
vt 3.504145 3.613823
vt 3.484077 3.574099
vt -8.790939 8.117374
vt -8.696005 8.068396
vt -3.730052 3.251307
vt -3.690499 3.230899
vt 3.471994 3.439766
vt 3.51165 3.419558
vt 0.7269584 -0.7187431
vt 0.766616 -0.7389514
vt 3.440071 3.471534
vt 3.471543 3.440063
vt 0.695034 -0.6869736
vt 0.7265062 -0.7184449
vt 3.419348 3.511528
vt 3.439555 3.471874
vt 0.6743117 -0.646979
vt 0.6945171 -0.6866328
vt 3.556747 3.411846
vt 3.600705 3.418808
vt 0.8117173 -0.7466654
vt 0.855675 -0.7397036
vt 3.512135 3.419238
vt 3.556095 3.412276
vt 0.7671027 -0.7392722
vt 0.8110623 -0.746234
vt 3.601906 3.418018
vt 3.641563 3.438226
vt 0.8568831 -0.7404988
vt 0.8965397 -0.7202904
vt -3.657772 3.479793
vt -3.677978 3.519447
vt -0.9128112 -0.6787653
vt -0.9330176 -0.639111
vt 3.645959 3.435339
vt 3.67743 3.466811
vt 0.9009784 -0.723206
vt 0.9324494 -0.6917344
vt -3.696149 3.555987
vt -3.689185 3.599942
vt -0.9511104 -0.6025196
vt -0.9441467 -0.5585647
vt -3.687606 3.513066
vt -3.694569 3.55703
vt -0.9425683 -0.6454407
vt -0.9495301 -0.6014763
vt -3.670245 3.638761
vt -3.638774 3.670232
vt -0.9252089 -0.5197471
vt -0.8937376 -0.4882758
vt -3.689934 3.599447
vt -3.66973 3.639101
vt -0.9448974 -0.55906
vt -0.9246919 -0.5194062
vt -3.600053 3.689824
vt -3.556095 3.696785
vt -0.85502 -0.4686864
vt -0.8110623 -0.4617246
vt -3.639225 3.669935
vt -3.599568 3.690143
vt -0.89419 -0.488574
vt -0.8545333 -0.4683656
vt -3.513988 3.688603
vt -3.474332 3.668395
vt -0.7689659 -0.4699138
vt -0.7293083 -0.4901221
vt -3.556747 3.696356
vt -3.512787 3.689394
vt -0.8117173 -0.4621561
vt -0.7677577 -0.469118
vt 3.427608 3.647006
vt 3.407403 3.607352
vt 0.6826471 -0.5115518
vt 0.6624426 -0.5512061
vt -3.478728 3.665504
vt -3.447256 3.634032
vt -0.7337479 -0.4930416
vt -0.702276 -0.5245132
vt 3.411637 3.555987
vt 3.418599 3.512023
vt 0.666599 -0.6025193
vt 0.6735608 -0.6464837
vt 3.417019 3.600985
vt 3.410057 3.55703
vt 0.6719815 -0.5575218
vt 0.6650197 -0.6014767
vt -3.477506 -3.662136
vt -3.517163 -3.682335
vt -0.77552 -0.7113909
vt -0.8159716 -0.7034711
vt -3.498858 -3.582375
vt -3.5303 -3.613886
vt -0.7953455 -0.6589825
vt -0.8313432 -0.6603699
vt 3.412282 -3.604847
vt 3.432488 -3.644501
vt 0.6979634 -0.7134061
vt 0.7259377 -0.7239212
vt -3.55564 -3.693895
vt -3.599597 -3.686933
vt -0.8513845 -0.6916913
vt -0.888845 -0.6683655
vt -3.513407 -3.685457
vt -3.557367 -3.692419
vt -0.8121696 -0.7066355
vt -0.8531262 -0.6902028
vt -3.598513 -3.68806
vt -3.63817 -3.667861
vt -0.8877532 -0.6694989
vt -0.9180525 -0.6415582
vt -3.668423 -3.638434
vt -3.688627 -3.59878
vt -0.9369922 -0.6137972
vt -0.9450579 -0.5850075
vt -3.637437 -3.6689
vt -3.668908 -3.637419
vt -0.9173161 -0.6425998
vt -0.937479 -0.6127806
vt -3.694916 -3.556979
vt -3.687953 -3.513014
vt -0.9395617 -0.5622409
vt -0.9223106 -0.5436054
vt -3.688299 -3.599805
vt -3.695263 -3.55585
vt -0.9447293 -0.5860313
vt -0.9399079 -0.5611125
vt 3.694549 -3.449729
vt 3.663083 -3.418253
vt 0.9215814 -0.509028
vt 0.8855911 -0.5076749
vt -3.686797 -3.514916
vt -3.666591 -3.475262
vt -0.921158 -0.5455031
vt -0.8931789 -0.5349811
vt 3.600419 -3.420623
vt 3.556461 -3.413661
vt 0.8217072 -0.5385807
vt 0.7807469 -0.555003
vt 3.640763 -3.439804
vt 3.601105 -3.419595
vt 0.8628408 -0.529636
vt 0.822395 -0.5375524
vt 3.512291 -3.420821
vt 3.472634 -3.44103
vt 0.7430781 -0.5785381
vt 0.7127836 -0.6064805
vt 3.440359 -3.472289
vt 3.420152 -3.511943
vt 0.6918089 -0.6360903
vt 0.6837455 -0.6648717
vt 3.472371 -3.440898
vt 3.440899 -3.472369
vt 0.6923499 -0.6361699
vt 3.410389 -3.556981
vt 3.417351 -3.600936
vt 0.6857728 -0.6908749
vt 0.7030163 -0.7095104
vt 3.419179 -3.512119
vt 3.412217 -3.556083
vt 0.6827714 -0.6650484
vt 0.6876023 -0.689977
vt 3.518213 -3.680234
vt 3.478557 -3.660034
vt -0.8798435 -0.6996424
vt -0.9194989 -0.6794429
vt 3.599972 -3.689366
vt 3.556012 -3.696328
vt -0.7981501 -0.7088718
vt -0.8421116 -0.7158337
vt 3.556963 -3.694921
vt 3.513005 -3.687959
vt -0.8411555 -0.7144201
vt -0.8851132 -0.7074582
vt -3.43834 -3.6415
vt -3.418136 -3.601846
vt 0.9597842 -0.6610081
vt 0.9799877 -0.6213542
vt -3.46676 -3.677476
vt -3.435286 -3.645994
vt 0.9313467 -0.6969582
vt 0.9628205 -0.6654771
vt -3.412381 -3.556111
vt -3.419343 -3.512146
vt 0.9857439 -0.5756209
vt 0.9787821 -0.5316566
vt -3.418924 -3.600685
vt -3.411962 -3.55673
vt 0.9792016 -0.6201948
vt 0.9861634 -0.5762399
vt -3.440139 -3.471617
vt -3.471613 -3.440146
vt 0.9579851 -0.4911268
vt 0.926511 -0.4596556
vt -3.419652 -3.511691
vt -3.439855 -3.472037
vt 0.9784734 -0.5312009
vt 0.9582698 -0.4915471
vt -3.512053 -3.41878
vt -3.556011 -3.411818
vt 0.8860694 -0.4382863
vt 0.8421116 -0.4313245
vt -3.471935 -3.439671
vt -3.511591 -3.419463
vt 0.9261886 -0.4591794
vt 0.8865329 -0.438971
vt -3.606142 -3.409644
vt -3.645797 -3.429853
vt 0.7919139 -0.4290522
vt 0.7522576 -0.4492612
vt -3.556963 -3.410412
vt -3.600924 -3.417374
vt 0.8411556 -0.4299115
vt 0.7971941 -0.4368733
vt 3.668515 -3.474274
vt 3.688721 -3.513927
vt -0.729608 -0.4937822
vt -0.7094026 -0.533436
vt 3.633986 -3.447306
vt 3.665457 -3.478778
vt -0.7641194 -0.4667885
vt -0.7326484 -0.4982601
vt 3.696891 -3.556111
vt 3.689929 -3.600065
vt -0.7012344 -0.5756208
vt -0.7081962 -0.6195757
vt 3.689509 -3.512765
vt 3.696471 -3.55673
vt -0.7086158 -0.5322756
vt -0.701654 -0.5762399
vt 3.690237 -3.59961
vt 3.670031 -3.639264
vt -0.7078875 -0.6191199
vt -0.728093 -0.6587737
vt 3.639166 -3.669849
vt 3.59951 -3.690048
vt -0.7589568 -0.6893576
vt -0.7986135 -0.7095565
vt 3.670315 -3.638844
vt 3.638844 -3.670325
vt -0.7278085 -0.6583537
vt -0.7592797 -0.6898345
vt -3.512374 3.421
vt -3.472719 3.441208
vt 0.8788773 -0.5613342
vt 0.9042346 -0.5386177
vt -3.600301 3.421315
vt -3.55634 3.414353
vt 0.8147727 -0.6178108
vt 0.8480464 -0.5884185
vt 0.8479912 -0.5885289
vt -3.440528 3.472377
vt -3.420324 3.512031
vt 0.9223626 -0.5230891
vt 0.9301229 -0.5157177
vt -3.472475 3.441006
vt -3.441001 3.472478
vt 0.9218891 -0.522989
vt -3.411256 3.556838
vt -3.418218 3.600793
vt 0.9295811 -0.5166675
vt 0.9167858 -0.5274529
vt -3.419544 3.512174
vt -3.412582 3.556139
vt 0.9309044 -0.5155738
vt 0.9282546 -0.5173671
vt -3.326011 3.754069
vt -3.357394 3.785631
vt 0.9957792 -0.4446586
vt 0.9674644 -0.4691727
vt -3.415115 3.603387
vt -3.435318 3.643041
vt 0.91988 -0.5248691
vt 0.8981863 -0.5435956
vt 3.513195 3.686743
vt 3.557154 3.693705
vt -0.8304784 -0.6049227
vt -0.7972095 -0.6343142
vt 3.477007 3.663098
vt 3.516663 3.683306
vt -0.8594229 -0.579915
vt -0.8269584 -0.6084127
vt 3.599064 3.689164
vt 3.63872 3.668956
vt -0.7684453 -0.6592733
vt -0.7430859 -0.6819874
vt 3.555824 3.695132
vt 3.599785 3.68817
vt -0.7985517 -0.6328756
vt -0.7677201 -0.6602727
vt 3.669633 3.639056
vt 3.689839 3.599402
vt -0.7262384 -0.6962433
vt -0.71847 -0.7036234
vt 3.638326 3.669791
vt 3.669797 3.638319
vt -0.7434817 -0.6811514
vt -0.726074 -0.6969802
vt 3.696928 3.556653
vt 3.689966 3.512689
vt -0.7209902 -0.7006157
vt -0.7337946 -0.68983
vt 3.689848 3.600049
vt 3.69681 3.556094
vt -0.7184612 -0.7029775
vt -0.7211087 -0.7011747
vt 3.690055 3.513243
vt 3.669848 3.473589
vt -0.7337067 -0.6892765
vt -0.7554056 -0.6705474
vt -3.639974 3.441331
vt 0.7822886 -0.646508
vt 0.8147554 -0.6180027
vt 3.666232 3.477998
vt 3.634761 3.446527
vt -0.7589963 -0.6661657
vt -0.7874696 -0.6413463

vn 0.9510568 0 -0.3090159
vn 0.8090181 0 -0.5877837
vn 0.5877881 0 -0.8090149
vn 0.3090165 0 -0.9510567
vn 0 0 -1
vn -0.3090165 0 -0.9510567
vn -0.5877881 0 -0.8090149
vn -0.8090181 0 -0.5877837
vn -0.9510568 0 -0.3090159
vn -1 0 0
vn -0.9510568 0 0.3090159
vn -0.8090181 0 0.5877837
vn -0.5877881 0 0.8090149
vn -0.3090165 0 0.9510567
vn 0 0 1
vn 0.3090165 0 0.9510567
vn 0.5877881 0 0.8090149
vn 0.8090181 0 0.5877837
vn 0.9510568 0 0.3090159
vn 1 0 0
vn 0 1 0
vn 0 -1 0
vn -0.3758926 0.5555685 0.7416524
vn -0.3759614 0.5554306 0.7417209
vn -0.3760008 0.5555557 0.7416072
vn 0.9510646 0 -0.3089922
vn 0.6615071 0.009145708 -0.7498832
vn 0.6614959 0.009223614 -0.7498921
vn -0.4416003 -0.2320454 -0.8666857
vn -0.6858032 -0.243635 -0.6857959
vn -0.8666857 -0.2320454 -0.4416003
vn 0.1548198 -0.1431886 -0.977511
vn -0.1533391 -0.1978596 -0.9681625
vn 0.452799 -0.07244728 -0.8886644
vn 0.887647 0.08674771 -0.4522806
vn 0.7070922 0.007220241 -0.7070846
vn 0.9653669 0.2113995 0.1528952
vn 0.9754182 0.1571406 -0.1544871
vn 0.6834088 0.2567387 0.6834015
vn 0.8637904 0.2452676 0.440125
vn 0.1528963 0.2114002 0.9653666
vn 0.440125 0.2452679 0.8637903
vn -0.4522806 0.0867483 0.8876469
vn -0.1544883 0.1571412 0.9754179
vn -0.8886645 -0.07244679 0.452799
vn -0.7070922 0.007218153 0.7070846
vn -0.9681628 -0.1978589 -0.153338
vn -0.9775112 -0.1431887 0.1548186
vn -0.4522806 0.0867476 -0.887647
vn -0.7070922 0.007217642 -0.7070846
vn -0.8886705 -0.07245009 -0.4527866
vn 0.1528963 0.2114012 -0.9653664
vn -0.1544883 0.157141 -0.9754179
vn 0.440125 0.2452677 -0.8637903
vn 0.8637999 0.2452659 -0.4401074
vn 0.6834052 0.2567387 -0.6834052
vn 0.9754174 0.1571404 0.1544918
vn 0.9653659 0.2114009 -0.1528998
vn 0.7070922 0.007220776 0.7070846
vn 0.8876529 0.08675113 0.4522682
vn 0.1548198 -0.1431877 0.9775112
vn 0.452799 -0.07244711 0.8886644
vn -0.4416003 -0.2320447 0.8666859
vn -0.1533391 -0.1978595 0.9681626
vn -0.8666921 -0.2320441 0.4415884
vn -0.6858032 -0.2436352 0.6857958
vn -0.9775107 -0.1431874 -0.1548233
vn -0.9681619 -0.1978601 0.1533426
vn 0.4522806 0.08674819 -0.8876469
vn -0.1528929 0.2113998 -0.9653673
vn 0.1544871 0.1571423 -0.9754179
vn 0.8886883 -0.07245973 -0.4527501
vn 0.968162 -0.1978596 0.1533426
vn 0.9775107 -0.1431874 -0.1548233
vn 0.6858143 -0.2436353 0.6857847
vn 0.8666982 -0.2320436 0.4415767
vn 0.153338 -0.1978586 0.9681629
vn 0.4416002 -0.2320455 0.8666857
vn -0.4528053 -0.07244462 0.8886614
vn -0.1548163 -0.1431893 0.9775115
vn -0.8876529 0.08675127 0.4522682
vn -0.965366 0.2114004 -0.1528998
vn -0.9754175 0.1571402 0.1544918
vn -0.8637966 0.245267 -0.4401131
vn -0.440131 0.2452675 -0.8637874
vn -0.6834052 0.2567388 -0.6834052
vn 0.4416002 -0.2320457 -0.8666857
vn -0.1548163 -0.1431894 -0.9775115
vn 0.153338 -0.1978593 -0.9681628
vn 0.8667045 -0.2320417 -0.4415654
vn 0.6857995 -0.2436353 -0.6857995
vn 0.9775113 -0.1431884 0.1548186
vn 0.9681628 -0.197859 -0.153338
vn 0.8886704 -0.07245025 0.4527868
vn 0.1544871 0.1571413 0.9754181
vn 0.4522806 0.08674837 0.8876469
vn -0.4401309 0.2452683 0.8637872
vn -0.1528929 0.2113998 0.9653672
vn -0.8637905 0.2452674 0.440125
vn -0.6834051 0.2567392 0.6834051
vn -0.9754181 0.1571409 -0.1544871
vn -0.9653668 0.2114001 0.1528952
vn -0.8876469 0.08674819 -0.4522806
vn -0.4528052 -0.07244553 -0.8886614
vn -0.356438 -0.6193553 -0.6995363
vn -0.5439244 -0.6389884 -0.5439118
vn -0.6995329 -0.6193564 -0.3564427
vn 0.1411108 -0.4315843 -0.8909673
vn -0.1301058 -0.5551727 -0.8214961
vn 0.4414411 -0.2335554 -0.8663612
vn 0.8562145 0.2767026 -0.436271
vn 0.7069094 0.02387154 -0.7069012
vn 0.8033482 0.5817551 0.1272506
vn 0.8740716 0.4656561 -0.1384314
vn 0.5312342 0.6599703 0.5312527
vn 0.6833901 0.6416698 0.3481921
vn 0.1272348 0.5817497 0.8033546
vn 0.3482061 0.6416724 0.6833806
vn -0.436271 0.2767027 0.8562145
vn -0.1384326 0.4656558 0.8740716
vn -0.8663592 -0.2335497 0.441448
vn -0.706897 0.02387656 0.7069134
vn -0.821499 -0.5551702 -0.1300984
vn -0.8909663 -0.4315899 0.1410998
vn -0.4362432 0.2767237 -0.8562219
vn -0.7069137 0.02385708 -0.7068973
vn -0.8663675 -0.2335722 -0.4414198
vn 0.1272097 0.5817408 -0.8033651
vn -0.138403 0.465671 -0.8740682
vn 0.3481874 0.6416689 -0.6833934
vn 0.6834032 0.6416663 -0.3481731
vn 0.5312467 0.6599702 -0.5312405
vn 0.8740717 0.465656 0.1384315
vn 0.8033527 0.5817513 -0.1272397
vn 0.7069214 0.02388667 0.7068886
vn 0.8562146 0.2767023 0.436271
vn 0.1411409 -0.4315674 0.8909707
vn 0.4414134 -0.2335772 0.8663694
vn -0.3564189 -0.6193516 0.6995493
vn -0.1301314 -0.5551824 0.8214854
vn -0.699533 -0.6193562 0.3564428
vn -0.5439245 -0.6389884 0.5439119
vn -0.8909672 -0.431585 -0.1411093
vn -0.821499 -0.5551701 0.1300984
vn 0.4362432 0.2767239 -0.8562219
vn -0.1272068 0.5817399 -0.8033661
vn 0.1384019 0.4656714 -0.8740681
vn 0.8663777 -0.2336001 -0.441385
vn 0.8214963 -0.5551726 0.1301048
vn 0.8215035 -0.5551662 0.1300862
vn 0.8909678 -0.4315813 -0.1411167
vn 0.5439308 -0.6389884 0.5439055
vn 0.699549 -0.6193521 0.3564187
vn 0.1301305 -0.5551816 0.8214861
vn 0.3564189 -0.6193516 0.6995493
vn -0.4414134 -0.2335769 0.8663695
vn -0.1411373 -0.4315699 0.8909701
vn -0.8562181 0.2767135 0.436257
vn -0.8033473 0.581756 -0.1272522
vn -0.8740734 0.4656484 0.1384462
vn -0.6834 0.6416671 -0.3481778
vn -0.3481874 0.6416691 -0.6833933
vn -0.5312496 0.6599704 -0.5312372
vn 0.356438 -0.6193553 -0.6995363
vn -0.1411073 -0.4315858 -0.8909671
vn 0.1301048 -0.5551726 -0.8214963
vn 0.699549 -0.6193521 -0.3564187
vn 0.5439308 -0.6389883 -0.5439056
vn 0.890967 -0.4315862 0.1411072
vn 0.8214961 -0.5551729 -0.1301048
vn 0.8215038 -0.5551658 -0.1300863
vn 0.8663693 -0.2335776 0.4414133
vn 0.1384314 0.4656561 0.8740716
vn 0.436271 0.2767028 0.8562145
vn -0.3482061 0.6416725 0.6833805
vn -0.1272318 0.5817489 0.8033556
vn -0.6833869 0.6416708 0.3481967
vn -0.5312372 0.6599704 0.5312496
vn -0.8740733 0.4656486 -0.1384462
vn -0.8033505 0.5817531 0.1272443
vn -0.8562182 0.2767131 -0.4362571
vn -0.4414411 -0.233555 -0.8663613
vn -0.3252101 -0.6977683 -0.6382459
vn -0.493607 -0.7160337 -0.493607
vn -0.6382437 -0.697769 -0.325213
vn 0.1347042 -0.5086257 -0.850385
vn -0.1207285 -0.6360254 -0.7621655
vn 0.4352631 -0.2843447 -0.8542214
vn 0.8395162 0.3350006 -0.4277701
vn 0.8395132 0.334985 -0.427788
vn 0.7067997 0.02946598 -0.7067997
vn 0.7402963 0.6619729 0.1172741
vn 0.828227 0.5448231 -0.131179
vn 0.4792905 0.7352288 0.4792905
vn 0.6197147 0.7185066 0.3157561
vn 0.1172352 0.6619588 0.7403151
vn 0.3157674 0.718509 0.6197063
vn -0.4277651 0.3350053 0.8395168
vn -0.4277793 0.3349931 0.8395144
vn -0.1311545 0.5448374 0.8282214
vn -0.8542215 -0.2843445 0.4352631
vn -0.7067997 0.02946649 0.7067997
vn -0.7621752 -0.6360176 -0.1207087
vn -0.8503809 -0.5086378 0.1346843
vn -0.4277264 0.3350381 -0.8395234
vn -0.7068228 0.02943324 -0.7067781
vn -0.8542255 -0.2843627 -0.4352433
vn 0.1172352 0.6619588 -0.7403151
vn -0.1311545 0.5448374 -0.8282214
vn 0.3157448 0.7185047 -0.6197228
vn 0.3157088 0.7184975 -0.6197495
vn 0.6197231 0.7185044 -0.3157446
vn 0.4793057 0.7352285 -0.4792755
vn 0.828225 0.5448285 0.1311693
vn 0.7403053 0.6619661 -0.1172557
vn 0.7068268 0.02950724 0.706771
vn 0.7068198 0.02949655 0.7067785
vn 0.8395146 0.3349917 0.4277802
vn 0.1347439 -0.5086021 0.8503929
vn 0.4352244 -0.2843799 0.8542294
vn -0.3251867 -0.6977637 0.6382629
vn -0.1207605 -0.6360379 0.76215
vn -0.6382349 -0.6977714 0.3252248
vn -0.4936226 -0.7160337 0.4935915
vn -0.8503821 -0.5086341 -0.1346906
vn -0.7621751 -0.6360177 0.1207087
vn 0.4277313 0.3350343 -0.8395225
vn -0.1172352 0.6619588 -0.7403151
vn 0.1311529 0.5448382 -0.8282211
vn 0.8542334 -0.2843981 -0.4352046
vn 0.7621826 -0.6360118 0.1206927
vn 0.8503777 -0.5086466 -0.1346707
vn 0.4936146 -0.7160339 0.493599
vn 0.6382518 -0.6977668 0.3252015
vn 0.1207592 -0.6360378 0.7621504
vn 0.3251897 -0.6977642 0.6382607
vn -0.4352243 -0.2843801 0.8542293
vn -0.1347439 -0.5086017 0.8503931
vn -0.8395159 0.3350007 0.4277704
vn -0.839515 0.3349953 0.4277765
vn -0.7403051 0.6619664 -0.1172557
vn -0.8282246 0.544829 0.1311693
vn -0.619723 0.7185045 -0.3157445
vn -0.3157448 0.7185044 -0.619723
vn -0.3157121 0.7184983 -0.6197467
vn -0.4792978 0.735229 -0.4792827
vn 0.325213 -0.697769 -0.6382436
vn -0.1347042 -0.5086258 -0.850385
vn 0.1207273 -0.6360249 -0.7621662
vn 0.6382606 -0.6977643 -0.3251896
vn 0.4935992 -0.7160338 -0.4936147
vn 0.8503764 -0.5086505 0.1346644
vn 0.7621826 -0.6360118 -0.1206927
vn 0.8542293 -0.2843801 0.4352243
vn 0.1311529 0.5448383 0.8282211
vn 0.42777 0.335001 0.839516
vn 0.4277878 0.3349856 0.8395132
vn -0.3157674 0.718509 0.6197063
vn -0.1172352 0.6619588 0.7403151
vn -0.6197144 0.7185069 0.315756
vn -0.4792828 0.7352289 0.4792979
vn -0.8282245 0.5448291 -0.1311692
vn -0.7403075 0.6619647 0.1172507
vn -0.8395193 0.3350177 -0.4277506
vn -0.8395138 0.3349905 -0.4277826
vn -0.4352631 -0.2843444 -0.8542215
vn -0.01191444 -0.9996556 -0.02338117
vn -0.01882108 -0.9996457 -0.01882179
vn -0.02671085 -0.9995505 -0.01361078
vn 0.005524849 -0.9993761 -0.03488412
vn -0.004479735 -0.9995898 -0.02828677
vn 0.02396724 -0.9986057 -0.04703386
vn 0.2022497 0.9738956 -0.1030644
vn 0.09119065 -0.9916494 -0.09119065
vn 0.03815734 0.9992535 0.006045649
vn 0.06217187 0.9980169 -0.009845003
vn 0.01882151 0.9996457 0.01882151
vn 0.02671153 0.9995505 0.01361032
vn 0.004479956 0.9995898 0.02828662
vn 0.01191444 0.9996556 0.02338117
vn -0.02396724 0.9986057 0.04703387
vn -0.005524514 0.9993761 0.0348839
vn -0.2022116 -0.9739063 0.1030389
vn -0.09118063 0.9916509 0.09118408
vn -0.03816148 -0.9992533 -0.006042925
vn -0.06217614 -0.9980166 0.009847815
vn -0.07208042 0.9873078 -0.1415191
vn -0.1867121 0.9379933 -0.2435616
vn -0.3013437 0.8886787 -0.3456042
vn -0.5641446 0.6030345 -0.563995
vn -0.539281 0.6412961 -0.5435199
vn -0.5144175 0.6795577 -0.5230448
vn -0.1326975 -0.9888474 -0.06761733
vn -0.4017688 -0.3127553 -0.3570578
vn -0.6708401 0.3633367 -0.6464983
vn 0.01143097 0.9973264 -0.0721756
vn 0.07070806 0.9940733 -0.01751747
vn 0.1299852 0.9908201 0.03714067
vn -0.01498366 0.9954014 -0.09461258
vn -0.04663235 0.9903395 -0.1233004
vn -0.07828104 0.9852775 -0.1519883
vn 0.02801934 0.9980925 -0.05501178
vn 0.1715051 0.9613534 0.07957945
vn 0.3149908 0.9246144 0.2141707
vn 0.04662915 0.9986297 -0.02375894
vn 0.326741 0.8002187 0.2477149
vn 0.6068529 0.6018077 0.5191888
vn 0.03921867 0.9984612 -0.03920679
vn 0.2572263 0.8967972 0.1687554
vn 0.4752339 0.7951331 0.3767176
vn 0.0568905 0.9983398 0.009011774
vn 0.3943444 0.5001597 0.345265
vn 0.7317984 0.001979674 0.6815183
vn 0.05162985 0.9986327 -0.008180235
vn 0.375891 0.6677155 0.3106931
vn 0.7001522 0.3367984 0.6295664
vn 0.3226197 -0.8898544 0.3226075
vn 0.4214364 -0.7893784 0.4136677
vn 0.520253 -0.6889024 0.5047278
vn 0.07432551 0.9965146 0.0378733
vn 0.3737111 0.3150761 0.3401529
vn 0.6730967 -0.3663625 0.6424324
vn 0.00113372 -0.9999738 0.007158352
vn 0.05033303 -0.9949501 0.05392582
vn 0.09953235 -0.9899264 0.1006933
vn 0.01168517 -0.9996688 0.02293125
vn 0.1624274 -0.9491214 0.1651615
vn 0.3131696 -0.8985739 0.3073917
vn -0.002094251 -0.9999894 0.004109808
vn -0.1390711 -0.9629886 -0.1267317
vn -0.276048 -0.9259878 -0.2575732
vn -0.0005614021 -0.9999936 0.003544908
vn -0.04912458 -0.995608 -0.04276758
vn -0.09768776 -0.9912224 -0.08908007
vn -0.0144132 -0.9998692 0.007344387
vn -0.2974214 -0.8056583 -0.26523
vn -0.5804296 -0.6114476 -0.5378044
vn -0.00612803 -0.9999624 0.006128262
vn -0.2219841 -0.9007506 -0.200548
vn -0.4378402 -0.8015388 -0.4072243
vn -0.05714785 -0.9983247 -0.009051406
vn -0.3931794 -0.5015367 -0.3466619
vn -0.729211 -0.004748637 -0.6842725
vn -0.02929832 -0.9995599 0.00463943
vn -0.3587325 -0.672011 -0.3169657
vn -0.6881666 -0.3444621 -0.6385708
vn 0.08774248 0.9811352 -0.172264
vn -0.005594441 0.9993601 -0.03532736
vn 0.008998506 0.998344 -0.05681694
vn 0.04508134 -0.9987193 -0.02296893
vn 0.09088516 -0.9917074 -0.09086451
vn 0.02667994 -0.9996351 0.004224806
vn 0.03308871 -0.9994387 -0.005240781
vn 0.01760992 -0.9996898 0.01761125
vn 0.0219619 -0.9996961 0.01118958
vn 0.005594933 -0.9993602 0.03532664
vn 0.01267993 -0.99961 0.02488265
vn -0.08790448 -0.9810792 0.1725006
vn -0.08789928 -0.981081 0.172493
vn -0.008997235 -0.9983441 0.05681507
vn -0.04508416 0.998719 0.02297308
vn -0.09092769 0.9916977 0.09092769
vn -0.02667938 0.9996351 -0.004225634
vn -0.03308785 0.9994387 0.005239507
vn -0.02196123 0.9996961 -0.01119057
vn -0.01267652 0.9996099 -0.02488769
vn -0.01761262 0.9996898 -0.01760728
vn 0.0006680221 -0.9999989 -0.001310903
vn 0.2193428 -0.8817185 0.236675
vn 0.4380176 -0.763438 0.4746609
vn 0.0005575263 -0.9999937 0.003520626
vn 0.02397312 -0.9986972 0.02890078
vn 0.04738872 -0.9974006 0.05428093
vn -0.0002890448 -0.9999983 0.001825041
vn 0.127195 -0.9629609 0.1403797
vn 0.254679 -0.9259235 0.2789344
vn 0.01165877 -0.9999144 -0.00594014
vn 0.3373252 -0.619996 0.3515736
vn 0.6629915 -0.2400775 0.7090874
vn 0.004406494 -0.9999806 -0.004406828
vn 0.2915575 -0.7636728 0.3088363
vn 0.5787085 -0.527365 0.6220793
vn 0.04384647 -0.9990141 0.006944657
vn 0.3371291 -0.3126652 0.3436714
vn 0.6304118 0.3736837 0.680398
vn 0.02361025 -0.9997143 -0.003738717
vn 0.3524136 -0.4647914 0.362488
vn 0.681217 0.07013144 0.7287147
vn 0.6480744 -0.3999194 0.6481235
vn 0.4968114 0.2232372 0.5266783
vn 0.3455485 0.8463938 0.405233
vn 0.09068465 -0.9948073 0.04620381
vn 0.3027196 -0.1768332 0.307692
vn 0.5147545 0.6411409 0.5691803
vn 0.01190625 0.9970992 0.07517654
vn -0.03369341 0.9968946 0.02861944
vn -0.07929307 0.99669 -0.01793767
vn 0.06475025 0.9897789 0.1270636
vn 0.1026756 0.9793375 0.165355
vn 0.140601 0.968896 0.2036464
vn -0.01949946 0.9990774 0.03826505
vn -0.24624 0.8820404 -0.1994191
vn -0.4729806 0.7650034 -0.4371033
vn -0.008462595 0.9985353 0.05343897
vn -0.1497059 0.962525 -0.0925689
vn -0.2909492 0.9265148 -0.2385768
vn -0.02804711 0.9995044 0.01429168
vn -0.3550006 0.6200476 -0.3381999
vn -0.6819541 0.2405908 -0.6906915
vn -0.02553445 0.9993478 0.02553445
vn -0.3164585 0.7638249 -0.2838737
vn -0.6073825 0.5283021 -0.5932819
vn -0.02610262 0.9996507 -0.004133386
vn -0.3311685 0.3128054 -0.3394463
vn -0.6362344 -0.37404 -0.6747591
vn -0.02791513 0.9996005 0.004421359
vn -0.359637 0.4645602 -0.3573222
vn -0.6913589 -0.07048018 -0.7190657
vn -0.02475234 0.9996141 -0.0126128
vn -0.2735947 0.1788951 -0.2869849
vn -0.5224372 -0.6418238 -0.561357
vn 0.0002914355 -0.9999998 0.0005719027
vn -0.08215316 -0.9851663 -0.08826059
vn -0.1645977 -0.9703327 -0.1770931
vn -0.07941897 0.9936726 -0.07941897
vn -0.2198758 0.07305065 -0.2345064
vn -0.3603326 -0.8475713 -0.3895938

usemtl mi_rope_startend_inst_base_color
f 53/35/21 42/24/21 51/33/21
f 60/42/21 42/24/21 61/43/21
f 8/37/22 62/24/22 10/35/22
f 26/28/22 62/24/22 28/30/22
f 14/31/22 62/24/22 16/29/22
f 20/25/22 62/24/22 22/23/22
f 115/35/25 104/24/23 113/33/23
f 122/42/24 104/24/23 123/43/23
f 70/37/22 124/24/22 72/35/22
f 88/28/22 124/24/22 90/30/22
f 76/31/22 124/24/22 78/29/22
f 82/25/22 124/24/22 84/23/22
f 177/35/21 166/24/21 175/33/21
f 184/42/21 166/24/21 185/43/21
f 132/37/22 186/24/22 134/35/22
f 150/28/22 186/24/22 152/30/22
f 138/31/22 186/24/22 140/29/22
f 144/25/22 186/24/22 146/23/22
f 239/35/27 228/24/28 237/33/28
f 246/42/27 228/24/28 247/43/27
f 194/37/22 248/24/22 196/35/22
f 212/28/22 248/24/22 214/30/22
f 200/31/22 248/24/22 202/29/22
f 206/25/22 248/24/22 208/23/22
f 3/3/2 2/2/1 1/1/1
f 1/1/1 4/4/2 3/3/2
f 5/5/3 3/3/2 4/4/2
f 4/4/2 6/6/3 5/5/3
f 7/7/4 5/5/3 6/6/3
f 6/6/3 8/8/4 7/7/4
f 9/9/5 7/7/4 8/8/4
f 8/8/4 10/10/5 9/9/5
f 11/11/6 9/9/5 10/10/5
f 10/10/5 12/12/6 11/11/6
f 13/13/7 11/11/6 12/12/6
f 12/12/6 14/14/7 13/13/7
f 15/15/8 13/13/7 14/14/7
f 14/14/7 16/16/8 15/15/8
f 17/17/9 15/15/8 16/16/8
f 16/16/8 18/18/9 17/17/9
f 19/19/10 17/17/9 18/18/9
f 18/18/9 20/20/10 19/19/10
f 21/2/11 19/22/10 20/21/10
f 20/21/10 22/1/11 21/2/11
f 23/3/12 21/2/11 22/1/11
f 22/1/11 24/4/12 23/3/12
f 25/5/13 23/3/12 24/4/12
f 24/4/12 26/6/13 25/5/13
f 27/7/14 25/5/13 26/6/13
f 26/6/13 28/8/14 27/7/14
f 29/9/15 27/7/14 28/8/14
f 28/8/14 30/10/15 29/9/15
f 31/11/16 29/9/15 30/10/15
f 30/10/15 32/12/16 31/11/16
f 33/13/17 31/11/16 32/12/16
f 32/12/16 34/14/17 33/13/17
f 35/15/18 33/13/17 34/14/17
f 34/14/17 36/16/18 35/15/18
f 37/17/19 35/15/18 36/16/18
f 36/16/18 38/18/19 37/17/19
f 39/19/20 37/17/19 38/18/19
f 38/18/19 40/20/20 39/19/20
f 2/2/1 39/22/20 40/21/20
f 40/21/20 1/1/1 2/2/1
f 41/23/21 43/25/21 42/24/21
f 42/24/21 44/26/21 41/23/21
f 47/29/21 42/24/21 43/25/21
f 43/25/21 45/27/21 47/29/21
f 46/28/21 44/26/21 42/24/21
f 42/24/21 48/30/21 46/28/21
f 51/33/21 42/24/21 47/29/21
f 47/29/21 49/31/21 51/33/21
f 50/32/21 48/30/21 42/24/21
f 42/24/21 52/34/21 50/32/21
f 54/36/21 52/34/21 42/24/21
f 42/24/21 56/38/21 54/36/21
f 57/39/21 42/24/21 53/35/21
f 53/35/21 55/37/21 57/39/21
f 58/40/21 56/38/21 42/24/21
f 42/24/21 60/42/21 58/40/21
f 61/43/21 42/24/21 57/39/21
f 57/39/21 59/41/21 61/43/21
f 36/38/22 62/24/22 40/42/22
f 40/42/22 38/40/22 36/38/22
f 1/43/22 40/42/22 62/24/22
f 62/24/22 4/41/22 1/43/22
f 32/34/22 62/24/22 36/38/22
f 36/38/22 34/36/22 32/34/22
f 6/39/22 4/41/22 62/24/22
f 62/24/22 8/37/22 6/39/22
f 28/30/22 62/24/22 32/34/22
f 32/34/22 30/32/22 28/30/22
f 12/33/22 10/35/22 62/24/22
f 62/24/22 14/31/22 12/33/22
f 22/23/22 62/24/22 26/28/22
f 26/28/22 24/26/22 22/23/22
f 18/27/22 16/29/22 62/24/22
f 62/24/22 20/25/22 18/27/22
f 65/3/2 64/2/1 63/1/1
f 63/1/1 66/4/2 65/3/2
f 67/5/3 65/3/2 66/4/2
f 66/4/2 68/6/3 67/5/3
f 69/7/4 67/5/3 68/6/3
f 68/6/3 70/8/4 69/7/4
f 71/9/5 69/7/4 70/8/4
f 70/8/4 72/10/5 71/9/5
f 73/11/6 71/9/5 72/10/5
f 72/10/5 74/12/6 73/11/6
f 75/13/7 73/11/6 74/12/6
f 74/12/6 76/14/7 75/13/7
f 77/15/8 75/13/7 76/14/7
f 76/14/7 78/16/8 77/15/8
f 79/17/9 77/15/8 78/16/8
f 78/16/8 80/18/9 79/17/9
f 81/19/10 79/17/9 80/18/9
f 80/18/9 82/20/10 81/19/10
f 83/2/11 81/22/10 82/21/10
f 82/21/10 84/1/11 83/2/11
f 85/3/12 83/2/11 84/1/11
f 84/1/11 86/4/12 85/3/12
f 87/5/13 85/3/12 86/4/12
f 86/4/12 88/6/13 87/5/13
f 89/7/14 87/5/13 88/6/13
f 88/6/13 90/8/14 89/7/14
f 91/9/15 89/7/14 90/8/14
f 90/8/14 92/10/15 91/9/15
f 93/11/16 91/9/15 92/10/15
f 92/10/15 94/12/16 93/11/16
f 95/13/17 93/11/16 94/12/16
f 94/12/16 96/14/17 95/13/17
f 97/15/18 95/13/17 96/14/17
f 96/14/17 98/16/18 97/15/18
f 99/17/19 97/15/18 98/16/18
f 98/16/18 100/18/19 99/17/19
f 101/19/20 99/17/19 100/18/19
f 100/18/19 102/20/20 101/19/20
f 64/2/1 101/22/20 102/21/20
f 102/21/20 63/1/1 64/2/1
f 103/23/23 105/25/24 104/24/23
f 104/24/23 106/26/23 103/23/23
f 109/29/23 104/24/23 105/25/24
f 105/25/24 107/27/23 109/29/23
f 108/28/23 106/26/23 104/24/23
f 104/24/23 110/30/23 108/28/23
f 113/33/23 104/24/23 109/29/23
f 109/29/23 111/31/23 113/33/23
f 112/32/25 110/30/23 104/24/23
f 104/24/23 114/34/25 112/32/25
f 116/36/24 114/34/25 104/24/23
f 104/24/23 118/38/23 116/36/24
f 119/39/23 104/24/23 115/35/25
f 115/35/25 117/37/23 119/39/23
f 120/40/24 118/38/23 104/24/23
f 104/24/23 122/42/24 120/40/24
f 123/43/23 104/24/23 119/39/23
f 119/39/23 121/41/23 123/43/23
f 98/38/22 124/24/22 102/42/22
f 102/42/22 100/40/22 98/38/22
f 63/43/22 102/42/22 124/24/22
f 124/24/22 66/41/22 63/43/22
f 94/34/22 124/24/22 98/38/22
f 98/38/22 96/36/22 94/34/22
f 68/39/22 66/41/22 124/24/22
f 124/24/22 70/37/22 68/39/22
f 90/30/22 124/24/22 94/34/22
f 94/34/22 92/32/22 90/30/22
f 74/33/22 72/35/22 124/24/22
f 124/24/22 76/31/22 74/33/22
f 84/23/22 124/24/22 88/28/22
f 88/28/22 86/26/22 84/23/22
f 80/27/22 78/29/22 124/24/22
f 124/24/22 82/25/22 80/27/22
f 127/3/2 126/2/26 125/1/26
f 125/1/26 128/4/2 127/3/2
f 129/5/3 127/3/2 128/4/2
f 128/4/2 130/6/3 129/5/3
f 131/7/4 129/5/3 130/6/3
f 130/6/3 132/8/4 131/7/4
f 133/9/5 131/7/4 132/8/4
f 132/8/4 134/10/5 133/9/5
f 135/11/6 133/9/5 134/10/5
f 134/10/5 136/12/6 135/11/6
f 137/13/7 135/11/6 136/12/6
f 136/12/6 138/14/7 137/13/7
f 139/15/8 137/13/7 138/14/7
f 138/14/7 140/16/8 139/15/8
f 141/17/9 139/15/8 140/16/8
f 140/16/8 142/18/9 141/17/9
f 143/19/10 141/17/9 142/18/9
f 142/18/9 144/20/10 143/19/10
f 145/2/11 143/22/10 144/21/10
f 144/21/10 146/1/11 145/2/11
f 147/3/12 145/2/11 146/1/11
f 146/1/11 148/4/12 147/3/12
f 149/5/13 147/3/12 148/4/12
f 148/4/12 150/6/13 149/5/13
f 151/7/14 149/5/13 150/6/13
f 150/6/13 152/8/14 151/7/14
f 153/9/15 151/7/14 152/8/14
f 152/8/14 154/10/15 153/9/15
f 155/11/16 153/9/15 154/10/15
f 154/10/15 156/12/16 155/11/16
f 157/13/17 155/11/16 156/12/16
f 156/12/16 158/14/17 157/13/17
f 159/15/18 157/13/17 158/14/17
f 158/14/17 160/16/18 159/15/18
f 161/17/19 159/15/18 160/16/18
f 160/16/18 162/18/19 161/17/19
f 163/19/20 161/17/19 162/18/19
f 162/18/19 164/20/20 163/19/20
f 126/2/26 163/22/20 164/21/20
f 164/21/20 125/1/26 126/2/26
f 165/23/21 167/25/21 166/24/21
f 166/24/21 168/26/21 165/23/21
f 171/29/21 166/24/21 167/25/21
f 167/25/21 169/27/21 171/29/21
f 170/28/21 168/26/21 166/24/21
f 166/24/21 172/30/21 170/28/21
f 175/33/21 166/24/21 171/29/21
f 171/29/21 173/31/21 175/33/21
f 174/32/21 172/30/21 166/24/21
f 166/24/21 176/34/21 174/32/21
f 178/36/21 176/34/21 166/24/21
f 166/24/21 180/38/21 178/36/21
f 181/39/21 166/24/21 177/35/21
f 177/35/21 179/37/21 181/39/21
f 182/40/21 180/38/21 166/24/21
f 166/24/21 184/42/21 182/40/21
f 185/43/21 166/24/21 181/39/21
f 181/39/21 183/41/21 185/43/21
f 160/38/22 186/24/22 164/42/22
f 164/42/22 162/40/22 160/38/22
f 125/43/22 164/42/22 186/24/22
f 186/24/22 128/41/22 125/43/22
f 156/34/22 186/24/22 160/38/22
f 160/38/22 158/36/22 156/34/22
f 130/39/22 128/41/22 186/24/22
f 186/24/22 132/37/22 130/39/22
f 152/30/22 186/24/22 156/34/22
f 156/34/22 154/32/22 152/30/22
f 136/33/22 134/35/22 186/24/22
f 186/24/22 138/31/22 136/33/22
f 146/23/22 186/24/22 150/28/22
f 150/28/22 148/26/22 146/23/22
f 142/27/22 140/29/22 186/24/22
f 186/24/22 144/25/22 142/27/22
f 189/3/2 188/2/26 187/1/26
f 187/1/26 190/4/2 189/3/2
f 191/5/3 189/3/2 190/4/2
f 190/4/2 192/6/3 191/5/3
f 193/7/4 191/5/3 192/6/3
f 192/6/3 194/8/4 193/7/4
f 195/9/5 193/7/4 194/8/4
f 194/8/4 196/10/5 195/9/5
f 197/11/6 195/9/5 196/10/5
f 196/10/5 198/12/6 197/11/6
f 199/13/7 197/11/6 198/12/6
f 198/12/6 200/14/7 199/13/7
f 201/15/8 199/13/7 200/14/7
f 200/14/7 202/16/8 201/15/8
f 203/17/9 201/15/8 202/16/8
f 202/16/8 204/18/9 203/17/9
f 205/19/10 203/17/9 204/18/9
f 204/18/9 206/20/10 205/19/10
f 207/2/11 205/22/10 206/21/10
f 206/21/10 208/1/11 207/2/11
f 209/3/12 207/2/11 208/1/11
f 208/1/11 210/4/12 209/3/12
f 211/5/13 209/3/12 210/4/12
f 210/4/12 212/6/13 211/5/13
f 213/7/14 211/5/13 212/6/13
f 212/6/13 214/8/14 213/7/14
f 215/9/15 213/7/14 214/8/14
f 214/8/14 216/10/15 215/9/15
f 217/11/16 215/9/15 216/10/15
f 216/10/15 218/12/16 217/11/16
f 219/13/17 217/11/16 218/12/16
f 218/12/16 220/14/17 219/13/17
f 221/15/18 219/13/17 220/14/17
f 220/14/17 222/16/18 221/15/18
f 223/17/19 221/15/18 222/16/18
f 222/16/18 224/18/19 223/17/19
f 225/19/20 223/17/19 224/18/19
f 224/18/19 226/20/20 225/19/20
f 188/2/26 225/22/20 226/21/20
f 226/21/20 187/1/26 188/2/26
f 227/23/27 229/25/28 228/24/28
f 228/24/28 230/26/28 227/23/27
f 233/29/27 228/24/28 229/25/28
f 229/25/28 231/27/28 233/29/27
f 232/28/28 230/26/28 228/24/28
f 228/24/28 234/30/28 232/28/28
f 237/33/28 228/24/28 233/29/27
f 233/29/27 235/31/28 237/33/28
f 236/32/27 234/30/28 228/24/28
f 228/24/28 238/34/28 236/32/27
f 240/36/27 238/34/28 228/24/28
f 228/24/28 242/38/27 240/36/27
f 243/39/28 228/24/28 239/35/27
f 239/35/27 241/37/28 243/39/28
f 244/40/27 242/38/27 228/24/28
f 228/24/28 246/42/27 244/40/27
f 247/43/27 228/24/28 243/39/28
f 243/39/28 245/41/28 247/43/27
f 222/38/22 248/24/22 226/42/22
f 226/42/22 224/40/22 222/38/22
f 187/43/22 226/42/22 248/24/22
f 248/24/22 190/41/22 187/43/22
f 218/34/22 248/24/22 222/38/22
f 222/38/22 220/36/22 218/34/22
f 192/39/22 190/41/22 248/24/22
f 248/24/22 194/37/22 192/39/22
f 214/30/22 248/24/22 218/34/22
f 218/34/22 216/32/22 214/30/22
f 198/33/22 196/35/22 248/24/22
f 248/24/22 200/31/22 198/33/22
f 208/23/22 248/24/22 212/28/22
f 212/28/22 210/26/22 208/23/22
f 204/27/22 202/29/22 248/24/22
f 248/24/22 206/25/22 204/27/22
f 250/47/29 11/45/29 13/44/29
f 13/44/29 249/46/29 250/47/29
f 249/51/30 13/49/30 15/48/30
f 15/48/30 251/50/30 249/51/30
f 251/55/31 15/53/31 17/52/31
f 17/52/31 252/54/31 251/55/31
f 254/59/32 7/57/32 9/56/32
f 9/56/32 253/58/32 254/59/32
f 253/63/33 9/61/33 11/60/33
f 11/60/33 250/62/33 253/63/33
f 255/67/34 5/65/34 7/64/34
f 7/64/34 254/66/34 255/67/34
f 257/71/35 2/69/35 3/68/35
f 3/68/35 256/70/35 257/71/35
f 256/75/36 3/73/36 5/72/36
f 5/72/36 255/74/36 256/75/36
f 259/79/37 37/77/37 39/76/37
f 39/76/37 258/78/37 259/79/37
f 258/83/38 39/81/38 2/80/38
f 2/80/38 257/82/38 258/83/38
f 261/87/39 33/85/39 35/84/39
f 35/84/39 260/86/39 261/87/39
f 260/91/40 35/89/40 37/88/40
f 37/88/40 259/90/40 260/91/40
f 263/95/41 29/93/41 31/92/41
f 31/92/41 262/94/41 263/95/41
f 262/99/42 31/97/42 33/96/42
f 33/96/42 261/98/42 262/99/42
f 265/103/43 25/101/43 27/100/43
f 27/100/43 264/102/43 265/103/43
f 264/107/44 27/105/44 29/104/44
f 29/104/44 263/106/44 264/107/44
f 267/111/45 21/109/45 23/108/45
f 23/108/45 266/110/45 267/111/45
f 266/115/46 23/113/46 25/112/46
f 25/112/46 265/114/46 266/115/46
f 252/119/47 17/117/47 19/116/47
f 19/116/47 268/118/47 252/119/47
f 268/123/48 19/121/48 21/120/48
f 21/120/48 267/122/48 268/123/48
f 270/127/49 73/125/49 75/124/49
f 75/124/49 269/126/49 270/127/49
f 269/75/50 75/129/50 77/128/50
f 77/128/50 271/74/50 269/75/50
f 271/133/51 77/131/51 79/130/51
f 79/130/51 272/132/51 271/133/51
f 274/137/52 69/135/52 71/134/52
f 71/134/52 273/136/52 274/137/52
f 273/141/53 71/139/53 73/138/53
f 73/138/53 270/140/53 273/141/53
f 275/145/54 67/143/54 69/142/54
f 69/142/54 274/144/54 275/145/54
f 277/149/55 64/147/55 65/146/55
f 65/146/55 276/148/55 277/149/55
f 276/153/56 65/151/56 67/150/56
f 67/150/56 275/152/56 276/153/56
f 279/157/57 99/155/57 101/154/57
f 101/154/57 278/156/57 279/157/57
f 278/161/58 101/159/58 64/158/58
f 64/158/58 277/160/58 278/161/58
f 281/115/59 95/113/59 97/112/59
f 97/112/59 280/114/59 281/115/59
f 280/165/60 97/163/60 99/162/60
f 99/162/60 279/164/60 280/165/60
f 283/169/61 91/167/61 93/166/61
f 93/166/61 282/168/61 283/169/61
f 282/173/62 93/171/62 95/170/62
f 95/170/62 281/172/62 282/173/62
f 285/177/63 87/175/63 89/174/63
f 89/174/63 284/176/63 285/177/63
f 284/181/64 89/179/64 91/178/64
f 91/178/64 283/180/64 284/181/64
f 287/185/65 83/183/65 85/182/65
f 85/182/65 286/184/65 287/185/65
f 286/189/66 85/187/66 87/186/66
f 87/186/66 285/188/66 286/189/66
f 272/193/67 79/191/67 81/190/67
f 81/190/67 288/192/67 272/193/67
f 288/197/68 81/195/68 83/194/68
f 83/194/68 287/196/68 288/197/68
f 290/201/69 129/199/69 131/198/69
f 131/198/69 289/200/69 290/201/69
f 292/205/70 133/203/70 135/202/70
f 135/202/70 291/204/70 292/205/70
f 289/209/71 131/207/71 133/206/71
f 133/206/71 292/208/71 289/209/71
f 294/213/72 126/211/72 127/210/72
f 127/210/72 293/212/72 294/213/72
f 293/115/36 127/113/36 129/112/36
f 129/112/36 290/114/36 293/115/36
f 296/217/73 161/215/73 163/214/73
f 163/214/73 295/216/73 296/217/73
f 295/221/74 163/219/74 126/218/74
f 126/218/74 294/220/74 295/221/74
f 298/225/75 157/223/75 159/222/75
f 159/222/75 297/224/75 298/225/75
f 297/229/76 159/227/76 161/226/76
f 161/226/76 296/228/76 297/229/76
f 300/233/77 153/231/77 155/230/77
f 155/230/77 299/232/77 300/233/77
f 299/237/78 155/235/78 157/234/78
f 157/234/78 298/236/78 299/237/78
f 302/241/79 149/239/79 151/238/79
f 151/238/79 301/240/79 302/241/79
f 301/245/80 151/243/80 153/242/80
f 153/242/80 300/244/80 301/245/80
f 304/249/81 145/247/81 147/246/81
f 147/246/81 303/248/81 304/249/81
f 303/75/46 147/73/46 149/72/46
f 149/72/46 302/74/46 303/75/46
f 306/253/82 141/251/82 143/250/82
f 143/250/82 305/252/82 306/253/82
f 305/257/83 143/255/83 145/254/83
f 145/254/83 304/256/83 305/257/83
f 307/261/84 139/259/84 141/258/84
f 141/258/84 306/260/84 307/261/84
f 291/265/85 135/263/85 137/262/85
f 137/262/85 308/264/85 291/265/85
f 308/269/86 137/267/86 139/266/86
f 139/266/86 307/268/86 308/269/86
f 310/273/87 191/271/87 193/270/87
f 193/270/87 309/272/87 310/273/87
f 312/277/88 195/275/88 197/274/88
f 197/274/88 311/276/88 312/277/88
f 309/281/89 193/279/89 195/278/89
f 195/278/89 312/280/89 309/281/89
f 314/285/90 188/283/90 189/282/90
f 189/282/90 313/284/90 314/285/90
f 313/289/91 189/287/91 191/286/91
f 191/286/91 310/288/91 313/289/91
f 316/293/92 223/291/92 225/290/92
f 225/290/92 315/292/92 316/293/92
f 315/297/93 225/295/93 188/294/93
f 188/294/93 314/296/93 315/297/93
f 318/75/59 219/129/59 221/128/59
f 221/128/59 317/74/59 318/75/59
f 317/301/94 221/299/94 223/298/94
f 223/298/94 316/300/94 317/301/94
f 320/305/95 215/303/95 217/302/95
f 217/302/95 319/304/95 320/305/95
f 319/309/96 217/307/96 219/306/96
f 219/306/96 318/308/96 319/309/96
f 322/313/97 211/311/97 213/310/97
f 213/310/97 321/312/97 322/313/97
f 321/317/98 213/315/98 215/314/98
f 215/314/98 320/316/98 321/317/98
f 324/321/99 207/319/99 209/318/99
f 209/318/99 323/320/99 324/321/99
f 323/325/100 209/323/100 211/322/100
f 211/322/100 322/324/100 323/325/100
f 326/329/101 203/327/101 205/326/101
f 205/326/101 325/328/101 326/329/101
f 325/333/102 205/331/102 207/330/102
f 207/330/102 324/332/102 325/333/102
f 327/337/103 201/335/103 203/334/103
f 203/334/103 326/336/103 327/337/103
f 311/341/104 197/339/104 199/338/104
f 199/338/104 328/340/104 311/341/104
f 328/115/50 199/113/50 201/112/50
f 201/112/50 327/114/50 328/115/50
f 330/345/105 250/343/105 249/342/105
f 249/342/105 329/344/105 330/345/105
f 329/349/106 249/347/106 251/346/106
f 251/346/106 331/348/106 329/349/106
f 331/353/107 251/351/107 252/350/107
f 252/350/107 332/352/107 331/353/107
f 334/357/108 254/355/108 253/354/108
f 253/354/108 333/356/108 334/357/108
f 333/361/109 253/359/109 250/358/109
f 250/358/109 330/360/109 333/361/109
f 335/365/110 255/363/110 254/362/110
f 254/362/110 334/364/110 335/365/110
f 337/369/111 257/367/111 256/366/111
f 256/366/111 336/368/111 337/369/111
f 336/373/112 256/371/112 255/370/112
f 255/370/112 335/372/112 336/373/112
f 339/377/113 259/375/113 258/374/113
f 258/374/113 338/376/113 339/377/113
f 338/381/114 258/379/114 257/378/114
f 257/378/114 337/380/114 338/381/114
f 341/385/115 261/383/115 260/382/115
f 260/382/115 340/384/115 341/385/115
f 340/389/116 260/387/116 259/386/116
f 259/386/116 339/388/116 340/389/116
f 343/393/117 263/391/117 262/390/117
f 262/390/117 342/392/117 343/393/117
f 342/397/118 262/395/118 261/394/118
f 261/394/118 341/396/118 342/397/118
f 345/401/119 265/399/119 264/398/119
f 264/398/119 344/400/119 345/401/119
f 344/405/120 264/403/120 263/402/120
f 263/402/120 343/404/120 344/405/120
f 347/409/121 267/407/121 266/406/121
f 266/406/121 346/408/121 347/409/121
f 346/413/122 266/411/122 265/410/122
f 265/410/122 345/412/122 346/413/122
f 332/417/123 252/415/123 268/414/123
f 268/414/123 348/416/123 332/417/123
f 348/421/124 268/419/124 267/418/124
f 267/418/124 347/420/124 348/421/124
f 350/425/125 270/423/125 269/422/125
f 269/422/125 349/424/125 350/425/125
f 349/429/126 269/427/126 271/426/126
f 271/426/126 351/428/126 349/429/126
f 351/433/127 271/431/127 272/430/127
f 272/430/127 352/432/127 351/433/127
f 354/437/128 274/435/128 273/434/128
f 273/434/128 353/436/128 354/437/128
f 353/441/129 273/439/129 270/438/129
f 270/438/129 350/440/129 353/441/129
f 355/445/130 275/443/130 274/442/130
f 274/442/130 354/444/130 355/445/130
f 357/449/131 277/447/131 276/446/131
f 276/446/131 356/448/131 357/449/131
f 356/453/132 276/451/132 275/450/132
f 275/450/132 355/452/132 356/453/132
f 359/457/133 279/455/133 278/454/133
f 278/454/133 358/456/133 359/457/133
f 358/461/134 278/459/134 277/458/134
f 277/458/134 357/460/134 358/461/134
f 361/413/135 281/411/135 280/410/135
f 280/410/135 360/412/135 361/413/135
f 360/465/136 280/463/136 279/462/136
f 279/462/136 359/464/136 360/465/136
f 363/469/137 283/467/137 282/466/137
f 282/466/137 362/468/137 363/469/137
f 362/473/138 282/471/138 281/470/138
f 281/470/138 361/472/138 362/473/138
f 365/477/139 285/475/139 284/474/139
f 284/474/139 364/476/139 365/477/139
f 364/481/140 284/479/140 283/478/140
f 283/478/140 363/480/140 364/481/140
f 367/485/141 287/483/141 286/482/141
f 286/482/141 366/484/141 367/485/141
f 366/489/142 286/487/142 285/486/142
f 285/486/142 365/488/142 366/489/142
f 352/493/143 272/491/143 288/490/143
f 288/490/143 368/492/143 352/493/143
f 368/497/144 288/495/144 287/494/144
f 287/494/144 367/496/144 368/497/144
f 370/501/145 290/499/145 289/498/145
f 289/498/145 369/500/145 370/501/145
f 372/505/146 292/503/146 291/502/146
f 291/502/146 371/504/146 372/505/146
f 369/509/147 289/507/147 292/506/147
f 292/506/147 372/508/147 369/509/147
f 374/513/148 294/511/148 293/510/148
f 293/510/148 373/512/148 374/513/148
f 373/517/112 293/515/112 290/514/112
f 290/514/112 370/516/112 373/517/112
f 376/521/150 296/519/149 295/518/149
f 295/518/149 375/520/149 376/521/150
f 375/525/151 295/523/151 294/522/151
f 294/522/151 374/524/151 375/525/151
f 378/529/152 298/527/152 297/526/152
f 297/526/152 377/528/152 378/529/152
f 377/533/153 297/531/153 296/530/153
f 296/530/153 376/532/153 377/533/153
f 380/537/154 300/535/154 299/534/154
f 299/534/154 379/536/154 380/537/154
f 379/541/155 299/539/155 298/538/155
f 298/538/155 378/540/155 379/541/155
f 382/545/156 302/543/156 301/542/156
f 301/542/156 381/544/156 382/545/156
f 381/549/157 301/547/157 300/546/157
f 300/546/157 380/548/157 381/549/157
f 384/553/158 304/551/158 303/550/158
f 303/550/158 383/552/158 384/553/158
f 383/373/122 303/371/122 302/370/122
f 302/370/122 382/372/122 383/373/122
f 386/557/159 306/555/159 305/554/159
f 305/554/159 385/556/159 386/557/159
f 385/561/160 305/559/160 304/558/160
f 304/558/160 384/560/160 385/561/160
f 387/565/161 307/563/161 306/562/161
f 306/562/161 386/564/161 387/565/161
f 371/569/162 291/567/162 308/566/162
f 308/566/162 388/568/162 371/569/162
f 388/573/163 308/571/163 307/570/163
f 307/570/163 387/572/163 388/573/163
f 390/577/164 310/575/164 309/574/164
f 309/574/164 389/576/164 390/577/164
f 392/581/165 312/579/165 311/578/165
f 311/578/165 391/580/165 392/581/165
f 389/585/166 309/583/166 312/582/166
f 312/582/166 392/584/166 389/585/166
f 394/589/167 314/587/167 313/586/167
f 313/586/167 393/588/167 394/589/167
f 393/593/168 313/591/168 310/590/168
f 310/590/168 390/592/168 393/593/168
f 396/597/169 316/595/169 315/594/169
f 315/594/169 395/596/169 396/597/169
f 395/601/171 315/599/170 314/598/170
f 314/598/170 394/600/170 395/601/171
f 398/373/135 318/371/135 317/370/135
f 317/370/135 397/372/135 398/373/135
f 397/605/172 317/603/172 316/602/172
f 316/602/172 396/604/172 397/605/172
f 400/609/173 320/607/173 319/606/173
f 319/606/173 399/608/173 400/609/173
f 399/613/174 319/611/174 318/610/174
f 318/610/174 398/612/174 399/613/174
f 402/617/175 322/615/175 321/614/175
f 321/614/175 401/616/175 402/617/175
f 401/621/176 321/619/176 320/618/176
f 320/618/176 400/620/176 401/621/176
f 404/625/177 324/623/177 323/622/177
f 323/622/177 403/624/177 404/625/177
f 403/629/178 323/627/178 322/626/178
f 322/626/178 402/628/178 403/629/178
f 406/633/179 326/631/179 325/630/179
f 325/630/179 405/632/179 406/633/179
f 405/637/180 325/635/180 324/634/180
f 324/634/180 404/636/180 405/637/180
f 407/641/181 327/639/181 326/638/181
f 326/638/181 406/640/181 407/641/181
f 391/645/182 311/643/182 328/642/182
f 328/642/182 408/644/182 391/645/182
f 408/413/126 328/411/126 327/410/126
f 327/410/126 407/412/126 408/413/126
f 410/649/183 330/647/183 329/646/183
f 329/646/183 409/648/183 410/649/183
f 409/653/184 329/651/184 331/650/184
f 331/650/184 411/652/184 409/653/184
f 411/657/185 331/655/185 332/654/185
f 332/654/185 412/656/185 411/657/185
f 414/661/186 334/659/186 333/658/186
f 333/658/186 413/660/186 414/661/186
f 413/665/187 333/663/187 330/662/187
f 330/662/187 410/664/187 413/665/187
f 415/669/188 335/667/188 334/666/188
f 334/666/188 414/668/188 415/669/188
f 417/673/190 337/671/190 336/670/189
f 336/670/189 416/672/190 417/673/190
f 416/677/191 336/675/191 335/674/191
f 335/674/191 415/676/191 416/677/191
f 419/681/192 339/679/192 338/678/192
f 338/678/192 418/680/192 419/681/192
f 418/685/193 338/683/193 337/682/193
f 337/682/193 417/684/193 418/685/193
f 421/689/194 341/687/194 340/686/194
f 340/686/194 420/688/194 421/689/194
f 420/693/195 340/691/195 339/690/195
f 339/690/195 419/692/195 420/693/195
f 423/697/196 343/695/196 342/694/196
f 342/694/196 422/696/196 423/697/196
f 422/701/197 342/699/197 341/698/197
f 341/698/197 421/700/197 422/701/197
f 425/705/199 345/703/199 344/702/198
f 344/702/198 424/704/199 425/705/199
f 424/709/200 344/707/200 343/706/200
f 343/706/200 423/708/200 424/709/200
f 427/713/201 347/711/201 346/710/201
f 346/710/201 426/712/201 427/713/201
f 426/717/202 346/715/202 345/714/202
f 345/714/202 425/716/202 426/717/202
f 412/721/203 332/719/203 348/718/203
f 348/718/203 428/720/203 412/721/203
f 428/725/204 348/723/204 347/722/204
f 347/722/204 427/724/204 428/725/204
f 430/729/205 350/727/205 349/726/205
f 349/726/205 429/728/205 430/729/205
f 429/733/206 349/731/206 351/730/206
f 351/730/206 431/732/206 429/733/206
f 431/737/207 351/735/207 352/734/207
f 352/734/207 432/736/207 431/737/207
f 434/741/208 354/739/208 353/738/208
f 353/738/208 433/740/208 434/741/208
f 433/745/209 353/743/209 350/742/209
f 350/742/209 430/744/209 433/745/209
f 435/749/211 355/747/211 354/746/210
f 354/746/210 434/748/211 435/749/211
f 437/753/212 357/751/212 356/750/212
f 356/750/212 436/752/212 437/753/212
f 436/757/213 356/755/213 355/754/213
f 355/754/213 435/756/213 436/757/213
f 439/761/214 359/759/214 358/758/214
f 358/758/214 438/760/214 439/761/214
f 438/765/215 358/763/215 357/762/215
f 357/762/215 437/764/215 438/765/215
f 441/769/217 361/767/217 360/766/216
f 360/766/216 440/768/217 441/769/217
f 440/773/218 360/771/218 359/770/218
f 359/770/218 439/772/218 440/773/218
f 443/777/219 363/775/219 362/774/219
f 362/774/219 442/776/219 443/777/219
f 442/781/220 362/779/220 361/778/220
f 361/778/220 441/780/220 442/781/220
f 445/785/221 365/783/221 364/782/221
f 364/782/221 444/784/221 445/785/221
f 444/789/222 364/787/222 363/786/222
f 363/786/222 443/788/222 444/789/222
f 447/793/223 367/791/223 366/790/223
f 366/790/223 446/792/223 447/793/223
f 446/797/224 366/795/224 365/794/224
f 365/794/224 445/796/224 446/797/224
f 432/801/225 352/799/225 368/798/225
f 368/798/225 448/800/225 432/801/225
f 448/805/226 368/803/226 367/802/226
f 367/802/226 447/804/226 448/805/226
f 450/809/227 370/807/227 369/806/227
f 369/806/227 449/808/227 450/809/227
f 452/813/228 372/811/228 371/810/228
f 371/810/228 451/812/228 452/813/228
f 449/817/229 369/815/229 372/814/229
f 372/814/229 452/816/229 449/817/229
f 454/821/230 374/819/230 373/818/230
f 373/818/230 453/820/230 454/821/230
f 453/825/191 373/823/191 370/822/191
f 370/822/191 450/824/191 453/825/191
f 456/829/231 376/827/231 375/826/231
f 375/826/231 455/828/231 456/829/231
f 455/833/232 375/831/232 374/830/232
f 374/830/232 454/832/232 455/833/232
f 458/837/233 378/835/233 377/834/233
f 377/834/233 457/836/233 458/837/233
f 457/841/234 377/839/234 376/838/234
f 376/838/234 456/840/234 457/841/234
f 460/845/235 380/843/235 379/842/235
f 379/842/235 459/844/235 460/845/235
f 459/849/236 379/847/236 378/846/236
f 378/846/236 458/848/236 459/849/236
f 462/853/237 382/851/237 381/850/237
f 381/850/237 461/852/237 462/853/237
f 461/857/238 381/855/238 380/854/238
f 380/854/238 460/856/238 461/857/238
f 464/861/240 384/859/240 383/858/239
f 383/858/239 463/860/240 464/861/240
f 463/865/202 383/863/202 382/862/202
f 382/862/202 462/864/202 463/865/202
f 466/869/241 386/867/241 385/866/241
f 385/866/241 465/868/241 466/869/241
f 465/873/242 385/871/242 384/870/242
f 384/870/242 464/872/242 465/873/242
f 467/877/243 387/875/243 386/874/243
f 386/874/243 466/876/243 467/877/243
f 451/881/245 371/879/245 388/878/244
f 388/878/244 468/880/245 451/881/245
f 468/885/246 388/883/246 387/882/246
f 387/882/246 467/884/246 468/885/246
f 470/889/247 390/887/247 389/886/247
f 389/886/247 469/888/247 470/889/247
f 472/893/248 392/891/248 391/890/248
f 391/890/248 471/892/248 472/893/248
f 469/897/249 389/895/249 392/894/249
f 392/894/249 472/896/249 469/897/249
f 474/901/250 394/899/250 393/898/250
f 393/898/250 473/900/250 474/901/250
f 473/905/251 393/903/251 390/902/251
f 390/902/251 470/904/251 473/905/251
f 476/909/252 396/907/252 395/906/252
f 395/906/252 475/908/252 476/909/252
f 475/913/253 395/911/253 394/910/253
f 394/910/253 474/912/253 475/913/253
f 478/865/216 398/863/217 397/862/217
f 397/862/217 477/864/217 478/865/216
f 477/917/254 397/915/254 396/914/254
f 396/914/254 476/916/254 477/917/254
f 480/921/255 400/919/255 399/918/255
f 399/918/255 479/920/255 480/921/255
f 479/925/257 399/923/257 398/922/256
f 398/922/256 478/924/257 479/925/257
f 482/929/258 402/927/258 401/926/258
f 401/926/258 481/928/258 482/929/258
f 481/933/259 401/931/259 400/930/259
f 400/930/259 480/932/259 481/933/259
f 484/937/260 404/935/260 403/934/260
f 403/934/260 483/936/260 484/937/260
f 483/941/261 403/939/261 402/938/261
f 402/938/261 482/940/261 483/941/261
f 486/945/262 406/943/262 405/942/262
f 405/942/262 485/944/262 486/945/262
f 485/949/263 405/947/263 404/946/263
f 404/946/263 484/948/263 485/949/263
f 487/953/265 407/951/264 406/950/264
f 406/950/264 486/952/264 487/953/265
f 471/957/266 391/955/266 408/954/266
f 408/954/266 488/956/266 471/957/266
f 488/825/206 408/823/206 407/822/206
f 407/822/206 487/824/206 488/825/206
f 55/961/267 410/959/267 409/958/267
f 409/958/267 57/960/267 55/961/267
f 57/965/268 409/963/268 411/962/268
f 411/962/268 59/964/268 57/965/268
f 59/969/269 411/967/269 412/966/269
f 412/966/269 61/968/269 59/969/269
f 51/973/270 414/971/270 413/970/270
f 413/970/270 53/972/270 51/973/270
f 53/977/271 413/975/271 410/974/271
f 410/974/271 55/976/271 53/977/271
f 49/981/272 415/979/272 414/978/272
f 414/978/272 51/980/272 49/981/272
f 45/985/273 417/983/273 416/982/273
f 416/982/273 47/984/273 45/985/273
f 47/989/274 416/987/274 415/986/274
f 415/986/274 49/988/274 47/989/274
f 41/993/275 419/991/275 418/990/275
f 418/990/275 43/992/275 41/993/275
f 43/997/276 418/995/276 417/994/276
f 417/994/276 45/996/276 43/997/276
f 46/1001/277 421/999/277 420/998/277
f 420/998/277 44/1000/277 46/1001/277
f 44/1005/278 420/1003/278 419/1002/278
f 419/1002/278 41/1004/278 44/1005/278
f 50/1009/279 423/1007/279 422/1006/279
f 422/1006/279 48/1008/279 50/1009/279
f 48/1013/280 422/1011/280 421/1010/280
f 421/1010/280 46/1012/280 48/1013/280
f 54/1017/281 425/1015/281 424/1014/281
f 424/1014/281 52/1016/281 54/1017/281
f 52/1021/282 424/1019/282 423/1018/282
f 423/1018/282 50/1020/282 52/1021/282
f 58/1025/283 427/1023/283 426/1022/283
f 426/1022/283 56/1024/283 58/1025/283
f 56/1029/284 426/1027/284 425/1026/284
f 425/1026/284 54/1028/284 56/1029/284
f 61/1033/285 412/1031/285 428/1030/285
f 428/1030/285 60/1032/285 61/1033/285
f 60/1037/286 428/1035/286 427/1034/286
f 427/1034/286 58/1036/286 60/1037/286
f 117/1041/289 430/1039/288 429/1038/287
f 429/1038/287 119/1040/288 117/1041/289
f 119/1045/292 429/1043/291 431/1042/290
f 431/1042/290 121/1044/291 119/1045/292
f 121/1049/295 431/1047/294 432/1046/293
f 432/1046/293 123/1048/294 121/1049/295
f 113/1053/298 434/1051/297 433/1050/296
f 433/1050/296 115/1052/297 113/1053/298
f 115/1057/301 433/1055/300 430/1054/299
f 430/1054/299 117/1056/300 115/1057/301
f 111/1061/304 435/1059/303 434/1058/302
f 434/1058/302 113/1060/303 111/1061/304
f 107/1065/307 437/1063/306 436/1062/305
f 436/1062/305 109/1064/306 107/1065/307
f 109/1069/310 436/1067/309 435/1066/308
f 435/1066/308 111/1068/309 109/1069/310
f 103/1073/313 439/1071/312 438/1070/311
f 438/1070/311 105/1072/312 103/1073/313
f 105/1077/316 438/1075/315 437/1074/314
f 437/1074/314 107/1076/315 105/1077/316
f 108/1081/319 441/1079/318 440/1078/317
f 440/1078/317 106/1080/318 108/1081/319
f 106/1085/322 440/1083/321 439/1082/320
f 439/1082/320 103/1084/321 106/1085/322
f 112/1089/325 443/1087/324 442/1086/323
f 442/1086/323 110/1088/324 112/1089/325
f 110/1093/328 442/1091/327 441/1090/326
f 441/1090/326 108/1092/327 110/1093/328
f 116/1097/331 445/1095/330 444/1094/329
f 444/1094/329 114/1096/330 116/1097/331
f 114/1096/334 444/1094/333 443/1087/332
f 443/1087/332 112/1089/333 114/1096/334
f 120/1101/337 447/1099/336 446/1098/335
f 446/1098/335 118/1100/336 120/1101/337
f 118/1104/340 446/1103/339 445/1102/338
f 445/1102/338 116/1097/339 118/1104/340
f 123/1108/343 432/1106/342 448/1105/341
f 448/1105/341 122/1107/342 123/1108/343
f 122/1112/346 448/1110/345 447/1109/344
f 447/1109/344 120/1111/345 122/1112/346
f 173/1116/347 450/1114/347 449/1113/347
f 449/1113/347 175/1115/347 173/1116/347
f 177/1120/348 452/1118/348 451/1117/348
f 451/1117/348 179/1119/348 177/1120/348
f 175/1124/349 449/1122/349 452/1121/349
f 452/1121/349 177/1123/349 175/1124/349
f 169/1128/350 454/1126/350 453/1125/350
f 453/1125/350 171/1127/350 169/1128/350
f 171/1132/351 453/1130/351 450/1129/351
f 450/1129/351 173/1131/351 171/1132/351
f 165/1136/352 456/1134/352 455/1133/352
f 455/1133/352 167/1135/352 165/1136/352
f 167/1140/353 455/1138/353 454/1137/353
f 454/1137/353 169/1139/353 167/1140/353
f 170/1144/354 458/1142/354 457/1141/354
f 457/1141/354 168/1143/354 170/1144/354
f 168/1148/355 457/1146/355 456/1145/355
f 456/1145/355 165/1147/355 168/1148/355
f 174/1152/356 460/1150/356 459/1149/356
f 459/1149/356 172/1151/356 174/1152/356
f 172/1156/357 459/1154/357 458/1153/357
f 458/1153/357 170/1155/357 172/1156/357
f 178/1160/359 462/1158/359 461/1157/358
f 461/1157/358 176/1159/359 178/1160/359
f 176/1164/360 461/1162/360 460/1161/360
f 460/1161/360 174/1163/360 176/1164/360
f 182/1168/361 464/1166/361 463/1165/361
f 463/1165/361 180/1167/361 182/1168/361
f 180/1172/362 463/1170/362 462/1169/362
f 462/1169/362 178/1171/362 180/1172/362
f 185/1176/363 466/1174/363 465/1173/363
f 465/1173/363 184/1175/363 185/1176/363
f 184/1180/364 465/1178/364 464/1177/364
f 464/1177/364 182/1179/364 184/1180/364
f 183/1184/365 467/1182/365 466/1181/365
f 466/1181/365 185/1183/365 183/1184/365
f 179/1188/366 451/1186/366 468/1185/366
f 468/1185/366 181/1187/366 179/1188/366
f 181/1192/367 468/1190/367 467/1189/367
f 467/1189/367 183/1191/367 181/1192/367
f 235/1196/370 470/1194/369 469/1193/368
f 469/1193/368 237/1195/369 235/1196/370
f 239/1200/373 472/1198/372 471/1197/371
f 471/1197/371 241/1199/372 239/1200/373
f 237/1195/376 469/1193/375 472/1198/374
f 472/1198/374 239/1201/375 237/1195/376
f 231/1205/379 474/1203/378 473/1202/377
f 473/1202/377 233/1204/378 231/1205/379
f 233/1208/382 473/1207/381 470/1206/380
f 470/1206/380 235/1196/381 233/1208/382
f 227/1212/385 476/1210/384 475/1209/383
f 475/1209/383 229/1211/384 227/1212/385
f 229/1216/388 475/1214/387 474/1213/386
f 474/1213/386 231/1215/387 229/1216/388
f 232/1220/391 478/1218/390 477/1217/389
f 477/1217/389 230/1219/390 232/1220/391
f 230/1224/394 477/1222/393 476/1221/392
f 476/1221/392 227/1223/393 230/1224/394
f 236/1228/397 480/1226/396 479/1225/395
f 479/1225/395 234/1227/396 236/1228/397
f 234/1232/400 479/1230/399 478/1229/398
f 478/1229/398 232/1231/399 234/1232/400
f 240/1236/403 482/1234/402 481/1233/401
f 481/1233/401 238/1235/402 240/1236/403
f 238/1240/406 481/1238/405 480/1237/404
f 480/1237/404 236/1239/405 238/1240/406
f 244/1244/409 484/1242/408 483/1241/407
f 483/1241/407 242/1243/408 244/1244/409
f 242/1248/412 483/1246/411 482/1245/410
f 482/1245/410 240/1247/411 242/1248/412
f 247/1252/415 486/1250/414 485/1249/413
f 485/1249/413 246/1251/414 247/1252/415
f 246/1256/418 485/1254/417 484/1253/416
f 484/1253/416 244/1255/417 246/1256/418
f 245/1260/421 487/1258/420 486/1257/419
f 486/1257/419 247/1259/420 245/1260/421
f 241/1263/424 471/1197/423 488/1261/422
f 488/1261/422 243/1262/423 241/1263/424
f 243/1267/427 488/1265/426 487/1264/425
f 487/1264/425 245/1266/426 243/1267/427

