# ProBuilder 5.2.2
# https://unity3d.com/unity/features/worldbuilding/probuilder
# 6/28/2024 9:39:19 AM

mtllib ./SetkaNoActive.mtl
o SetkaNoActive

g Plane
v 4 2.758521 5
v 5 2.758521 4
v 5 3.914487 5
v 4 2.022531 4
v 3 1.649155 5
v 5 1.649155 3
v 3 1.178449 4
v 2 -1.110223E-16 5
v 4 1.178449 3
v 5 -4.440892E-17 2
v 2 -8.881784E-17 4
v 1 -1.110223E-16 5
v 3 0.6564769 3
v 4 -4.440892E-17 2
v 5 -2.220446E-17 0.9999999
v 1 -8.881784E-17 4
v 0 -1.110223E-16 5
v 2 -6.661338E-17 3
v 3 -4.440892E-17 2
v 4 -2.220446E-17 0.9999999
v 5 0 0
v 0 -8.881784E-17 4
v -0.9999999 -1.110223E-16 5
v 1 -6.661338E-17 3
v 2 -4.440892E-17 2
v 3 -2.220446E-17 0.9999999
v 4 0 0
v 5 2.220447E-17 -1
v -0.9999999 -8.881784E-17 4
v -2 -1.110223E-16 5
v 0 -6.661338E-17 3
v 1 -4.440892E-17 2
v 2 -2.220446E-17 0.9999999
v 3 0 0
v 4 2.220447E-17 -1
v 5 4.440892E-17 -2
v -2 -8.881784E-17 4
v -3 1.649155 5
v -0.9999999 -6.661338E-17 3
v 0 -4.440892E-17 2
v 1 -2.220446E-17 0.9999999
v 2 0 0
v 3 2.220447E-17 -1
v 4 4.440892E-17 -2
v 5 1.649155 -3
v 4 1.212422 -3
v 5 2.758521 -4
v 3 4.440892E-17 -2
v 2 2.220447E-17 -1
v 1 0 0
v 0 -2.220446E-17 0.9999999
v 4 2.151567 -4
v 5 3.914487 -5
v 4 2.758521 -5
v 3 0.4913954 -3
v 3 1.212422 -4.000001
v 3 1.649155 -5
v 2 4.440892E-17 -2
v 1 2.220447E-17 -1
v 2 6.661338E-17 -3
v 2 8.881785E-17 -4
v 2 1.110223E-16 -5
v 1 4.440892E-17 -2
v 0 0 0
v 1 6.661338E-17 -3
v 1 8.881785E-17 -4
v 1 1.110223E-16 -5
v 0 2.220447E-17 -1
v 0 4.440892E-17 -2
v 0 6.661338E-17 -3
v 0 8.881785E-17 -4
v 0 1.110223E-16 -5
v -0.9999999 8.881785E-17 -4
v -0.9999999 1.110223E-16 -5
v -0.9999999 6.661338E-17 -3
v -0.9999999 4.440892E-17 -2
v -0.9999999 2.220447E-17 -1
v -0.9999999 0 0
v -2 8.881785E-17 -4
v -2 1.110223E-16 -5
v -2 6.661338E-17 -3
v -2 4.440892E-17 -2
v -2 2.220447E-17 -1
v -3 1.152804 -4.000001
v -3 1.649155 -5
v -3 0.4823081 -3
v -3 4.440892E-17 -2
v -4 2.022531 -4
v -4 2.758521 -5
v -4 1.152804 -3
v -5 2.758521 -4
v -5 3.914487 -5
v -5 1.649155 -3
v -5 4.440892E-17 -2
v -4 4.440892E-17 -2
v -5 2.220447E-17 -1
v -4 2.220447E-17 -1
v -5 0 0
v -3 2.220447E-17 -1
v -4 0 0
v -5 -2.220446E-17 0.9999999
v -3 0 0
v -4 -2.220446E-17 0.9999999
v -5 -4.440892E-17 2
v -2 0 0
v -4 -4.440892E-17 2
v -5 1.649155 3
v -3 -2.220446E-17 0.9999999
v -2 -2.220446E-17 0.9999999
v -4 1.176911 3
v -5 2.758521 4
v -3 -4.440892E-17 2
v -0.9999999 -2.220446E-17 0.9999999
v -4 2.022531 4
v -5 3.914487 5
v -4 2.758521 5
v -3 0.78525 3
v -2 -4.440892E-17 2
v -0.9999999 -4.440892E-17 2
v -3 1.176911 4
v -2 -6.661338E-17 3

vt 0.9 0
vt 1 0.1
vt 1 0
vt 0.9 0.1
vt 0.8 0
vt 1 0.2
vt 0.8 0.1
vt 0.7 0
vt 0.9 0.2
vt 1 0.3
vt 0.7 0.1
vt 0.6 0
vt 0.8 0.2
vt 0.9 0.3
vt 1 0.4
vt 0.6 0.1
vt 0.5 0
vt 0.7 0.2
vt 0.8 0.3
vt 0.9 0.4
vt 1 0.5
vt 0.5 0.1
vt 0.4 0
vt 0.6 0.2
vt 0.7 0.3
vt 0.8 0.4
vt 0.9 0.5
vt 1 0.6
vt 0.4 0.1
vt 0.3 0
vt 0.5 0.2
vt 0.6 0.3
vt 0.7 0.4
vt 0.8 0.5
vt 0.9 0.6
vt 1 0.7
vt 0.3 0.1
vt 0.2 0
vt 0.4 0.2
vt 0.5 0.3
vt 0.6 0.4
vt 0.7 0.5
vt 0.8 0.6
vt 0.9 0.7
vt 1 0.8
vt 0.9 0.8
vt 1 0.9
vt 0.8 0.7
vt 0.7 0.6
vt 0.6 0.5
vt 0.5 0.4
vt 0.9 0.9
vt 1 1
vt 0.9 1
vt 0.8 0.8
vt 0.8 0.9
vt 0.8 1
vt 0.7 0.7
vt 0.6 0.6
vt 0.7 0.8
vt 0.7 0.9
vt 0.7 1
vt 0.6 0.7
vt 0.5 0.5
vt 0.6 0.8
vt 0.6 0.9
vt 0.6 1
vt 0.5 0.6
vt 0.5 0.7
vt 0.5 0.8
vt 0.5 0.9
vt 0.5 1
vt 0.4 0.9
vt 0.4 1
vt 0.4 0.8
vt 0.4 0.7
vt 0.4 0.6
vt 0.4 0.5
vt 0.3 0.9
vt 0.3 1
vt 0.3 0.8
vt 0.3 0.7
vt 0.3 0.6
vt 0.2 0.9
vt 0.2 1
vt 0.2 0.8
vt 0.2 0.7
vt 0.1 0.9
vt 0.1 1
vt 0.1 0.8
vt 0 0.9
vt 0 1
vt 0 0.8
vt 0 0.7
vt 0.1 0.7
vt 0 0.6
vt 0.1 0.6
vt 0 0.5
vt 0.2 0.6
vt 0.1 0.5
vt 0 0.4
vt 0.2 0.5
vt 0.1 0.4
vt 0 0.3
vt 0.3 0.5
vt 0.1 0.3
vt 0 0.2
vt 0.2 0.4
vt 0.3 0.4
vt 0.1 0.2
vt 0 0.1
vt 0.2 0.3
vt 0.4 0.4
vt 0.1 0.1
vt 0 0
vt 0.1 0
vt 0.2 0.2
vt 0.3 0.3
vt 0.4 0.3
vt 0.2 0.1
vt 0.3 0.2

vn -0.6151536 0.6076474 -0.5023453
vn -0.5023457 0.6076471 -0.6151535
vn -0.603203 0.5218172 -0.6032023
vn -0.524811 0.6701841 -0.524811
vn -0.7429644 0.5891516 -0.3176542
vn -0.3176542 0.5891514 -0.7429646
vn -0.6664815 0.6725822 -0.3216139
vn -0.4502305 0.8903948 -0.06700438
vn -0.3216138 0.6725823 -0.6664816
vn -0.0670044 0.8903948 -0.4502304
vn -0.3826775 0.9228436 -0.0437909
vn 0 1 2.220446E-17
vn -0.4428847 0.7795551 -0.4428848
vn -0.04379088 0.9228436 -0.3826774
vn -0.2080919 0.9760513 -0.06341603
vn -0.06341603 0.9760513 -0.2080919
vn 0.4906649 0.8713483 1.274144E-17
vn 0 0.8713484 0.4906648
vn 0.4346688 0.8996614 -0.04089646
vn 0.7588174 0.610667 -0.2264551
vn -0.03750906 0.8971788 0.4400718
vn -0.2094086 0.6104538 0.7638679
vn -0.3441872 0.666226 0.6615724
vn -0.3565485 0.6325843 0.6875392
vn -0.07259209 0.960005 0.2704083
vn -0.533471 0.6563667 0.533471
vn -0.5515656 0.6257405 0.5515652
vn -0.6875393 0.6325845 0.3565483
vn -0.4328941 0.7906992 0.4328942
vn -0.6615724 0.666226 0.3441873
vn -0.7638679 0.6104538 0.2094088
vn -0.05639776 0.9968143 0.05639772
vn -0.2704084 0.960005 0.07259211
vn -0.4400719 0.8971788 0.03750907
vn -0.4906649 0.8713483 1.934782E-17
vn 0.3604742 0.9311468 0.05499024
vn 0.4471866 0.891667 0.07038522
vn 0.1636821 0.9851699 0.05146312
vn 0.667384 0.6541101 0.3560037
vn 0.7427474 0.5845498 0.3265391
vn 0.4293011 0.7946075 0.4293011
vn 0.05146312 0.9851699 0.163682
vn 0.5287791 0.6639166 0.5287791
vn 0.6151535 0.6076472 0.5023454
vn 0.3560037 0.6541103 0.6673838
vn 0.5023455 0.6076472 0.6151535
vn 0.6032027 0.521817 0.6032027
vn 0.3265392 0.5845498 0.7427474
vn 0.07038526 0.8916671 0.4471865
vn 0.05499025 0.9311469 0.3604741
vn 0 0.8713483 -0.4906649
vn 0.04089649 0.8996614 -0.4346687
vn 0.2264553 0.610667 -0.7588174
vn 0.2837411 0.6834993 -0.6725472
vn 0.416659 0.6235735 -0.6614766
vn 0.03955456 0.936787 -0.3476572
vn 0.5232127 0.6726789 -0.5232128
vn 0.5663677 0.5987113 -0.5663676
vn 0.6614767 0.6235735 -0.4166589
vn 0.4315579 0.7921587 -0.431558
vn 0.08101539 0.9934148 -0.08101538
vn 0.6725472 0.6834993 -0.2837411
vn 0.3476573 0.9367869 -0.03955458

usemtl New_Material_4
f 4/4/4 1/1/1 3/3/3 2/2/2
f 7/7/7 5/5/5 1/1/1 4/4/4
f 9/9/9 4/4/4 2/2/2 6/6/6
f 11/11/11 8/8/8 5/5/5 7/7/7
f 13/13/13 7/7/7 4/4/4 9/9/9
f 14/14/14 9/9/9 6/6/6 10/10/10
f 16/16/12 12/12/12 8/8/8 11/11/11
f 18/18/15 11/11/11 7/7/7 13/13/13
f 19/19/16 13/13/13 9/9/9 14/14/14
f 20/20/12 14/14/14 10/10/10 15/15/12
f 22/22/12 17/17/12 12/12/12 16/16/12
f 24/24/12 16/16/12 11/11/11 18/18/15
f 25/25/12 18/18/15 13/13/13 19/19/16
f 26/26/12 19/19/16 14/14/14 20/20/12
f 27/27/12 20/20/12 15/15/12 21/21/12
f 29/29/12 23/23/12 17/17/12 22/22/12
f 31/31/12 22/22/12 16/16/12 24/24/12
f 32/32/12 24/24/12 18/18/15 25/25/12
f 33/33/12 25/25/12 19/19/16 26/26/12
f 34/34/12 26/26/12 20/20/12 27/27/12
f 35/35/12 27/27/12 21/21/12 28/28/12
f 37/37/19 30/30/17 23/23/12 29/29/12
f 39/39/12 29/29/12 22/22/12 31/31/12
f 40/40/12 31/31/12 24/24/12 32/32/12
f 41/41/12 32/32/12 25/25/12 33/33/12
f 42/42/12 33/33/12 26/26/12 34/34/12
f 43/43/12 34/34/12 27/27/12 35/35/12
f 44/44/21 35/35/12 28/28/12 36/36/18
f 120/120/62 38/38/20 30/30/17 37/37/19
f 121/121/63 37/37/19 29/29/12 39/39/12
f 119/119/12 39/39/12 31/31/12 40/40/12
f 51/51/12 40/40/12 32/32/12 41/41/12
f 50/50/12 41/41/12 33/33/12 42/42/12
f 49/49/12 42/42/12 34/34/12 43/43/12
f 48/48/25 43/43/12 35/35/12 44/44/21
f 46/46/23 44/44/21 36/36/18 45/45/22
f 52/52/26 46/46/23 45/45/22 47/47/24
f 55/55/29 48/48/25 44/44/21 46/46/23
f 58/58/32 49/49/12 43/43/12 48/48/25
f 59/59/12 50/50/12 42/42/12 49/49/12
f 64/64/12 51/51/12 41/41/12 50/50/12
f 54/54/28 52/52/26 47/47/24 53/53/27
f 56/56/30 55/55/29 46/46/23 52/52/26
f 57/57/31 56/56/30 52/52/26 54/54/28
f 60/60/33 58/58/32 48/48/25 55/55/29
f 63/63/12 59/59/12 49/49/12 58/58/32
f 61/61/34 60/60/33 55/55/29 56/56/30
f 62/62/35 61/61/34 56/56/30 57/57/31
f 65/65/12 63/63/12 58/58/32 60/60/33
f 68/68/12 64/64/12 50/50/12 59/59/12
f 66/66/12 65/65/12 60/60/33 61/61/34
f 67/67/12 66/66/12 61/61/34 62/62/35
f 69/69/12 68/68/12 59/59/12 63/63/12
f 70/70/12 69/69/12 63/63/12 65/65/12
f 71/71/12 70/70/12 65/65/12 66/66/12
f 72/72/12 71/71/12 66/66/12 67/67/12
f 74/74/12 73/73/12 71/71/12 72/72/12
f 73/73/12 75/75/12 70/70/12 71/71/12
f 75/75/12 76/76/12 69/69/12 70/70/12
f 76/76/12 77/77/12 68/68/12 69/69/12
f 77/77/12 78/78/12 64/64/12 68/68/12
f 80/80/37 79/79/36 73/73/12 74/74/12
f 79/79/36 81/81/38 75/75/12 73/73/12
f 81/81/38 82/82/12 76/76/12 75/75/12
f 82/82/12 83/83/12 77/77/12 76/76/12
f 85/85/40 84/84/39 79/79/36 80/80/37
f 84/84/39 86/86/41 81/81/38 79/79/36
f 86/86/41 87/87/42 82/82/12 81/81/38
f 89/89/44 88/88/43 84/84/39 85/85/40
f 88/88/43 90/90/45 86/86/41 84/84/39
f 92/92/47 91/91/46 88/88/43 89/89/44
f 90/90/45 88/88/43 91/91/46 93/93/48
f 95/95/50 90/90/45 93/93/48 94/94/49
f 87/87/42 86/86/41 90/90/45 95/95/50
f 97/97/12 95/95/50 94/94/49 96/96/12
f 99/99/12 87/87/42 95/95/50 97/97/12
f 100/100/12 97/97/12 96/96/12 98/98/12
f 83/83/12 82/82/12 87/87/42 99/99/12
f 102/102/12 99/99/12 97/97/12 100/100/12
f 103/103/12 100/100/12 98/98/12 101/101/12
f 105/105/12 83/83/12 99/99/12 102/102/12
f 108/108/12 102/102/12 100/100/12 103/103/12
f 106/106/52 103/103/12 101/101/12 104/104/51
f 78/78/12 77/77/12 83/83/12 105/105/12
f 110/110/54 106/106/52 104/104/51 107/107/53
f 109/109/12 105/105/12 102/102/12 108/108/12
f 112/112/56 108/108/12 103/103/12 106/106/52
f 113/113/12 78/78/12 105/105/12 109/109/12
f 114/114/57 110/110/54 107/107/53 111/111/55
f 118/118/61 109/109/12 108/108/12 112/112/56
f 117/117/60 112/112/56 106/106/52 110/110/54
f 51/51/12 64/64/12 78/78/12 113/113/12
f 116/116/59 114/114/57 111/111/55 115/115/58
f 120/120/62 117/117/60 110/110/54 114/114/57
f 119/119/12 113/113/12 109/109/12 118/118/61
f 121/121/63 118/118/61 112/112/56 117/117/60
f 40/40/12 51/51/12 113/113/12 119/119/12
f 38/38/20 120/120/62 114/114/57 116/116/59
f 39/39/12 119/119/12 118/118/61 121/121/63
f 37/37/19 121/121/63 117/117/60 120/120/62

