# ProBuilder 5.2.2
# https://unity3d.com/unity/features/worldbuilding/probuilder
# 6/28/2024 9:26:14 AM

mtllib ./setka.mtl
o setka

g Cylinder
v 0.5121317 -1.026524 -0.1788463
v 0.5121317 0.9734768 -0.1788463
v 0.4124658 0.927312 -0.2938928
v 0.4124658 -1.072688 -0.2938928
v 0.2938928 1 -0.4045087
v 0.2938928 -1 -0.4045087
v 0.1545086 1 -0.4755285
v 0.1545086 -1 -0.4755285
v 0 1 -0.5000002
v 0 -1 -0.5000002
v -0.1545086 1 -0.4755285
v -0.1545086 -1 -0.4755285
v -0.2938927 1 -0.4045087
v -0.2938927 -1 -0.4045087
v -0.4045086 1 -0.2938927
v -0.4045086 -1 -0.2938927
v -0.4755284 1 -0.1545085
v -0.4755284 -1 -0.1545085
v -0.5000001 1 0
v -0.5000001 -1 0
v -0.4755284 1 0.1545085
v -0.4755284 -1 0.1545085
v -0.4045086 1 0.2938927
v -0.4045086 -1 0.2938927
v -0.2938927 1 0.4045086
v -0.2938927 -1 0.4045086
v -0.1545085 1 0.4755283
v -0.1545085 -1 0.4755283
v -1.490116E-08 1 0.5000001
v -1.490116E-08 -1 0.5000001
v 0.1545085 1 0.4755283
v 0.1545085 -1 0.4755283
v 0.2938926 1 0.4045085
v 0.2938926 -1 0.4045085
v 0.4045085 1 0.2938927
v 0.4045085 -1 0.2938927
v 0.4341807 1 0.1545085
v 0.4341807 -1 0.1545085
v 0.4085626 1 -1.028366E-08
v 0.4085626 -1 -1.028366E-08
v 0.3200342 1 -0.1545086
v 0.3200342 -1 -0.1545086
v 0.3536986 -1.001404 -0.1235184
v 0.3536986 0.9496546 -0.1235184
v 0.2848654 0.9046198 -0.2029741
v 0.2848654 -1.046438 -0.2029741
v 0.2029741 0.9755291 -0.2793699
v 0.2029741 -0.9755291 -0.2793699
v 0.1067096 0.9755291 -0.3284189
v 0.1067096 -0.9755291 -0.3284191
v 0 0.9755291 -0.3453202
v 0 -0.9755291 -0.3453202
v -0.10671 0.9755291 -0.3284189
v -0.10671 -0.9755291 -0.3284189
v -0.2029741 0.9755291 -0.2793698
v -0.2029741 -0.9755291 -0.2793698
v -0.2793699 0.9755291 -0.2029741
v -0.2793699 -0.9755291 -0.2029741
v -0.3284187 0.9755291 -0.1067098
v -0.3284187 -0.9755291 -0.1067098
v -0.3453203 0.9755291 0
v -0.3453203 -0.9755291 0
v -0.3284187 0.9755291 0.1067098
v -0.3284187 -0.9755291 0.1067098
v -0.2793699 0.9755291 0.2029741
v -0.2793699 -0.9755291 0.202974
v -0.2029741 0.9755291 0.2793698
v -0.2029741 -0.9755291 0.2793698
v -0.1067096 0.9755291 0.3284189
v -0.1067096 -0.9755291 0.3284189
v 0 0.9755291 0.34532
v 0 -0.9755291 0.34532
v 0.1067096 0.9755291 0.3284189
v 0.1067096 -0.9755291 0.3284189
v 0.2029741 0.9755291 0.2793698
v 0.2029741 -0.9755291 0.2793698
v 0.2793699 0.9755291 0.202974
v 0.2793699 -0.9755291 0.202974
v 0.2998625 0.9755291 0.1067097
v 0.2998625 -0.9755291 0.1067097
v 0.2821697 0.9755291 0
v 0.2821697 -0.9755291 0
v 0.2210282 0.9755291 -0.1067098
v 0.2210282 -0.9755291 -0.1067098

vt 0.1005999 0.0004537381
vt 0.1005996 0.9994308
vt 0.2005053 0.9994308
vt 0.2005054 0.0004537381
vt 0.300411 0.9994308
vt 0.300411 0.0004537381
vt 0.4003165 0.9994308
vt 0.4003165 0.0004537381
vt 0.500222 0.9994308
vt 0.500222 0.0004537381
vt 0.6001273 0.9994308
vt 0.6001273 0.0004537381
vt 0.7000328 0.9994308
vt 0.7000327 0.0004537381
vt 0.7999381 0.9994308
vt 0.799938 0.0004537381
vt 0.8998435 0.9994308
vt 0.8998432 0.0004537381
vt 0.9997491 0.9994308
vt 0.999749 0.0004537381
vt 0.0006936856 0.0004537381
vt 0.0006940446 0.9994308

vn 0.7558227 0 -0.6547763
vn 0.7199996 0 -0.6939745
vn 0.5736592 0 -0.8190941
vn 0.3090168 0 -0.9510565
vn -9.806488E-08 0 -1
vn -0.3090171 0 -0.9510564
vn -0.5877855 0 -0.8090168
vn -0.8090171 0 -0.5877851
vn -0.9510565 0 -0.3090169
vn -1 0 0
vn -0.9510565 0 0.309017
vn -0.8090169 0 0.5877854
vn -0.5877852 0 0.8090171
vn -0.3090169 0 0.9510565
vn 9.806489E-08 0 1
vn 0.3090171 0 0.9510565
vn 0.5877852 0 0.809017
vn 0.8787432 0 0.477295
vn 0.9997419 0 0.02271839
vn 0.9419827 0 -0.3356613
vn 0.8676673 0 -0.4971454

usemtl New_Material_3
f 4/4/2 3/3/2 2/2/1 1/1/1
f 6/6/3 5/5/3 3/3/2 4/4/2
f 8/8/4 7/7/4 5/5/3 6/6/3
f 10/10/5 9/9/5 7/7/4 8/8/4
f 12/12/6 11/11/6 9/9/5 10/10/5
f 14/14/7 13/13/7 11/11/6 12/12/6
f 16/16/8 15/15/8 13/13/7 14/14/7
f 18/18/9 17/17/9 15/15/8 16/16/8
f 20/20/10 19/19/10 17/17/9 18/18/9
f 22/1/11 21/2/11 19/22/10 20/21/10
f 24/4/12 23/3/12 21/2/11 22/1/11
f 26/6/13 25/5/13 23/3/12 24/4/12
f 28/8/14 27/7/14 25/5/13 26/6/13
f 30/10/15 29/9/15 27/7/14 28/8/14
f 32/12/16 31/11/16 29/9/15 30/10/15
f 34/14/17 33/13/17 31/11/16 32/12/16
f 36/16/18 35/15/18 33/13/17 34/14/17
f 38/18/19 37/17/19 35/15/18 36/16/18
f 40/20/20 39/19/20 37/17/19 38/18/19
f 42/1/21 41/2/21 39/22/20 40/21/20
f 46/4/2 45/3/2 44/2/1 43/1/1
f 48/6/3 47/5/3 45/3/2 46/4/2
f 50/8/4 49/7/4 47/5/3 48/6/3
f 52/10/5 51/9/5 49/7/4 50/8/4
f 54/12/6 53/11/6 51/9/5 52/10/5
f 56/14/7 55/13/7 53/11/6 54/12/6
f 58/16/8 57/15/8 55/13/7 56/14/7
f 60/18/9 59/17/9 57/15/8 58/16/8
f 62/20/10 61/19/10 59/17/9 60/18/9
f 64/1/11 63/2/11 61/22/10 62/21/10
f 66/4/12 65/3/12 63/2/11 64/1/11
f 68/6/13 67/5/13 65/3/12 66/4/12
f 70/8/14 69/7/14 67/5/13 68/6/13
f 72/10/15 71/9/15 69/7/14 70/8/14
f 74/12/16 73/11/16 71/9/15 72/10/15
f 76/14/17 75/13/17 73/11/16 74/12/16
f 78/16/18 77/15/18 75/13/17 76/14/17
f 80/18/19 79/17/19 77/15/18 78/16/18
f 82/20/20 81/19/20 79/17/19 80/18/19
f 84/1/21 83/2/21 81/22/20 82/21/20

