# ProBuilder 5.2.2
# https://unity3d.com/unity/features/worldbuilding/probuilder
# 6/28/2024 9:39:51 AM

mtllib ./SetkaActive.mtl
o SetkaActive

g Sphere
v -0.1919995 -0.4502636 -0.09450744
v -0.1007947 -0.4882324 -9.536743E-09
v -0.09875244 -0.4785693 -0.09875244
v -0.1839429 -0.4252783 -0.1839429
v -0.2637085 -0.3852368 -0.1748779
v -0.2754956 -0.4055811 -0.0902124
v -0.1956055 -0.4585547 1.945489E-08
v 0 -0.5 0
v -0.09875244 -0.4785693 0.09875244
v -0.09450744 -0.4502636 -0.1919995
v 1.182554E-08 -0.4882324 -0.1007947
v -0.2485034 -0.3535864 -0.2485034
v -0.1748779 -0.3852368 -0.2637085
v -0.3313476 -0.3313476 -0.1701416
v -0.3089014 -0.3089014 -0.2401929
v -0.2878271 -0.2878271 -0.2878271
v -0.2401929 -0.3089014 -0.3089014
v -0.3469702 -0.3469702 -0.0880603
v -0.1701416 -0.3313476 -0.3313476
v -0.2801587 -0.4123633 3.814697E-08
v -0.3525147 -0.3525147 3.814697E-08
v -0.0902124 -0.4055811 -0.2754956
v -0.0880603 -0.3469702 -0.3469702
v -0.2754956 -0.4055811 0.0902124
v -0.3469702 -0.3469702 0.0880603
v -0.1919995 -0.4502636 0.09450744
v 3.91007E-08 -0.4585547 -0.1956055
v 1.811975E-08 -0.4123633 -0.2801587
v 5.340553E-08 -0.3525147 -0.3525147
v -0.2637085 -0.3852368 0.1748779
v -0.3313476 -0.3313476 0.1701416
v -0.1839429 -0.4252783 0.1839429
v 0.0902124 -0.4055811 -0.2754956
v 0.0880603 -0.3469702 -0.3469702
v 0.09450744 -0.4502636 -0.1919995
v 0.09875244 -0.4785693 -0.09875244
v -0.2485034 -0.3535864 0.2485034
v -0.3089014 -0.3089014 0.2401929
v 0.1748779 -0.3852368 -0.2637085
v 0.1701416 -0.3313476 -0.3313476
v 0.1007953 -0.4882324 0
v 0.1956055 -0.4585547 -3.814694E-10
v 0.1919995 -0.4502636 -0.09450744
v 0.2801587 -0.4123633 1.907349E-08
v 0.1839429 -0.4252783 -0.1839429
v 0.2754956 -0.4055811 -0.0902124
v 0.3525147 -0.3525147 0
v 0.3469702 -0.3469702 -0.0880603
v 0.2637085 -0.3852368 -0.1748779
v 0.3313476 -0.3313476 -0.1701416
v 0.2485034 -0.3535864 -0.2485034
v 0.3089014 -0.3089014 -0.2401929
v 0.2401929 -0.3089014 -0.3089014
v 0.2878271 -0.2878271 -0.2878271
v 2.136236E-08 -0.4882324 0.1007947
v 0.09875244 -0.4785693 0.09875244
v 0.09450744 -0.4502636 0.1919995
v 2.002722E-08 -0.4585547 0.1956055
v -0.09450744 -0.4502636 0.1919995
v -4.768371E-08 -0.4123633 0.2801587
v -0.0902124 -0.4055811 0.2754956
v 0.0902124 -0.4055811 0.2754956
v -0.1748779 -0.3852368 0.2637085
v -5.722046E-08 -0.3525147 0.3525147
v 0.0880603 -0.3469702 0.3469702
v -0.0880603 -0.3469702 0.3469702
v -0.1701416 -0.3313476 0.3313476
v -0.2401929 -0.3089014 0.3089014
v -0.2878271 -0.2878271 0.2878271
v 0.1701416 -0.3313476 0.3313476
v 0.1748779 -0.3852368 0.2637085
v 0.2401929 -0.3089014 0.3089014
v 0.2485034 -0.3535864 0.2485034
v 0.2878271 -0.2878271 0.2878271
v 0.3089014 -0.3089014 0.2401929
v 0.1839429 -0.4252783 0.1839429
v 0.2637085 -0.3852368 0.1748779
v 0.3313476 -0.3313476 0.1701416
v 0.1919995 -0.4502636 0.09450744
v 0.2754956 -0.4055811 0.0902124
v 0.3469702 -0.3469702 0.0880603
v -0.01756511 1.06933 -0.01756514
v -1.253155E-08 1.071042 -0.01792825
v -1.253155E-08 1.073018 -3.835288E-08
v -0.01680884 1.064298 -0.03414826
v -0.03271786 1.059861 -0.03271789
v -0.03414821 1.064298 -0.01680886
v -0.01792834 1.071042 -3.835288E-08
v -1.253155E-08 1.065768 -0.03479353
v -0.07465243 0.8021074 -0.1125994
v -0.03851378 0.810805 -0.1176332
v -0.1125993 0.8021074 -0.07465247
v -0.07263414 0.7791031 -0.1414592
v -0.1024995 0.7695382 -0.1318766
v -0.1060437 0.7885869 -0.1060438
v -0.1228924 0.7605228 -0.1228924
v -0.1318766 0.7695382 -0.1024995
v -0.03759268 0.7857646 -0.1481197
v -0.1414591 0.7791031 -0.07263415
v 3.801259E-08 0.8136907 -0.1196224
v 7.435245E-08 0.7881309 -0.1504871
v -0.1176331 0.810805 -0.03851379
v -0.1481196 0.7857646 -0.03759268
v 0.03851353 0.810805 -0.1176332
v 0.03759268 0.7857646 -0.1481197
v 0.01680881 1.064298 -0.03414826
v -0.0347935 1.065768 -3.835288E-08
v -0.1196224 0.8136907 -3.777082E-08
v -0.150487 0.7881309 -7.411068E-08
v 0.07465243 0.8021074 -0.1125994
v 0.07263416 0.7791031 -0.1414592
v -0.1176331 0.810805 0.03851375
v -0.1481196 0.7857646 0.03759264
v -0.03414821 1.064298 0.01680876
v -0.01756511 1.06933 0.01756506
v -0.1125993 0.8021074 0.07465243
v -0.1414591 0.7791031 0.07263412
v -0.03271786 1.059861 0.03271778
v -0.1060437 0.7885869 0.1060437
v -0.1318766 0.7695382 0.1024995
v -0.1024995 0.7695382 0.1318766
v -0.1228924 0.7605228 0.1228924
v -0.07263414 0.7791031 0.1414591
v -0.07465243 0.8021074 0.1125993
v -0.03759268 0.7857646 0.1481196
v -0.03851378 0.810805 0.1176331
v -3.466714E-08 0.7881309 0.150487
v -0.01680884 1.064298 0.03414816
v 1.672724E-09 0.8136907 0.1196223
v 0.03759268 0.7857646 0.1481196
v -1.253155E-08 1.065768 0.03479345
v 0.03851379 0.810805 0.1176331
v 0.07263416 0.7791031 0.1414591
v -1.253155E-08 1.071042 0.01792817
v 0.07465243 0.8021074 0.1125993
v 0.1024995 0.7695382 0.1318766
v 0.01680881 1.064298 0.03414816
v 0.1060437 0.7885869 0.1060437
v 0.1228924 0.7605228 0.1228924
v 0.1318766 0.7695382 0.1024995
v 0.01756506 1.06933 0.01756506
v 0.03271786 1.059861 0.03271778
v 0.1125993 0.8021074 0.07465243
v 0.1414592 0.7791031 0.07263412
v 0.03414819 1.064298 0.01680876
v 0.1176331 0.810805 0.03851375
v 0.1481196 0.7857646 0.03759264
v 0.0179282 1.071042 -3.835288E-08
v 0.03479348 1.065768 -3.835288E-08
v 0.1196224 0.8136907 -3.777082E-08
v 0.150487 0.7881309 -3.777082E-08
v 0.1318766 0.7695382 -0.1024995
v 0.1024995 0.7695382 -0.1318766
v 0.1228924 0.7605228 -0.1228924
v 0.1060437 0.7885869 -0.1060438
v 0.1414592 0.7791031 -0.07263415
v 0.1125993 0.8021074 -0.07465247
v 0.1481196 0.7857646 -0.03759268
v 0.03271786 1.059861 -0.03271789
v 0.1176331 0.810805 -0.03851379
v 0.03414819 1.064298 -0.01680886
v 0.01756506 1.06933 -0.01756514
v -0.3089014 -0.2401929 0.3089014
v -0.3535864 -0.2485034 0.2485034
v -0.3313476 -0.1701416 0.3313476
v -0.3852368 -0.2637085 0.1748779
v -0.3852368 -0.1748791 0.2637085
v -0.3469702 -0.0880603 0.3469702
v -0.4055811 -0.2754956 0.0902124
v -0.4055811 -0.0902124 0.2754956
v -0.3535523 -3.128662E-11 0.3535523
v -0.4252783 -0.1839429 0.1839429
v -0.4123633 -0.2801587 -3.814697E-08
v -0.4157349 2.270099E-11 0.2777856
v -0.3481274 0.08750671 0.3481274
v -0.4502636 -0.09450744 0.1919995
v -0.4502636 -0.1919995 0.09450744
v -0.4055811 -0.2754956 -0.0902124
v -0.4069678 0.08967713 0.2764746
v -0.3324731 0.1698926 0.3324731
v -0.4585547 -0.1956055 -7.667521E-08
v -0.4619385 3.492459E-11 0.1913415
v -0.4785693 -0.09875244 0.09875244
v -0.3852368 -0.2637085 -0.1748779
v -0.3865088 0.1746521 0.2646435
v -0.4502636 -0.1919995 -0.09450744
v -0.4882324 -0.1007953 -3.814697E-08
v -0.4903906 7.275958E-12 0.09754516
v -0.4515527 0.09398254 0.1926355
v -0.3535864 -0.2485034 -0.2485034
v -0.3089014 -0.2401929 -0.3089014
v -0.4252783 -0.1839429 -0.1839429
v -0.3852368 -0.1748791 -0.2637085
v -0.3313476 -0.1701416 -0.3313476
v -0.4785693 -0.09875244 -0.09875244
v -0.5 -4.764297E-09 -1.639128E-07
v -0.479956 0.09823791 0.09908752
v -0.4055811 -0.0902124 -0.2754956
v -0.3469702 -0.0880603 -0.3469702
v -0.4502636 -0.09450744 -0.1919995
v -0.4896582 -0.0008836508 -0.1011359
v -0.4137475 -0.0008836472 -0.2811499
v -0.3536914 -0.0008836466 -0.3536914
v -0.4598437 -0.0008836464 -0.1962756
v -0.4896582 0.1002966 -1.621246E-07
v -0.4265039 0.1837427 0.1845666
v -0.4069678 0.08967713 -0.2764746
v -0.3481274 0.08750671 -0.3481274
v -0.4515527 0.09398254 -0.1926355
v -0.479956 0.09823791 -0.09908752
v -0.4515527 0.191842 0.09482116
v -0.1318766 0.7402161 0.1318766
v -0.1509378 0.7437604 0.1060437
v -0.16445 0.7502463 0.07465243
v -0.1731548 0.7552686 0.03851375
v -0.4598437 0.195459 -1.525879E-07
v -0.1760394 0.7572559 -7.411068E-08
v -0.4515527 0.191842 -0.09482116
v -0.1731548 0.7552686 -0.03851353
v -0.4265039 0.1837427 -0.1845666
v -0.16445 0.7502463 -0.07465247
v -0.3865088 0.1746521 -0.2646435
v -0.3324731 0.1698926 -0.3324731
v -0.1509378 0.7437604 -0.1060438
v -0.1318766 0.7402161 -0.1318766
v 0.3089014 -0.2401929 0.3089014
v 0.2485034 -0.2485034 0.3535864
v 0.3313476 -0.1701416 0.3313476
v 0.1748779 -0.2637085 0.3852368
v 0.2637085 -0.1748779 0.3852368
v 0.3469702 -0.0880603 0.3469702
v 0.09021179 -0.2754956 0.4055811
v 0.2754956 -0.0902124 0.4055811
v 0.3535523 3.128662E-11 0.3535523
v 0.1839429 -0.1839429 0.4252783
v -6.67572E-08 -0.2801587 0.4123633
v 0.2777856 3.143213E-11 0.4157349
v 0.3481274 0.08750671 0.3481274
v 0.1919995 -0.09450744 0.4502636
v 0.09450744 -0.1919995 0.4502636
v -0.09021179 -0.2754956 0.4055811
v 0.2764746 0.08967713 0.4069678
v 0.3324731 0.1698926 0.3324731
v -7.571769E-08 -0.1956055 0.4585547
v 0.1913415 -8.076313E-12 0.4619385
v 0.09875244 -0.09875244 0.4785693
v -0.1748791 -0.2637085 0.3852368
v 0.2646435 0.1746533 0.3865088
v -0.09450744 -0.1919995 0.4502636
v -8.038161E-08 -0.1007953 0.4882324
v 0.09754516 3.588866E-11 0.4903906
v 0.1926355 0.09398254 0.4515527
v -0.2485034 -0.2485034 0.3535864
v -0.1839429 -0.1839429 0.4252783
v -0.2637085 -0.1748791 0.3852368
v -0.09875244 -0.09875244 0.4785693
v -8.19558E-08 -9.537071E-09 0.5
v 0.09908752 0.09823791 0.479956
v -0.2754956 -0.0902124 0.4055811
v -0.1919995 -0.09450744 0.4502636
v -0.09754516 -3.605237E-11 0.4903906
v -0.2777856 -3.143213E-11 0.4157349
v -0.1913415 8.076313E-12 0.4619385
v -7.629394E-08 0.1002972 0.4896582
v 0.1845666 0.1837427 0.4265039
v -0.2764746 0.08967713 0.4069678
v -0.1926355 0.09398254 0.4515527
v -0.09908752 0.09823791 0.479956
v 0.09482116 0.191842 0.4515527
v 0.1318766 0.7402161 0.1318766
v 0.1060437 0.7437604 0.1509378
v 0.07465243 0.7502463 0.16445
v 0.03851379 0.7552686 0.1731548
v -7.629394E-08 0.195459 0.4598437
v -3.466714E-08 0.7572559 0.1760394
v -0.09482116 0.191842 0.4515527
v -0.03851378 0.7552686 0.1731548
v -0.1845666 0.1837427 0.4265039
v -0.07465243 0.7502463 0.16445
v -0.2646435 0.1746533 0.3865088
v -0.1060437 0.7437604 0.1509378
v 0.4123633 -0.2801587 3.814697E-08
v 0.4055811 -0.2754956 0.0902124
v 0.4585547 -0.1956055 3.852852E-08
v 0.3852368 -0.2637085 0.1748791
v 0.4502636 -0.1919995 0.09450744
v 0.4882324 -0.1007947 3.814697E-08
v 0.3535864 -0.2485034 0.2485034
v 0.4252783 -0.1839429 0.1839429
v 0.4785693 -0.09875244 0.09875244
v 0.5 4.764297E-09 0
v 0.3852368 -0.1748779 0.2637085
v 0.4502636 -0.09450744 0.1919995
v 0.4903906 -7.275958E-12 0.09754516
v 0.4896582 0.1002972 0
v 0.4055811 -0.0902124 0.2754956
v 0.479956 0.09823791 0.09908752
v 0.4598437 0.195459 0
v 0.4619385 -3.492459E-11 0.1913415
v 0.4157349 -2.313754E-11 0.2777856
v 0.4515527 0.191842 0.09482116
v 0.4515527 0.09398254 0.1926355
v 0.4069678 0.08967713 0.2764746
v 0.1760394 0.7572559 -3.777082E-08
v 0.1731548 0.7552686 0.03851375
v 0.4265039 0.1837427 0.1845666
v 0.3865088 0.1746533 0.2646435
v 0.16445 0.7502463 0.07465243
v 0.1509378 0.7437604 0.1060437
v 0.3089014 -0.2401929 -0.3089014
v 0.3535864 -0.2485034 -0.2485034
v 0.3313476 -0.1701416 -0.3313476
v 0.3852368 -0.2637085 -0.1748779
v 0.3852368 -0.1748779 -0.2637085
v 0.3469702 -0.0880603 -0.3469702
v 0.4055811 -0.2754956 -0.0902124
v 0.4055811 -0.0902124 -0.2754956
v 0.3536914 -0.0008836116 -0.3536914
v 0.4252783 -0.1839429 -0.1839429
v 0.4502636 -0.1919995 -0.09450744
v 0.4137475 -0.0008836098 -0.2811499
v 0.3481274 0.08750671 -0.3481274
v 0.4502636 -0.09450744 -0.1919995
v 0.4785693 -0.09875244 -0.09875244
v 0.4069678 0.08967713 -0.2764746
v 0.3324731 0.1698926 -0.3324731
v 0.4598437 -0.0008836057 -0.1962756
v 0.4896582 -0.000883606 -0.1011359
v 0.3865088 0.1746533 -0.2646435
v 0.4515527 0.09398254 -0.1926355
v 0.479956 0.09823791 -0.09908752
v 0.1318766 0.7402161 -0.1318766
v 0.1509378 0.7437604 -0.1060438
v 0.4265039 0.1837427 -0.1845666
v 0.4515527 0.191842 -0.09482116
v 0.16445 0.7502463 -0.07465247
v 0.1731548 0.7552686 -0.03851379
v -0.2485034 -0.2485034 -0.3535864
v -0.1748779 -0.2637085 -0.3852368
v -0.2637085 -0.1748791 -0.3852368
v -0.0902124 -0.2754956 -0.4055811
v -0.2754956 -0.0902124 -0.4055811
v -0.1839429 -0.1839429 -0.4252783
v -2.593995E-08 -0.2801587 -0.4123633
v -0.2811499 -0.0008836342 -0.4137475
v -0.1919995 -0.09450744 -0.4502636
v -0.09450744 -0.1919995 -0.4502636
v 0.0902124 -0.2754956 -0.4055811
v -0.2764746 0.08967713 -0.4069678
v 8.392307E-09 -0.1956055 -0.4585547
v -0.1962756 -0.0008836379 -0.4598437
v -0.09875244 -0.09875244 -0.4785693
v 0.1748791 -0.2637085 -0.3852368
v -0.2646435 0.1746533 -0.3865088
v 0.09450744 -0.1919995 -0.4502636
v -3.356923E-08 -0.1007953 -0.4882324
v -0.1011359 -0.0008836288 -0.4896582
v -0.1926355 0.09398254 -0.4515527
v 0.2485034 -0.2485034 -0.3535864
v 0.1839429 -0.1839429 -0.4252783
v 0.2637085 -0.1748779 -0.3852368
v 0.09875244 -0.09875244 -0.4785693
v 2.235174E-07 3.274181E-13 -0.5
v -0.09908752 0.09823791 -0.479956
v 0.2754956 -0.0902124 -0.4055811
v 0.1919995 -0.09450744 -0.4502636
v 0.1011359 -0.0008836251 -0.4896582
v 0.2811499 -0.0008836147 -0.4137475
v 0.1962756 -0.0008836184 -0.4598437
v 2.193451E-07 0.1002972 -0.4896582
v -0.1845666 0.1837427 -0.4265039
v 0.2764746 0.08967713 -0.4069678
v 0.1926355 0.09398254 -0.4515527
v 0.09908752 0.09823791 -0.479956
v -0.09482116 0.191842 -0.4515527
v -0.1060437 0.7437604 -0.1509378
v -0.07465243 0.7502463 -0.16445
v -0.03851353 0.7552686 -0.1731548
v 2.098083E-07 0.195459 -0.4598437
v 7.435245E-08 0.7572559 -0.1760394
v 0.09482116 0.191842 -0.4515527
v 0.03851353 0.7552686 -0.1731548
v 0.1845666 0.1837427 -0.4265039
v 0.07465243 0.7502463 -0.16445
v 0.2646435 0.1746533 -0.3865088
v 0.1060437 0.7437604 -0.1509378
v -0.3570624 0.2457906 0.2448186
v -0.3073986 0.241183 0.3073986
v -0.327616 0.3169292 0.2249936
v -0.282324 0.3124735 0.282324
v -0.2981697 0.3880677 0.2051686
v -0.2572494 0.3837639 0.2572494
v -0.2687233 0.4592063 0.1853436
v -0.2321749 0.4550543 0.2321748
v -0.3937472 0.2545556 0.1708274
v -0.3609904 0.3253686 0.1570881
v -0.3282337 0.3961816 0.1433488
v -0.2954769 0.4669945 0.1296095
v -0.416753 0.2622704 0.08778274
v -0.3819532 0.3326987 0.08074431
v -0.3471535 0.403127 0.07370588
v -0.3123537 0.4735553 0.06666745
v -0.4243682 0.2656836 -1.427782E-07
v -0.3888927 0.3359082 -1.329686E-07
v -0.3534171 0.4061328 -1.231589E-07
v -0.3179416 0.4763574 -1.133493E-07
v -0.3123537 0.4735553 -0.06666735
v -0.3471535 0.403127 -0.0737058
v -0.3819532 0.3326987 -0.08074425
v -0.416753 0.2622704 -0.08778271
v -0.2954769 0.4669945 -0.1296096
v -0.3282337 0.3961816 -0.1433488
v -0.3609904 0.3253686 -0.1570881
v -0.3937472 0.2545556 -0.1708274
v -0.2687233 0.4592063 -0.1853437
v -0.2981697 0.3880677 -0.2051686
v -0.327616 0.3169292 -0.2249936
v -0.3570624 0.2457906 -0.2448186
v -0.2321749 0.4550543 -0.2321749
v -0.2572494 0.3837639 -0.2572494
v -0.282324 0.3124735 -0.282324
v -0.3073986 0.241183 -0.3073986
v 0.2448186 0.2457917 0.3570624
v 0.3073986 0.241183 0.3073986
v 0.2249936 0.3169301 0.327616
v 0.282324 0.3124735 0.282324
v 0.2051686 0.3880685 0.2981697
v 0.2572494 0.3837639 0.2572494
v 0.1853436 0.4592069 0.2687233
v 0.2321749 0.4550543 0.2321748
v 0.1708274 0.2545556 0.3937472
v 0.1570881 0.3253686 0.3609904
v 0.1433488 0.3961816 0.3282337
v 0.1296095 0.4669945 0.2954769
v 0.08778274 0.2622704 0.416753
v 0.08074432 0.3326987 0.3819532
v 0.0737059 0.403127 0.3471535
v 0.06666747 0.4735553 0.3123537
v -7.10906E-08 0.2656836 0.4243682
v -6.588724E-08 0.3359082 0.3888927
v -6.068389E-08 0.4061328 0.3534171
v -5.548054E-08 0.4763574 0.3179415
v -0.06666747 0.4735553 0.3123537
v -0.0737059 0.403127 0.3471535
v -0.08074432 0.3326987 0.3819532
v -0.08778274 0.2622704 0.416753
v -0.1296095 0.4669945 0.2954769
v -0.1433488 0.3961816 0.3282337
v -0.1570881 0.3253686 0.3609904
v -0.1708274 0.2545556 0.3937472
v -0.1853436 0.4592069 0.2687233
v -0.2051686 0.3880685 0.2981697
v -0.2249936 0.3169301 0.327616
v -0.2448186 0.2457917 0.3570624
v 0.3179416 0.4763574 -1.888541E-08
v 0.3534171 0.4061328 -1.416406E-08
v 0.3471535 0.403127 0.07370588
v 0.3123537 0.4735553 0.06666745
v 0.3888927 0.3359082 -9.442704E-09
v 0.3819532 0.3326987 0.08074431
v 0.4243682 0.2656836 -4.721352E-09
v 0.416753 0.2622704 0.08778274
v 0.3282337 0.3961816 0.1433488
v 0.2954769 0.4669945 0.1296095
v 0.3609904 0.3253686 0.1570881
v 0.3937472 0.2545556 0.1708274
v 0.2981697 0.3880685 0.2051686
v 0.2687233 0.4592069 0.1853436
v 0.327616 0.3169301 0.2249936
v 0.3570624 0.2457917 0.2448186
v 0.2321749 0.4550543 -0.2321749
v 0.2572494 0.3837639 -0.2572494
v 0.2981697 0.3880685 -0.2051686
v 0.2687233 0.4592069 -0.1853437
v 0.282324 0.3124735 -0.282324
v 0.327616 0.3169301 -0.2249936
v 0.3073986 0.241183 -0.3073986
v 0.3570624 0.2457917 -0.2448186
v 0.3282337 0.3961816 -0.1433488
v 0.2954769 0.4669945 -0.1296096
v 0.3609904 0.3253686 -0.1570881
v 0.3937472 0.2545556 -0.1708274
v 0.3471535 0.403127 -0.0737059
v 0.3123537 0.4735553 -0.06666747
v 0.3819532 0.3326987 -0.08074432
v 0.416753 0.2622704 -0.08778274
v -0.2051686 0.3880685 -0.2981697
v -0.1853436 0.4592069 -0.2687233
v -0.2249936 0.3169301 -0.327616
v -0.2448186 0.2457917 -0.3570624
v -0.1433488 0.3961816 -0.3282337
v -0.1296095 0.4669945 -0.2954769
v -0.1570881 0.3253686 -0.3609904
v -0.1708274 0.2545556 -0.3937472
v -0.0737058 0.403127 -0.3471535
v -0.06666735 0.4735553 -0.3123538
v -0.08074425 0.3326987 -0.3819532
v -0.08778271 0.2622704 -0.416753
v 1.590124E-07 0.4061328 -0.3534171
v 1.420804E-07 0.4763574 -0.3179416
v 1.759444E-07 0.3359082 -0.3888927
v 1.928764E-07 0.2656836 -0.4243682
v 0.0737058 0.403127 -0.3471535
v 0.06666735 0.4735553 -0.3123538
v 0.08074425 0.3326987 -0.3819532
v 0.08778271 0.2622704 -0.416753
v 0.1433488 0.3961816 -0.3282337
v 0.1296095 0.4669945 -0.2954769
v 0.1570881 0.3253686 -0.3609904
v 0.1708274 0.2545556 -0.3937472
v 0.2051686 0.3880685 -0.2981697
v 0.1853436 0.4592069 -0.2687233
v 0.2249936 0.3169301 -0.327616
v 0.2448186 0.2457917 -0.3570624
v -0.2392769 0.5303448 0.1655186
v -0.2071003 0.5263448 0.2071003
v -0.2098306 0.6014833 0.1456937
v -0.1820257 0.5976352 0.1820257
v -0.1803842 0.6726218 0.1258687
v -0.1569512 0.6689256 0.1569511
v -0.2627202 0.5378075 0.1158703
v -0.2299635 0.6086204 0.102131
v -0.1972067 0.6794333 0.08839171
v -0.277554 0.5439836 0.05962903
v -0.2427543 0.614412 0.0525906
v -0.2079545 0.6848403 0.04555218
v -0.2824661 0.546582 -1.035396E-07
v -0.2469905 0.6168066 -9.372998E-08
v -0.2115149 0.6870313 -8.392033E-08
v -0.2079545 0.6848403 -0.04555199
v -0.2427543 0.614412 -0.05259044
v -0.277554 0.5439836 -0.0596289
v -0.1972067 0.6794333 -0.08839174
v -0.2299635 0.6086204 -0.102131
v -0.2627202 0.5378075 -0.1158703
v -0.1803842 0.6726218 -0.1258687
v -0.2098306 0.6014833 -0.1456937
v -0.2392769 0.5303448 -0.1655187
v -0.1569512 0.6689256 -0.1569512
v -0.1820257 0.5976352 -0.1820257
v -0.2071003 0.5263448 -0.2071003
v 0.1655187 0.5303453 0.2392769
v 0.2071003 0.5263448 0.2071003
v 0.1456937 0.6014836 0.2098305
v 0.1820257 0.5976352 0.1820257
v 0.1258687 0.672622 0.1803842
v 0.1569512 0.6689256 0.1569511
v 0.1158703 0.5378075 0.2627202
v 0.102131 0.6086204 0.2299634
v 0.08839171 0.6794333 0.1972067
v 0.05962905 0.5439836 0.277554
v 0.05259063 0.614412 0.2427543
v 0.04555221 0.6848403 0.2079545
v -5.027719E-08 0.546582 0.282466
v -4.507384E-08 0.6168066 0.2469905
v -3.987049E-08 0.6870313 0.2115149
v -0.04555221 0.6848403 0.2079545
v -0.05259063 0.614412 0.2427543
v -0.05962905 0.5439836 0.277554
v -0.08839171 0.6794333 0.1972067
v -0.102131 0.6086204 0.2299634
v -0.1158703 0.5378075 0.2627202
v -0.1258687 0.672622 0.1803842
v -0.1456937 0.6014836 0.2098305
v -0.1655186 0.5303453 0.2392769
v 0.2115149 0.6870313 -3.304947E-08
v 0.2079545 0.6848403 0.04555218
v 0.2469905 0.6168066 -2.832811E-08
v 0.2427543 0.614412 0.0525906
v 0.2824661 0.546582 -2.360676E-08
v 0.277554 0.5439836 0.05962903
v 0.1972067 0.6794333 0.08839171
v 0.2299635 0.6086204 0.102131
v 0.2627202 0.5378075 0.1158703
v 0.1803842 0.672622 0.1258687
v 0.2098306 0.6014836 0.1456937
v 0.2392769 0.5303453 0.1655186
v 0.1569512 0.6689256 -0.1569512
v 0.1803842 0.672622 -0.1258687
v 0.1820257 0.5976352 -0.1820257
v 0.2098306 0.6014836 -0.1456937
v 0.2071003 0.5263448 -0.2071003
v 0.2392769 0.5303453 -0.1655187
v 0.1972067 0.6794333 -0.08839174
v 0.2299635 0.6086204 -0.102131
v 0.2627202 0.5378075 -0.1158703
v 0.2079545 0.6848403 -0.04555221
v 0.2427543 0.614412 -0.05259063
v 0.277554 0.5439836 -0.05962905
v -0.1258687 0.672622 -0.1803842
v -0.1456937 0.6014836 -0.2098306
v -0.1655186 0.5303453 -0.2392769
v -0.08839171 0.6794333 -0.1972067
v -0.102131 0.6086204 -0.2299635
v -0.1158703 0.5378075 -0.2627202
v -0.04555199 0.6848403 -0.2079545
v -0.05259044 0.614412 -0.2427543
v -0.05962889 0.5439836 -0.277554
v 9.128443E-08 0.6870313 -0.2115149
v 1.082164E-07 0.6168066 -0.2469905
v 1.251484E-07 0.546582 -0.2824661
v 0.04555199 0.6848403 -0.2079545
v 0.05259044 0.614412 -0.2427543
v 0.0596289 0.5439836 -0.277554
v 0.08839171 0.6794333 -0.1972067
v 0.102131 0.6086204 -0.2299635
v 0.1158703 0.5378075 -0.2627202
v 0.1258687 0.672622 -0.1803842
v 0.1456937 0.6014836 -0.2098306
v 0.1655187 0.5303453 -0.2392769

vt 0.1605151 0.2580072
vt 0.25172 0.3525147
vt 0.2537622 0.2537622
vt 0.1685718 0.1685718
vt 0.08880615 0.1776367
vt 0.07701907 0.2623022
vt 0.1569092 0.3525147
vt 0.3525147 0.3525147
vt 0.2537622 0.4512671
vt 0.2580072 0.1605151
vt 0.3525147 0.25172
vt 0.1040112 0.1040112
vt 0.1776367 0.08880615
vt 0.02116701 0.1823731
vt 0.04361328 0.1123218
vt 0.06468752 0.06468752
vt 0.1123218 0.04361328
vt 0.005544454 0.2644544
vt 0.1823731 0.02116701
vt 0.07235596 0.3525147
vt 0 0.3525147
vt 0.2623022 0.07701907
vt 0.2644544 0.005544454
vt 0.07701907 0.4427271
vt 0.005544454 0.4405749
vt 0.1605151 0.4470221
vt 0.3525147 0.1569092
vt 0.3525147 0.07235596
vt 0.3525147 0
vt 0.08880615 0.5273926
vt 0.02116701 0.5226563
vt 0.1685718 0.5364575
vt 0.4427271 0.07701907
vt 0.4405749 0.005544454
vt 0.4470221 0.1605151
vt 0.4512671 0.2537622
vt 0.1040112 0.6010181
vt 0.04361328 0.5927075
vt 0.5273926 0.08880615
vt 0.5226563 0.02116701
vt 0.45331 0.3525147
vt 0.5481201 0.3525147
vt 0.5445142 0.2580072
vt 0.6326734 0.3525147
vt 0.5364575 0.1685718
vt 0.6280103 0.2623022
vt 0.7050293 0.3525147
vt 0.6994848 0.2644544
vt 0.6162232 0.1776367
vt 0.6838623 0.1823731
vt 0.6010181 0.1040112
vt 0.6614161 0.1123218
vt 0.5927075 0.04361328
vt 0.6403418 0.06468752
vt 0.3525147 0.4533093
vt 0.4512671 0.4512671
vt 0.4470221 0.5445142
vt 0.3525147 0.5481201
vt 0.2580072 0.5445142
vt 0.3525146 0.6326734
vt 0.2623022 0.6280103
vt 0.4427271 0.6280103
vt 0.1776367 0.6162232
vt 0.3525146 0.7050293
vt 0.4405749 0.6994848
vt 0.2644544 0.6994848
vt 0.1823731 0.6838623
vt 0.1123218 0.6614161
vt 0.06468752 0.6403418
vt 0.5226563 0.6838623
vt 0.5273926 0.6162232
vt 0.5927075 0.6614161
vt 0.6010181 0.6010181
vt 0.6403418 0.6403418
vt 0.6614161 0.5927075
vt 0.5364575 0.5364575
vt 0.6162232 0.5273926
vt 0.6838623 0.5226563
vt 0.5445142 0.4470221
vt 0.6280103 0.4427271
vt 0.6994848 0.4405749
vt 0.1926463 0.1083277
vt 0.150487 0.1074562
vt 0.150487 0.150487
vt 0.1908311 0.06852536
vt 0.2290156 0.07195846
vt 0.2324487 0.1101429
vt 0.1935181 0.150487
vt 0.150487 0.06697655
vt 0.2251394 0.03788769
vt 0.1890008 0.03285389
vt 0.2630863 0.07583458
vt 0.2231211 0.009027883
vt 0.2529865 0.01861045
vt 0.2565307 0.04444329
vt 0.2733794 0.02759465
vt 0.2823636 0.04798752
vt 0.1880797 0.002367362
vt 0.2919461 0.0778529
vt 0.150487 0.03086469
vt 0.1504869 0
vt 0.2681201 0.1119733
vt 0.2986066 0.1128944
vt 0.1119735 0.03285389
vt 0.1128943 0.002367362
vt 0.1101429 0.06852536
vt 0.2339975 0.150487
vt 0.2701094 0.150487
vt 0.300974 0.150487
vt 0.07583457 0.03788769
vt 0.07785285 0.009027883
vt 0.2681201 0.1890008
vt 0.2986066 0.1880797
vt 0.2324487 0.1908311
vt 0.1926463 0.1926463
vt 0.2630863 0.2251395
vt 0.2919461 0.2231212
vt 0.2290156 0.2290156
vt 0.2565307 0.2565308
vt 0.2823636 0.2529865
vt 0.2529865 0.2823636
vt 0.2733794 0.2733794
vt 0.2231211 0.2919461
vt 0.2251394 0.2630863
vt 0.1880797 0.2986067
vt 0.1890008 0.2681202
vt 0.150487 0.300974
vt 0.1908311 0.2324487
vt 0.150487 0.2701094
vt 0.1128943 0.2986067
vt 0.150487 0.2339975
vt 0.1119732 0.2681202
vt 0.07785285 0.2919461
vt 0.150487 0.1935178
vt 0.07583457 0.2630863
vt 0.04798755 0.2823636
vt 0.1101429 0.2324487
vt 0.04444329 0.2565308
vt 0.02759463 0.2733794
vt 0.0186104 0.2529865
vt 0.1083277 0.1926463
vt 0.07195842 0.2290156
vt 0.03788769 0.2251395
vt 0.009027839 0.2231212
vt 0.06852531 0.1908311
vt 0.03285389 0.1890008
vt 0.002367362 0.1880797
vt 0.1074562 0.150487
vt 0.06697655 0.150487
vt 0.03086464 0.150487
vt 0 0.150487
vt 0.0186104 0.04798752
vt 0.04798755 0.01861045
vt 0.02759463 0.02759465
vt 0.04444329 0.04444329
vt 0.009027839 0.0778529
vt 0.03788769 0.07583458
vt 0.002367362 0.1128944
vt 0.07195842 0.07195846
vt 0.03285389 0.1119733
vt 0.06852531 0.1101429
vt 0.1083277 0.1083277
vt 0.5938842 0.04361328
vt 0.6625928 0.1123218
vt 0.6415185 0.06468752
vt 0.6021948 0.1040112
vt 0.523833 0.02116701
vt 0.685039 0.1823731
vt 0.5285693 0.08880615
vt 0.4417517 0.005544454
vt 0.6173999 0.1776355
vt 0.7006616 0.2644544
vt 0.4439038 0.07701907
vt 0.3536914 0
vt 0.629187 0.2623022
vt 0.7072437 0.3525147
vt 0.5376343 0.1685718
vt 0.3536914 0.07235596
vt 0.2656311 0.005544454
vt 0.631477 0.3525147
vt 0.7018188 0.4400214
vt 0.5456909 0.2580072
vt 0.4481989 0.1605151
vt 0.263479 0.07701907
vt 0.1835498 0.02116701
vt 0.630166 0.4421918
vt 0.6861645 0.5224072
vt 0.3536913 0.1569092
vt 0.545033 0.3525147
vt 0.4524438 0.2537622
vt 0.1788135 0.08880615
vt 0.1134985 0.04361328
vt 0.6183349 0.5271667
vt 0.2591839 0.1605151
vt 0.3536914 0.2517194
vt 0.4512365 0.3525147
vt 0.5463269 0.4464972
vt 0.105188 0.1040112
vt 0.06586426 0.06468752
vt 0.04479003 0.1123218
vt 0.1697485 0.1685718
vt 0.0899829 0.1776355
vt 0.02234375 0.1823731
vt 0.254939 0.2537622
vt 0.3536912 0.3525147
vt 0.4527789 0.4507526
vt 0.07819581 0.2623022
vt 0.006721199 0.2644544
vt 0.1616919 0.2580072
vt 0.2525555 0.351631
vt 0.07254151 0.351631
vt 0 0.351631
vt 0.1574158 0.351631
vt 0.3536913 0.4528113
vt 0.5382581 0.5362573
vt 0.0772168 0.4421918
vt 0.005563974 0.4400214
vt 0.1610559 0.4464972
vt 0.2546039 0.4507526
vt 0.4485126 0.5443567
vt 0.4765838 1.113037
vt 0.485568 1.092731
vt 0.4597351 1.096275
vt 0.4561909 1.122053
vt 0.4283438 1.102761
vt 0.4263255 1.131618
vt 0.3922051 1.107783
vt 0.391284 1.138279
vt 0.3536913 0.5479736
vt 0.3536913 1.109771
vt 0.3536913 1.140646
vt 0.2588702 0.5443567
vt 0.3151779 1.107783
vt 0.3160987 1.138279
vt 0.1691248 0.5362573
vt 0.2790389 1.102761
vt 0.2810572 1.131618
vt 0.08904785 0.5271667
vt 0.02121827 0.5224072
vt 0.2476476 1.096275
vt 0.2511919 1.122053
vt 0.2218148 1.092731
vt 0.230799 1.113037
vt 0.6624537 0.1123218
vt 0.6413794 0.06468752
vt 0.6848999 0.1823731
vt 0.5284302 0.08880615
vt 0.5374951 0.1685718
vt 0.265492 0.005544454
vt 0.1834107 0.02116701
vt 0.5448938 0.3525147
vt 0.2560071 0.3525147
vt 0.07576662 0.3525147
vt 0.1622107 0.3525147
vt 0.005424827 0.4400214
vt 0.1609168 0.4464972
vt 0.2544647 0.4507526
vt 0.4483734 0.5443567
vt 0.4764446 1.113037
vt 0.4854289 1.092731
vt 0.3159596 1.138279
vt 0.2788998 1.102761
vt 0.2809181 1.131618
vt 0.7072437 0.351631
vt 0.6347021 0.351631
vt 0.5498279 0.351631
vt 0.4546881 0.351631
vt 0.59851 0.5983053
vt 0.66109 0.5936977
vt 0.578685 0.6694438
vt 0.6360154 0.6649882
vt 0.55886 0.7405823
vt 0.6109408 0.7362785
vt 0.539035 0.8117209
vt 0.5858662 0.807569
vt 0.5245188 0.6070703
vt 0.5107795 0.6778833
vt 0.4970402 0.7486962
vt 0.4833009 0.8195091
vt 0.4414741 0.614785
vt 0.4344357 0.6852133
vt 0.4273973 0.7556417
vt 0.4203588 0.82607
vt 0.3536913 0.6181983
vt 0.3536913 0.6884228
vt 0.3536913 0.7586474
vt 0.3536913 0.8288721
vt 0.2870241 0.82607
vt 0.2799856 0.7556417
vt 0.2729471 0.6852133
vt 0.2659087 0.614785
vt 0.2240818 0.8195091
vt 0.2103426 0.7486962
vt 0.1966033 0.6778833
vt 0.182864 0.6070703
vt 0.1683477 0.8117209
vt 0.1485228 0.7405823
vt 0.1286978 0.6694438
vt 0.1088728 0.5983053
vt 0.1215165 0.807569
vt 0.09644195 0.7362785
vt 0.07136738 0.6649882
vt 0.04629284 0.5936977
vt 0.5983708 0.5983064
vt 0.6609508 0.5936977
vt 0.6358763 0.6649882
vt 0.5388959 0.8117216
vt 0.5243796 0.6070703
vt 0.4969011 0.7486962
vt 0.2868848 0.82607
vt 0.2239427 0.8195091
vt 0.1964642 0.6778833
vt 0.1483836 0.7405832
vt 0.1213774 0.807569
vt 0.51921 0.8828595
vt 0.5607917 0.8788594
vt 0.4993851 0.953998
vt 0.5357171 0.9501499
vt 0.4795601 1.025136
vt 0.5106425 1.02144
vt 0.4695617 0.8903221
vt 0.4558224 0.961135
vt 0.4420831 1.031948
vt 0.4133204 0.8964983
vt 0.406282 0.9669266
vt 0.3992436 1.037355
vt 0.3536913 0.8990966
vt 0.3536913 0.9693213
vt 0.3536913 1.039546
vt 0.3081394 1.037355
vt 0.301101 0.9669266
vt 0.2940625 0.8964983
vt 0.2652997 1.031948
vt 0.2515604 0.961135
vt 0.2378211 0.8903221
vt 0.2278227 1.025136
vt 0.2079977 0.953998
vt 0.1881727 0.8828595
vt 0.1967402 1.02144
vt 0.1716657 0.9501499
vt 0.1465911 0.8788594
vt 0.479421 1.025137
vt 0.4694225 0.8903221
vt 0.4419439 1.031948
vt 0.3009616 0.9669266
vt 0.2939232 0.8964983
vt 0.2514213 0.961135
vt 0.146452 0.8788594

vn -0.3833191 -0.9042567 -0.1881124
vn -0.2057192 -0.9786077 0.002557472
vn -0.1981944 -0.9599156 -0.1981944
vn -0.3669184 -0.8548343 -0.3669184
vn -0.5281201 -0.7745593 -0.3480619
vn -0.551649 -0.8145245 -0.1795359
vn -0.3899587 -0.9208317 0.001105462
vn -2.640703E-07 -1 9.242459E-08
vn -0.1972115 -0.9603204 0.1972115
vn -0.1881124 -0.9042567 -0.3833191
vn 0.002557403 -0.9786077 -0.2057192
vn -0.4961344 -0.7125316 -0.4961344
vn -0.3480619 -0.7745593 -0.5281201
vn -0.6652772 -0.6652772 -0.3388398
vn -0.6222832 -0.6222832 -0.474897
vn -0.5738001 -0.5738001 -0.5843859
vn -0.4759075 -0.6185304 -0.6252457
vn -0.6961264 -0.6961264 -0.1755452
vn -0.3391992 -0.6638761 -0.6664926
vn -0.5602702 -0.8283095 0.0008335535
vn -0.7071066 -0.7071066 0.0005511562
vn -0.1795359 -0.8145245 -0.551649
vn -0.1759284 -0.6954162 -0.6967393
vn -0.5508326 -0.8148513 0.180557
vn -0.6960295 -0.6960295 0.1763119
vn -0.38329 -0.9040293 0.1892613
vn 0.00110547 -0.9208317 -0.3899587
vn 0.0008335423 -0.8283095 -0.5602702
vn 3.756979E-08 -0.7071068 -0.7071068
vn -0.5268406 -0.7750614 0.3488823
vn -0.6650935 -0.6650936 0.33956
vn -0.3673172 -0.8544918 0.3673172
vn 0.180557 -0.8148513 -0.5508326
vn 0.1759285 -0.6967392 -0.6954162
vn 0.1892614 -0.9040293 -0.3832901
vn 0.1972117 -0.9603203 -0.1972119
vn -0.4962742 -0.7123369 0.4962742
vn -0.6215056 -0.6215056 0.4769295
vn 0.3488822 -0.7750614 -0.5268406
vn 0.3391987 -0.6664941 -0.6638749
vn 0.2057196 -0.9786077 -0.002557597
vn 0.3899593 -0.9208314 -0.001105662
vn 0.3832901 -0.9040293 -0.1892613
vn 0.5602701 -0.8283095 -0.0008335065
vn 0.3673172 -0.8544918 -0.3673172
vn 0.5508326 -0.8148513 -0.180557
vn 0.7071066 -0.7071066 -0.0005511205
vn 0.6960295 -0.6960295 -0.1763119
vn 0.5268406 -0.7750614 -0.3488822
vn 0.6650935 -0.6650936 -0.33956
vn 0.4962742 -0.7123369 -0.4962742
vn 0.6215056 -0.6215056 -0.4769295
vn 0.4759082 -0.6252461 -0.6185295
vn 0.5808601 -0.5808601 -0.5702657
vn -0.002557453 -0.9786077 0.2057192
vn 0.1981944 -0.9599155 0.198195
vn 0.1881124 -0.9042567 0.3833191
vn -0.001105428 -0.9208317 0.3899586
vn -0.1892613 -0.9040293 0.3832901
vn -0.000833561 -0.8283095 0.5602702
vn -0.1805571 -0.8148513 0.5508326
vn 0.1795359 -0.8145245 0.551649
vn -0.3488822 -0.7750614 0.5268406
vn 1.69064E-08 -0.7071068 0.7071068
vn 0.1759282 -0.6954159 0.6967396
vn -0.1759286 -0.6967389 0.6954165
vn -0.3391986 -0.666494 0.6638751
vn -0.4759082 -0.6252461 0.6185295
vn -0.5808601 -0.5808601 0.5702657
vn 0.3391992 -0.6638761 0.6664926
vn 0.3480619 -0.7745593 0.5281201
vn 0.4759075 -0.6185304 0.6252457
vn 0.4961344 -0.7125316 0.4961344
vn 0.5738001 -0.5738001 0.5843859
vn 0.6222824 -0.6222836 0.4748977
vn 0.3669184 -0.8548343 0.3669184
vn 0.5281201 -0.7745593 0.3480619
vn 0.665276 -0.6652787 0.3388393
vn 0.3833193 -0.9042565 0.1881126
vn 0.551649 -0.8145245 0.179536
vn 0.6961263 -0.6961264 0.1755452
vn -0.1971922 0.9603283 -0.1971926
vn 0.001801079 0.9791391 -0.2031833
vn 2.769643E-07 1 -6.971209E-08
vn -0.1770267 0.7017732 -0.690055
vn -0.595574 0.5390585 -0.5955732
vn -0.6900552 0.7017729 -0.1770271
vn -0.2031838 0.979139 0.001801098
vn -0.0005981222 0.7145109 -0.6996241
vn -0.4155368 0.6053265 -0.6789027
vn -0.1631262 0.5602885 -0.8120755
vn -0.6789028 0.6053267 -0.4155365
vn -0.3389079 0.6651822 -0.6653376
vn -0.4746988 0.6226419 -0.6220757
vn -0.4946702 0.7145643 -0.4946708
vn -0.5841414 0.5743641 -0.5734847
vn -0.6250881 0.6188564 -0.4756908
vn -0.1753248 0.6960602 -0.6962481
vn -0.6666363 0.6637197 -0.339223
vn -0.0008576514 0.5661507 -0.8243014
vn 0.0004888569 0.7070027 -0.7072107
vn -0.8120754 0.5602884 -0.1631266
vn -0.6968708 0.6953144 -0.1758097
vn 0.1603292 0.5590581 -0.8134793
vn 0.1762918 0.6959453 -0.6961189
vn 0.1745202 0.7032941 -0.6891445
vn -0.6996247 0.7145103 -0.000597677
vn -0.8243015 0.5661504 -0.0008577465
vn -0.7072107 0.7070029 6.347083E-06
vn 0.4187737 0.6034669 -0.6785693
vn 0.3396961 0.6651039 -0.6650138
vn -0.8134797 0.5590575 0.1603294
vn -0.6954955 0.6966908 0.1758065
vn -0.6891448 0.7032937 0.1745203
vn -0.1970038 0.9604056 0.1970038
vn -0.6785693 0.6034665 0.4187743
vn -0.6637122 0.6665645 0.3393786
vn -0.5952854 0.5396953 0.5952851
vn -0.4963263 0.7122642 0.4963264
vn -0.6182044 0.6258571 0.4755273
vn -0.4765309 0.6220855 0.621231
vn -0.5699347 0.5814433 0.5806015
vn -0.3396962 0.6651041 0.6650136
vn -0.4187742 0.6034666 0.6785693
vn -0.1762919 0.6959453 0.6961188
vn -0.1603297 0.5590577 0.8134795
vn -0.0004889038 0.7070027 0.7072107
vn -0.1745208 0.7032938 0.6891446
vn 0.0008576648 0.5661504 0.8243015
vn 0.1753249 0.6960606 0.6962477
vn 0.0005980633 0.7145109 0.6996241
vn 0.1631268 0.5602887 0.8120753
vn 0.3389079 0.6651826 0.6653372
vn -0.00180081 0.9791391 0.2031834
vn 0.4155368 0.6053265 0.6789027
vn 0.4746987 0.622642 0.6220757
vn 0.1770272 0.7017733 0.6900548
vn 0.4946703 0.7145644 0.4946707
vn 0.5841417 0.5743641 0.5734844
vn 0.6250881 0.6188563 0.4756908
vn 0.1971922 0.9603283 0.1971921
vn 0.5955741 0.5390587 0.5955729
vn 0.6789027 0.6053268 0.4155365
vn 0.6666363 0.6637197 0.3392232
vn 0.690055 0.7017732 0.1770267
vn 0.8120753 0.5602887 0.1631266
vn 0.6968706 0.6953145 0.1758097
vn 0.2031833 0.9791391 -0.001800978
vn 0.6996241 0.714511 0.000598116
vn 0.8243015 0.5661505 0.0008577329
vn 0.7072107 0.7070028 -6.602545E-06
vn 0.6182044 0.6258568 -0.4755276
vn 0.4765313 0.6220853 -0.621231
vn 0.5699344 0.5814431 -0.5806021
vn 0.4963262 0.7122642 -0.4963266
vn 0.6637123 0.6665645 -0.3393784
vn 0.6785693 0.6034667 -0.4187739
vn 0.6954955 0.6966909 -0.1758064
vn 0.5952854 0.5396954 -0.595285
vn 0.8134797 0.5590575 -0.1603294
vn 0.6891447 0.703294 -0.1745197
vn 0.1970031 0.9604059 -0.1970031
vn -0.6252461 -0.4759082 0.6185295
vn -0.7123353 -0.4962762 0.4962744
vn -0.6664927 -0.3391994 0.6638759
vn -0.7750612 -0.5268413 0.3488815
vn -0.7750609 -0.3488832 0.5268407
vn -0.6953759 -0.1834993 0.6948239
vn -0.8148513 -0.5508326 0.180557
vn -0.8136327 -0.1890369 0.5497881
vn -0.7071042 -0.008973697 0.7070524
vn -0.8544927 -0.3673169 0.3673154
vn -0.8283095 -0.5602702 0.0008334878
vn -0.8308824 -0.008054427 0.5563897
vn -0.6959388 0.1745553 0.6965627
vn -0.9027311 -0.1980776 0.3818925
vn -0.9040293 -0.38329 0.1892613
vn -0.8145245 -0.551649 -0.179536
vn -0.8158249 0.1778912 0.5502586
vn -0.6604486 0.3550161 0.6616428
vn -0.9208314 -0.3899593 0.001105599
vn -0.9235006 -0.006319313 0.3835449
vn -0.9588052 -0.2056153 0.1959971
vn -0.7745593 -0.5281201 -0.3480619
vn -0.7704434 0.3596947 0.5263427
vn -0.9042565 -0.3833193 -0.1881127
vn -0.9781413 -0.2079411 0.0003327248
vn -0.9806073 -0.006097963 0.195888
vn -0.9052932 0.1874329 0.3811997
vn -0.7125309 -0.4961365 -0.4961334
vn -0.6185295 -0.4759082 -0.6252461
vn -0.8548347 -0.3669192 -0.3669168
vn -0.7745589 -0.3480631 -0.5281199
vn -0.6638759 -0.3391994 -0.6664927
vn -0.9591067 -0.2039801 -0.1962302
vn -0.9999782 -0.006432098 -0.001517687
vn -0.9607301 0.1964057 0.1960166
vn -0.8131396 -0.1888233 -0.5505903
vn -0.6941541 -0.1856586 -0.6954718
vn -0.9027105 -0.1960152 -0.3830038
vn -0.9796657 -0.006945448 -0.2005167
vn -0.8288497 -0.009172613 -0.5593961
vn -0.7070513 -0.009941825 -0.7070923
vn -0.9210817 -0.007485974 -0.3892973
vn -0.9796232 0.2008419 -0.000972159
vn -0.8546535 0.3668916 0.3673662
vn -0.8153498 0.1805648 -0.5500918
vn -0.6967978 0.1757656 -0.6953986
vn -0.9045709 0.1890165 -0.382131
vn -0.9603141 0.1971883 -0.1972652
vn -0.9081864 0.3734037 0.1891222
vn -0.6136875 0.4908624 0.6184188
vn -0.7091239 0.5041943 0.4928808
vn -0.776445 0.5256765 0.3475592
vn -0.8213894 0.5414886 0.1791909
vn -0.9267936 0.3755704 -0.0005907563
vn -0.8368292 0.547464 -0.0002421297
vn -0.9087564 0.3717445 -0.1896517
vn -0.8207913 0.542238 -0.179665
vn -0.8555722 0.3646837 -0.3674263
vn -0.7753223 0.5271763 -0.3477938
vn -0.771395 0.3578301 -0.5262198
vn -0.6616461 0.3550156 -0.6604456
vn -0.7068332 0.5070251 -0.4932671
vn -0.6184192 0.4908622 -0.6136872
vn 0.6185303 -0.4759075 0.6252457
vn 0.4962742 -0.4962742 0.712337
vn 0.6638761 -0.3391992 0.6664926
vn 0.3488816 -0.5268404 0.7750618
vn 0.5268405 -0.3488822 0.7750614
vn 0.6948236 -0.1834998 0.6953762
vn 0.1805565 -0.5508326 0.8148514
vn 0.5497884 -0.1890383 0.8136321
vn 0.7070524 -0.008973697 0.7071042
vn 0.367317 -0.3673174 0.8544918
vn 0.0008334558 -0.5602702 0.8283095
vn 0.5563897 -0.008054427 0.8308824
vn 0.6965627 0.1745553 0.6959388
vn 0.3818925 -0.1980776 0.9027311
vn 0.1892614 -0.3832905 0.9040291
vn -0.1795341 -0.5516496 0.8145245
vn 0.550259 0.1778898 0.8158249
vn 0.6616443 0.3550156 0.6604474
vn 0.001105517 -0.3899594 0.9208314
vn 0.3835449 -0.006319313 0.9235006
vn 0.1959971 -0.2056153 0.9588052
vn -0.3480623 -0.5281202 0.774559
vn 0.5263433 0.3596938 0.7704434
vn -0.188112 -0.3833193 0.9042567
vn 0.0003327022 -0.207941 0.9781413
vn 0.195888 -0.006097977 0.9806073
vn 0.3811993 0.1874325 0.9052935
vn -0.4961355 -0.4961355 0.7125301
vn -0.3669176 -0.3669176 0.8548351
vn -0.5281199 -0.3480631 0.7745589
vn -0.1958997 -0.2031852 0.959343
vn -2.505691E-05 -0.006760441 0.9999772
vn 0.1960172 0.1964056 0.96073
vn -0.5501199 -0.1862404 0.8140532
vn -0.3819952 -0.1945049 0.9034642
vn -0.1959258 -0.007686811 0.9805886
vn -0.5560015 -0.009574352 0.8311261
vn -0.3838479 -0.008496672 0.9233573
vn -0.0004036778 0.2014061 0.9795078
vn 0.367364 0.3668917 0.8546545
vn -0.5497048 0.1803368 0.8156613
vn -0.3813508 0.1904604 0.9045974
vn -0.1961432 0.1988211 0.9602073
vn 0.1891225 0.3734039 0.9081863
vn 0.6184191 0.4908624 0.6136872
vn 0.4928804 0.5041949 0.7091238
vn 0.3475592 0.5256766 0.7764449
vn 0.1791909 0.5414885 0.8213896
vn -0.000590899 0.3755711 0.9267934
vn -0.0002418286 0.5474639 0.8368293
vn -0.1896517 0.3717445 0.9087564
vn -0.1796656 0.5422383 0.8207911
vn -0.3674245 0.3646833 0.8555731
vn -0.3477946 0.5271763 0.7753219
vn -0.5262195 0.3578292 0.7713957
vn -0.4932666 0.5070257 0.7068331
vn 0.8283095 -0.5602702 -0.0008334896
vn 0.8145246 -0.5516495 0.1795346
vn 0.9208317 -0.3899587 -0.001105402
vn 0.7745589 -0.5281199 0.3480631
vn 0.904257 -0.3833187 0.188112
vn 0.9782107 -0.2076136 -0.0006659696
vn 0.7125309 -0.4961334 0.4961365
vn 0.8548347 -0.3669168 0.3669192
vn 0.9593431 -0.2031853 0.1958992
vn 0.9999723 -0.007335897 -0.001226882
vn 0.7745593 -0.3480619 0.5281201
vn 0.9034639 -0.1945054 0.3819956
vn 0.9805886 -0.007686807 0.1959258
vn 0.9795077 0.2014061 0.0004036119
vn 0.8140532 -0.1862418 0.5501194
vn 0.9602073 0.1988211 0.1961432
vn 0.9267934 0.3755711 0.000590822
vn 0.9233573 -0.008496672 0.3838478
vn 0.8311262 -0.009574353 0.5560015
vn 0.9087564 0.3717445 0.1896516
vn 0.9045974 0.1904604 0.3813508
vn 0.8156613 0.1803368 0.5497048
vn 0.8368294 0.5474638 0.0002416592
vn 0.8207911 0.5422382 0.1796656
vn 0.8555731 0.3646833 0.3674245
vn 0.7713957 0.3578292 0.5262195
vn 0.7753222 0.5271761 0.3477943
vn 0.7068331 0.5070254 0.4932668
vn 0.6252457 -0.4759075 -0.6185303
vn 0.712337 -0.4962742 -0.4962742
vn 0.6664926 -0.3391992 -0.6638761
vn 0.7750614 -0.5268406 -0.3488822
vn 0.7750614 -0.3488822 -0.5268405
vn 0.6954721 -0.185659 -0.6941537
vn 0.8148513 -0.5508326 -0.180557
vn 0.8131449 -0.1902589 -0.550088
vn 0.7070923 -0.009941785 -0.7070513
vn 0.8544918 -0.3673172 -0.3673172
vn 0.9040293 -0.38329 -0.1892613
vn 0.8285789 -0.01041017 -0.5597755
vn 0.6953989 0.1757652 -0.6967976
vn 0.9025205 -0.1976179 -0.3826277
vn 0.9587244 -0.2049379 -0.1970991
vn 0.8150863 0.1795141 -0.5508258
vn 0.6604474 0.3550156 -0.6616443
vn 0.9211979 -0.009290125 -0.3889834
vn 0.979618 -0.008528146 -0.2006889
vn 0.7704434 0.3596938 -0.5263433
vn 0.9047366 0.18796 -0.38226
vn 0.9605949 0.1964937 -0.1965901
vn 0.6136872 0.4908624 -0.6184191
vn 0.7091238 0.5041945 -0.4928806
vn 0.8546545 0.3668917 -0.367364
vn 0.9081863 0.3734039 -0.1891226
vn 0.7764452 0.5256763 -0.347559
vn 0.8213896 0.5414884 -0.1791909
vn -0.4962744 -0.4962762 -0.7123353
vn -0.3488815 -0.5268413 -0.7750612
vn -0.5268407 -0.3488832 -0.7750609
vn -0.180557 -0.5508326 -0.8148513
vn -0.5500878 -0.1902576 -0.8131454
vn -0.3673154 -0.3673169 -0.8544927
vn -0.000833531 -0.5602702 -0.8283095
vn -0.5597755 -0.01041019 -0.8285789
vn -0.3826277 -0.1976179 -0.9025205
vn -0.1892613 -0.38329 -0.9040293
vn 0.1795345 -0.5516495 -0.8145246
vn -0.5508258 0.1795141 -0.8150863
vn -0.001105662 -0.3899593 -0.9208314
vn -0.3889834 -0.009290156 -0.921198
vn -0.1970995 -0.2049381 -0.9587242
vn 0.3480631 -0.5281199 -0.7745589
vn -0.5263433 0.3596938 -0.7704434
vn 0.1881122 -0.3833189 -0.9042568
vn -0.000666137 -0.2076141 -0.9782106
vn -0.2006889 -0.008528052 -0.9796179
vn -0.38226 0.1879599 -0.9047366
vn 0.4961365 -0.4961334 -0.7125309
vn 0.3669192 -0.3669168 -0.8548347
vn 0.5281202 -0.3480619 -0.7745592
vn 0.1962302 -0.2039801 -0.9591067
vn 0.0002658163 -0.007007557 -0.9999754
vn -0.19659 0.1964937 -0.9605949
vn 0.5505899 -0.1888247 -0.8131396
vn 0.3830042 -0.1960156 -0.9027102
vn 0.2005168 -0.00694549 -0.9796657
vn 0.5593961 -0.009172576 -0.8288497
vn 0.3892973 -0.007485943 -0.9210817
vn 0.000972353 0.2008423 -0.9796231
vn -0.367364 0.3668917 -0.8546545
vn 0.5500916 0.1805635 -0.8153503
vn 0.382131 0.1890165 -0.9045709
vn 0.1972656 0.1971885 -0.960314
vn -0.1891224 0.3734039 -0.9081863
vn -0.4928802 0.5041949 -0.7091238
vn -0.3475585 0.5256764 -0.7764454
vn -0.1791905 0.5414882 -0.8213899
vn 0.0005910342 0.375571 -0.9267934
vn 0.0002418399 0.5474635 -0.8368295
vn 0.1896517 0.3717445 -0.9087564
vn 0.1796652 0.5422378 -0.8207914
vn 0.3674245 0.3646833 -0.8555731
vn 0.3477937 0.5271758 -0.7753227
vn 0.5262195 0.3578292 -0.7713957
vn 0.4932667 0.5070258 -0.7068329
vn -0.7352936 0.4464857 0.509896
vn -0.6330751 0.4454632 0.6330708
vn -0.7356324 0.4464906 0.5094027
vn -0.7360402 0.4464965 0.5088082
vn -0.7365403 0.4465034 0.5080779
vn -0.818311 0.4483218 0.3596868
vn -0.8185829 0.4483261 0.3590623
vn -0.8189088 0.4483306 0.3583128
vn -0.8193062 0.448336 0.3573963
vn -0.8732671 0.4500967 0.1865951
vn -0.8733725 0.4500957 0.186103
vn -0.8734986 0.4500941 0.1855144
vn -0.8736515 0.450092 0.1847976
vn -0.8926111 0.4508275 -1.75875E-07
vn -0.8736515 0.450092 -0.1847976
vn -0.8734986 0.4500941 -0.1855144
vn -0.8733725 0.4500957 -0.1861031
vn -0.873267 0.4500967 -0.1865952
vn -0.8193063 0.448336 -0.3573961
vn -0.8189089 0.4483306 -0.3583125
vn -0.818583 0.4483261 -0.3590621
vn -0.818311 0.4483218 -0.3596868
vn -0.7365403 0.4465034 -0.5080779
vn -0.7360402 0.4464964 -0.5088082
vn -0.7356325 0.4464906 -0.5094026
vn -0.7352936 0.4464856 -0.509896
vn -0.6330619 0.445499 -0.6330587
vn 0.5098959 0.4464863 0.7352933
vn 0.6330729 0.4454632 0.6330729
vn 0.5094025 0.4464914 0.7356321
vn 0.508808 0.4464973 0.7360399
vn 0.5080776 0.4465041 0.73654
vn 0.3596841 0.4483219 0.8183122
vn 0.3590598 0.4483262 0.818584
vn 0.3583105 0.4483308 0.8189097
vn 0.3573945 0.4483362 0.819307
vn 0.1865951 0.4500967 0.873267
vn 0.1861031 0.4500957 0.8733725
vn 0.1855145 0.4500941 0.8734986
vn 0.1847978 0.4500921 0.8736515
vn -7.671143E-08 0.4508275 0.8926111
vn -0.1847978 0.450092 0.8736515
vn -0.1855146 0.4500941 0.8734985
vn -0.1861031 0.4500957 0.8733725
vn -0.1865952 0.4500967 0.873267
vn -0.3573945 0.4483362 0.8193069
vn -0.3583105 0.4483308 0.8189096
vn -0.3590598 0.4483262 0.818584
vn -0.3596841 0.4483218 0.8183122
vn -0.5080776 0.4465042 0.73654
vn -0.508808 0.4464973 0.7360398
vn -0.5094025 0.4464914 0.7356321
vn -0.5098959 0.4464863 0.7352933
vn 0.8926232 0.4508035 -1.309553E-08
vn 0.8734985 0.4500941 0.1855144
vn 0.8736515 0.450092 0.1847977
vn 0.8733725 0.4500957 0.1861031
vn 0.873267 0.4500967 0.1865951
vn 0.8189097 0.4483307 0.3583105
vn 0.8193071 0.4483361 0.3573943
vn 0.818584 0.4483262 0.3590597
vn 0.8183122 0.4483218 0.3596841
vn 0.7360399 0.4464972 0.508808
vn 0.73654 0.4465041 0.5080777
vn 0.7356321 0.4464913 0.5094025
vn 0.7352933 0.4464863 0.5098959
vn 0.6330602 0.445499 -0.6330603
vn 0.7360399 0.4464972 -0.508808
vn 0.73654 0.446504 -0.5080777
vn 0.7356322 0.4464913 -0.5094025
vn 0.7352933 0.4464862 -0.5098959
vn 0.8189098 0.4483307 -0.3583105
vn 0.8193071 0.4483361 -0.3573943
vn 0.818584 0.4483261 -0.3590597
vn 0.8183122 0.4483218 -0.3596842
vn 0.8734986 0.450094 -0.1855144
vn 0.8736515 0.450092 -0.1847977
vn 0.8733725 0.4500957 -0.1861031
vn 0.873267 0.4500967 -0.1865951
vn -0.5088079 0.4464972 -0.7360399
vn -0.5080776 0.446504 -0.7365401
vn -0.5094024 0.4464914 -0.7356321
vn -0.5098959 0.4464863 -0.7352933
vn -0.3583104 0.4483307 -0.8189098
vn -0.3573943 0.4483361 -0.8193071
vn -0.3590597 0.4483262 -0.818584
vn -0.3596841 0.4483218 -0.8183122
vn -0.1855143 0.450094 -0.8734986
vn -0.1847976 0.4500919 -0.8736516
vn -0.1861029 0.4500957 -0.8733725
vn -0.186595 0.4500967 -0.873267
vn 2.001839E-07 0.4508131 -0.8926184
vn 0.1855145 0.450094 -0.8734986
vn 0.1847977 0.4500919 -0.8736516
vn 0.1861031 0.4500957 -0.8733724
vn 0.1865952 0.4500968 -0.8732669
vn 0.3583103 0.4483308 -0.8189098
vn 0.3573942 0.448336 -0.8193071
vn 0.3590597 0.4483262 -0.818584
vn 0.3596841 0.4483219 -0.8183122
vn 0.508808 0.4464972 -0.7360399
vn 0.5080776 0.446504 -0.7365401
vn 0.5094024 0.4464914 -0.7356321
vn 0.5098959 0.4464863 -0.7352933
vn -0.7371687 0.4465115 0.5071586
vn -0.6330553 0.4455171 0.6330525
vn -0.7379823 0.4465209 0.5059656
vn -0.739078 0.4465319 0.504354
vn -0.819802 0.4483421 0.35625
vn -0.8204383 0.4483483 0.3547743
vn -0.8212852 0.4483543 0.3528017
vn -0.8738413 0.450089 0.1839059
vn -0.8740829 0.4500844 0.1827652
vn -0.8744011 0.4500777 0.1812533
vn -0.8744012 0.4500777 -0.181253
vn -0.8740829 0.4500845 -0.182765
vn -0.8738413 0.450089 -0.1839058
vn -0.8212855 0.4483543 -0.352801
vn -0.8204385 0.4483483 -0.3547738
vn -0.8198022 0.4483421 -0.3562496
vn -0.7390779 0.4465319 -0.5043541
vn -0.7379823 0.4465209 -0.5059657
vn -0.7371688 0.4465114 -0.5071586
vn -0.6330354 0.445572 -0.6330338
vn 0.5071583 0.4465121 0.7371685
vn 0.6330539 0.4455171 0.6330539
vn 0.5059653 0.4465215 0.7379822
vn 0.5043538 0.4465324 0.7390779
vn 0.3562486 0.4483421 0.8198026
vn 0.3547734 0.4483483 0.8204387
vn 0.352801 0.4483544 0.8212854
vn 0.1839058 0.450089 0.8738413
vn 0.1827651 0.4500845 0.8740829
vn 0.1812532 0.4500777 0.8744011
vn -0.1812533 0.4500777 0.8744011
vn -0.1827652 0.4500844 0.8740829
vn -0.1839059 0.450089 0.8738412
vn -0.3528011 0.4483544 0.8212854
vn -0.3547735 0.4483483 0.8204387
vn -0.3562486 0.448342 0.8198026
vn -0.5043538 0.4465324 0.7390779
vn -0.5059653 0.4465214 0.7379822
vn -0.5071582 0.4465121 0.7371685
vn 0.8744011 0.4500777 0.1812534
vn 0.8740829 0.4500845 0.1827653
vn 0.8738412 0.4500889 0.183906
vn 0.8212855 0.4483545 0.3528009
vn 0.8204388 0.4483484 0.3547731
vn 0.8198027 0.4483421 0.3562483
vn 0.7390779 0.4465325 0.5043537
vn 0.7379821 0.4465215 0.5059653
vn 0.7371684 0.4465121 0.5071584
vn 0.6330346 0.4455721 -0.6330345
vn 0.7390779 0.4465325 -0.5043538
vn 0.7379821 0.4465215 -0.5059654
vn 0.7371684 0.4465121 -0.5071584
vn 0.8212855 0.4483545 -0.3528008
vn 0.8204388 0.4483483 -0.354773
vn 0.8198028 0.4483421 -0.3562483
vn 0.8744011 0.4500777 -0.1812534
vn 0.8740829 0.4500845 -0.1827653
vn 0.8738412 0.4500889 -0.183906
vn -0.5043535 0.4465324 -0.739078
vn -0.5059652 0.4465215 -0.7379823
vn -0.5071583 0.446512 -0.7371686
vn -0.3528003 0.4483544 -0.8212857
vn -0.3547727 0.4483484 -0.8204389
vn -0.3562483 0.448342 -0.8198028
vn -0.1812529 0.4500777 -0.8744012
vn -0.1827649 0.4500846 -0.8740829
vn -0.1839056 0.450089 -0.8738413
vn 0.1812531 0.4500777 -0.8744012
vn 0.182765 0.4500846 -0.8740828
vn 0.1839058 0.450089 -0.8738412
vn 0.3528003 0.4483544 -0.8212857
vn 0.3547727 0.4483484 -0.820439
vn 0.3562482 0.448342 -0.8198028
vn 0.5043536 0.4465325 -0.739078
vn 0.5059653 0.4465215 -0.7379822
vn 0.5071583 0.446512 -0.7371686

usemtl New_Material_4
f 159/159/159 157/157/157 110/110/110
f 157/157/157 155/155/155 110/110/110
f 92/92/92 90/90/90 95/95/95
f 92/92/92 86/86/86 90/90/90
f 118/118/118 116/116/116 124/124/124
f 116/116/116 119/119/119 124/124/124
f 143/143/143 135/135/135 138/138/138
f 143/143/143 142/142/142 135/135/135
f 1/1/1 3/3/3 2/2/2
f 2/2/2 7/7/7 1/1/1
f 3/3/3 1/1/1 4/4/4
f 4/4/4 10/10/10 3/3/3
f 5/5/5 4/4/4 1/1/1
f 1/1/1 6/6/6 5/5/5
f 6/6/6 1/1/1 7/7/7
f 7/7/7 20/20/20 6/6/6
f 8/8/8 2/2/2 3/3/3
f 3/3/3 11/11/11 8/8/8
f 7/7/7 2/2/2 9/9/9
f 9/9/9 26/26/26 7/7/7
f 11/11/11 3/3/3 10/10/10
f 10/10/10 27/27/27 11/11/11
f 4/4/4 5/5/5 12/12/12
f 12/12/12 13/13/13 4/4/4
f 10/10/10 4/4/4 13/13/13
f 13/13/13 22/22/22 10/10/10
f 14/14/14 5/5/5 6/6/6
f 6/6/6 18/18/18 14/14/14
f 5/5/5 14/14/14 15/15/15
f 15/15/15 12/12/12 5/5/5
f 12/12/12 15/15/15 16/16/16
f 16/16/16 17/17/17 12/12/12
f 13/13/13 12/12/12 17/17/17
f 17/17/17 19/19/19 13/13/13
f 18/18/18 6/6/6 20/20/20
f 20/20/20 21/21/21 18/18/18
f 22/22/22 13/13/13 19/19/19
f 19/19/19 23/23/23 22/22/22
f 21/21/21 20/20/20 24/24/24
f 24/24/24 25/25/25 21/21/21
f 20/20/20 7/7/7 26/26/26
f 26/26/26 24/24/24 20/20/20
f 27/27/27 10/10/10 22/22/22
f 22/22/22 28/28/28 27/27/27
f 28/28/28 22/22/22 23/23/23
f 23/23/23 29/29/29 28/28/28
f 25/25/25 24/24/24 30/30/30
f 30/30/30 31/31/31 25/25/25
f 24/24/24 26/26/26 32/32/32
f 32/32/32 30/30/30 24/24/24
f 33/33/33 28/28/28 29/29/29
f 29/29/29 34/34/34 33/33/33
f 35/35/35 27/27/27 28/28/28
f 28/28/28 33/33/33 35/35/35
f 36/36/36 11/11/11 27/27/27
f 27/27/27 35/35/35 36/36/36
f 31/31/31 30/30/30 37/37/37
f 37/37/37 38/38/38 31/31/31
f 39/39/39 33/33/33 34/34/34
f 34/34/34 40/40/40 39/39/39
f 11/11/11 36/36/36 41/41/41
f 41/41/41 8/8/8 11/11/11
f 42/42/42 41/41/41 36/36/36
f 36/36/36 43/43/43 42/42/42
f 43/43/43 36/36/36 35/35/35
f 35/35/35 45/45/45 43/43/43
f 44/44/44 42/42/42 43/43/43
f 43/43/43 46/46/46 44/44/44
f 45/45/45 35/35/35 33/33/33
f 33/33/33 39/39/39 45/45/45
f 46/46/46 43/43/43 45/45/45
f 45/45/45 49/49/49 46/46/46
f 47/47/47 44/44/44 46/46/46
f 46/46/46 48/48/48 47/47/47
f 48/48/48 46/46/46 49/49/49
f 49/49/49 50/50/50 48/48/48
f 49/49/49 45/45/45 39/39/39
f 39/39/39 51/51/51 49/49/49
f 50/50/50 49/49/49 51/51/51
f 51/51/51 52/52/52 50/50/50
f 51/51/51 39/39/39 40/40/40
f 40/40/40 53/53/53 51/51/51
f 52/52/52 51/51/51 53/53/53
f 53/53/53 54/54/54 52/52/52
f 2/2/2 8/8/8 55/55/55
f 55/55/55 9/9/9 2/2/2
f 56/56/56 55/55/55 8/8/8
f 8/8/8 41/41/41 56/56/56
f 55/55/55 56/56/56 57/57/57
f 57/57/57 58/58/58 55/55/55
f 9/9/9 55/55/55 58/58/58
f 58/58/58 59/59/59 9/9/9
f 26/26/26 9/9/9 59/59/59
f 59/59/59 32/32/32 26/26/26
f 59/59/59 58/58/58 60/60/60
f 60/60/60 61/61/61 59/59/59
f 32/32/32 59/59/59 61/61/61
f 61/61/61 63/63/63 32/32/32
f 58/58/58 57/57/57 62/62/62
f 62/62/62 60/60/60 58/58/58
f 30/30/30 32/32/32 63/63/63
f 63/63/63 37/37/37 30/30/30
f 61/61/61 60/60/60 64/64/64
f 64/64/64 66/66/66 61/61/61
f 65/65/65 64/64/64 60/60/60
f 60/60/60 62/62/62 65/65/65
f 63/63/63 61/61/61 66/66/66
f 66/66/66 67/67/67 63/63/63
f 37/37/37 63/63/63 67/67/67
f 67/67/67 68/68/68 37/37/37
f 38/38/38 37/37/37 68/68/68
f 68/68/68 69/69/69 38/38/38
f 70/70/70 65/65/65 62/62/62
f 62/62/62 71/71/71 70/70/70
f 72/72/72 70/70/70 71/71/71
f 71/71/71 73/73/73 72/72/72
f 71/71/71 62/62/62 57/57/57
f 57/57/57 76/76/76 71/71/71
f 74/74/74 72/72/72 73/73/73
f 73/73/73 75/75/75 74/74/74
f 73/73/73 71/71/71 76/76/76
f 76/76/76 77/77/77 73/73/73
f 76/76/76 57/57/57 56/56/56
f 56/56/56 79/79/79 76/76/76
f 75/75/75 73/73/73 77/77/77
f 77/77/77 78/78/78 75/75/75
f 77/77/77 76/76/76 79/79/79
f 79/79/79 80/80/80 77/77/77
f 78/78/78 77/77/77 80/80/80
f 80/80/80 81/81/81 78/78/78
f 79/79/79 56/56/56 41/41/41
f 41/41/41 42/42/42 79/79/79
f 80/80/80 79/79/79 42/42/42
f 42/42/42 44/44/44 80/80/80
f 81/81/81 80/80/80 44/44/44
f 44/44/44 47/47/47 81/81/81
f 84/84/84 83/83/83 82/82/82
f 82/82/82 88/88/88 84/84/84
f 85/85/85 82/82/82 83/83/83
f 83/83/83 89/89/89 85/85/85
f 82/82/82 85/85/85 86/86/86
f 86/86/86 87/87/87 82/82/82
f 88/88/88 82/82/82 87/87/87
f 87/87/87 107/107/107 88/88/88
f 90/90/90 86/86/86 85/85/85
f 85/85/85 91/91/91 90/90/90
f 91/91/91 85/85/85 89/89/89
f 89/89/89 100/100/100 91/91/91
f 87/87/87 86/86/86 92/92/92
f 92/92/92 102/102/102 87/87/87
f 93/93/93 90/90/90 91/91/91
f 91/91/91 98/98/98 93/93/93
f 90/90/90 93/93/93 94/94/94
f 94/94/94 95/95/95 90/90/90
f 95/95/95 94/94/94 96/96/96
f 96/96/96 97/97/97 95/95/95
f 92/92/92 95/95/95 97/97/97
f 97/97/97 99/99/99 92/92/92
f 98/98/98 91/91/91 100/100/100
f 100/100/100 101/101/101 98/98/98
f 102/102/102 92/92/92 99/99/99
f 99/99/99 103/103/103 102/102/102
f 101/101/101 100/100/100 104/104/104
f 104/104/104 105/105/105 101/101/101
f 100/100/100 89/89/89 106/106/106
f 106/106/106 104/104/104 100/100/100
f 107/107/107 87/87/87 102/102/102
f 102/102/102 108/108/108 107/107/107
f 108/108/108 102/102/102 103/103/103
f 103/103/103 109/109/109 108/108/108
f 105/105/105 104/104/104 110/110/110
f 110/110/110 111/111/111 105/105/105
f 112/112/112 108/108/108 109/109/109
f 109/109/109 113/113/113 112/112/112
f 114/114/114 107/107/107 108/108/108
f 108/108/108 112/112/112 114/114/114
f 115/115/115 88/88/88 107/107/107
f 107/107/107 114/114/114 115/115/115
f 116/116/116 112/112/112 113/113/113
f 113/113/113 117/117/117 116/116/116
f 118/118/118 114/114/114 112/112/112
f 112/112/112 116/116/116 118/118/118
f 119/119/119 116/116/116 117/117/117
f 117/117/117 120/120/120 119/119/119
f 121/121/121 119/119/119 120/120/120
f 120/120/120 122/122/122 121/121/121
f 119/119/119 121/121/121 123/123/123
f 123/123/123 124/124/124 119/119/119
f 124/124/124 123/123/123 125/125/125
f 125/125/125 126/126/126 124/124/124
f 118/118/118 124/124/124 126/126/126
f 126/126/126 128/128/128 118/118/118
f 126/126/126 125/125/125 127/127/127
f 127/127/127 129/129/129 126/126/126
f 114/114/114 118/118/118 128/128/128
f 128/128/128 115/115/115 114/114/114
f 128/128/128 126/126/126 129/129/129
f 129/129/129 131/131/131 128/128/128
f 129/129/129 127/127/127 130/130/130
f 130/130/130 132/132/132 129/129/129
f 115/115/115 128/128/128 131/131/131
f 131/131/131 134/134/134 115/115/115
f 131/131/131 129/129/129 132/132/132
f 132/132/132 137/137/137 131/131/131
f 132/132/132 130/130/130 133/133/133
f 133/133/133 135/135/135 132/132/132
f 88/88/88 115/115/115 134/134/134
f 134/134/134 84/84/84 88/88/88
f 135/135/135 133/133/133 136/136/136
f 136/136/136 138/138/138 135/135/135
f 134/134/134 131/131/131 137/137/137
f 137/137/137 141/141/141 134/134/134
f 137/137/137 132/132/132 135/135/135
f 135/135/135 142/142/142 137/137/137
f 138/138/138 136/136/136 139/139/139
f 139/139/139 140/140/140 138/138/138
f 84/84/84 134/134/134 141/141/141
f 141/141/141 148/148/148 84/84/84
f 141/141/141 137/137/137 142/142/142
f 142/142/142 145/145/145 141/141/141
f 143/143/143 138/138/138 140/140/140
f 140/140/140 144/144/144 143/143/143
f 145/145/145 142/142/142 143/143/143
f 143/143/143 146/146/146 145/145/145
f 146/146/146 143/143/143 144/144/144
f 144/144/144 147/147/147 146/146/146
f 148/148/148 141/141/141 145/145/145
f 145/145/145 149/149/149 148/148/148
f 149/149/149 145/145/145 146/146/146
f 146/146/146 150/150/150 149/149/149
f 150/150/150 146/146/146 147/147/147
f 147/147/147 151/151/151 150/150/150
f 152/152/152 154/154/154 153/153/153
f 153/153/153 155/155/155 152/152/152
f 155/155/155 153/153/153 111/111/111
f 111/111/111 110/110/110 155/155/155
f 156/156/156 152/152/152 155/155/155
f 155/155/155 157/157/157 156/156/156
f 158/158/158 156/156/156 157/157/157
f 157/157/157 160/160/160 158/158/158
f 159/159/159 110/110/110 104/104/104
f 104/104/104 106/106/106 159/159/159
f 160/160/160 157/157/157 159/159/159
f 159/159/159 161/161/161 160/160/160
f 151/151/151 158/158/158 160/160/160
f 160/160/160 150/150/150 151/151/151
f 150/150/150 160/160/160 161/161/161
f 161/161/161 149/149/149 150/150/150
f 161/161/161 159/159/159 106/106/106
f 106/106/106 162/162/162 161/161/161
f 149/149/149 161/161/161 162/162/162
f 162/162/162 148/148/148 149/149/149
f 162/162/162 106/106/106 89/89/89
f 89/89/89 83/83/83 162/162/162
f 148/148/148 162/162/162 83/83/83
f 83/83/83 84/84/84 148/148/148
f 38/163/38 69/165/69 163/164/163
f 163/164/163 164/166/164 38/163/38
f 31/167/31 38/163/38 164/166/164
f 164/166/164 166/169/166 31/167/31
f 164/166/164 163/164/163 165/168/165
f 165/168/165 167/171/167 164/166/164
f 25/170/25 31/167/31 166/169/166
f 166/169/166 169/173/169 25/170/25
f 166/169/166 164/166/164 167/171/167
f 167/171/167 172/177/172 166/169/166
f 167/171/167 165/168/165 168/172/168
f 168/172/168 170/175/170 167/171/167
f 21/174/21 25/170/25 169/173/169
f 169/173/169 173/178/173 21/174/21
f 170/175/170 168/172/168 171/176/171
f 171/176/171 174/180/174 170/175/170
f 169/173/169 166/169/166 172/177/172
f 172/177/172 177/183/177 169/173/169
f 172/177/172 167/171/167 170/175/170
f 170/175/170 176/182/176 172/177/172
f 18/179/18 21/174/21 173/178/173
f 173/178/173 178/184/178 18/179/18
f 174/180/174 171/176/171 175/181/175
f 175/181/175 179/186/179 174/180/174
f 176/182/176 170/175/170 174/180/174
f 174/180/174 182/189/182 176/182/176
f 173/178/173 169/173/169 177/183/177
f 177/183/177 181/188/181 173/178/173
f 177/183/177 172/177/172 176/182/176
f 176/182/176 183/190/183 177/183/177
f 14/185/14 18/179/18 178/184/178
f 178/184/178 184/191/184 14/185/14
f 179/186/179 175/181/175 180/187/180
f 180/187/180 185/193/185 179/186/179
f 178/184/178 173/178/173 181/188/181
f 181/188/181 186/194/186 178/184/178
f 182/189/182 174/180/174 179/186/179
f 179/186/179 189/197/189 182/189/182
f 181/188/181 177/183/177 183/190/183
f 183/190/183 187/195/187 181/188/181
f 183/190/183 176/182/176 182/189/182
f 182/189/182 188/196/188 183/190/183
f 15/192/15 14/185/14 184/191/184
f 184/191/184 190/198/190 15/192/15
f 184/191/184 178/184/178 186/194/186
f 186/194/186 192/201/192 184/191/184
f 186/194/186 181/188/181 187/195/187
f 187/195/187 195/204/195 186/194/186
f 187/195/187 183/190/183 188/196/188
f 188/196/188 196/205/196 187/195/187
f 189/197/189 179/186/179 185/193/185
f 185/193/185 206/215/206 189/197/189
f 188/196/188 182/189/182 189/197/189
f 189/197/189 197/206/197 188/196/188
f 16/199/16 15/192/15 190/198/190
f 190/198/190 191/200/191 16/199/16
f 190/198/190 184/191/184 192/201/192
f 192/201/192 193/202/193 190/198/190
f 191/200/191 190/198/190 193/202/193
f 193/202/193 194/203/194 191/200/191
f 192/201/192 186/194/186 195/204/195
f 195/204/195 200/209/200 192/201/192
f 195/204/195 187/195/187 196/205/196
f 196/205/196 201/210/201 195/204/195
f 196/205/196 188/196/188 197/206/197
f 197/206/197 205/214/205 196/205/196
f 194/203/194 193/202/193 198/207/198
f 198/207/198 199/208/199 194/203/194
f 193/202/193 192/201/192 200/209/200
f 200/209/200 198/207/198 193/202/193
f 200/209/200 195/204/195 201/210/201
f 201/210/201 204/213/204 200/209/200
f 199/208/199 198/207/198 202/211/202
f 202/211/202 203/212/203 199/208/199
f 198/207/198 200/209/200 204/213/204
f 204/213/204 202/211/202 198/207/198
f 201/210/201 196/205/196 205/214/205
f 205/214/205 210/219/210 201/210/201
f 197/206/197 189/197/189 206/215/206
f 206/215/206 211/220/211 197/206/197
f 203/212/203 202/211/202 207/216/207
f 207/216/207 208/217/208 203/212/203
f 202/211/202 204/213/204 209/218/209
f 209/218/209 207/216/207 202/211/202
f 204/213/204 201/210/201 210/219/210
f 210/219/210 209/218/209 204/213/204
f 205/214/205 197/206/197 211/220/211
f 211/220/211 216/229/216 205/214/205
f 213/223/213 212/222/212 122/221/122
f 122/221/122 120/224/120 213/223/213
f 214/225/214 213/223/213 120/224/120
f 120/224/120 117/226/117 214/225/214
f 215/227/215 214/225/214 117/226/117
f 117/226/117 113/228/113 215/227/215
f 210/219/210 205/214/205 216/229/216
f 216/229/216 218/232/218 210/219/210
f 217/230/217 215/227/215 113/228/113
f 113/228/113 109/231/109 217/230/217
f 209/218/209 210/219/210 218/232/218
f 218/232/218 220/235/220 209/218/209
f 219/233/219 217/230/217 109/231/109
f 109/231/109 103/234/103 219/233/219
f 207/216/207 209/218/209 220/235/220
f 220/235/220 222/238/222 207/216/207
f 221/236/221 219/233/219 103/234/103
f 103/234/103 99/237/99 221/236/221
f 208/217/208 207/216/207 222/238/222
f 222/238/222 223/239/223 208/217/208
f 224/240/224 221/236/221 99/237/99
f 99/237/99 97/241/97 224/240/224
f 225/242/225 224/240/224 97/241/97
f 97/241/97 96/243/96 225/242/225
f 72/163/72 74/245/74 226/244/226
f 226/244/226 227/166/227 72/163/72
f 70/167/70 72/163/72 227/166/227
f 227/166/227 229/247/229 70/167/70
f 227/166/227 226/244/226 228/246/228
f 228/246/228 230/171/230 227/166/227
f 65/170/65 70/167/70 229/247/229
f 229/247/229 232/173/232 65/170/65
f 229/247/229 227/166/227 230/171/230
f 230/171/230 235/248/235 229/247/229
f 230/171/230 228/246/228 231/172/231
f 231/172/231 233/175/233 230/171/230
f 64/174/64 65/170/65 232/173/232
f 232/173/232 236/178/236 64/174/64
f 233/175/233 231/172/231 234/176/234
f 234/176/234 237/180/237 233/175/233
f 232/173/232 229/247/229 235/248/235
f 235/248/235 240/183/240 232/173/232
f 235/248/235 230/171/230 233/175/233
f 233/175/233 239/182/239 235/248/235
f 66/249/66 64/174/64 236/178/236
f 236/178/236 241/184/241 66/249/66
f 237/180/237 234/176/234 238/181/238
f 238/181/238 242/186/242 237/180/237
f 239/182/239 233/175/233 237/180/237
f 237/180/237 245/251/245 239/182/239
f 236/178/236 232/173/232 240/183/240
f 240/183/240 244/188/244 236/178/236
f 240/183/240 235/248/235 239/182/239
f 239/182/239 246/190/246 240/183/240
f 67/250/67 66/249/66 241/184/241
f 241/184/241 247/191/247 67/250/67
f 242/186/242 238/181/238 243/187/243
f 243/187/243 248/193/248 242/186/242
f 241/184/241 236/178/236 244/188/244
f 244/188/244 249/194/249 241/184/241
f 245/251/245 237/180/237 242/186/242
f 242/186/242 252/197/252 245/251/245
f 244/188/244 240/183/240 246/190/246
f 246/190/246 250/195/250 244/188/244
f 246/190/246 239/182/239 245/251/245
f 245/251/245 251/196/251 246/190/246
f 68/192/68 67/250/67 247/191/247
f 247/191/247 253/198/253 68/192/68
f 247/191/247 241/184/241 249/194/249
f 249/194/249 254/201/254 247/191/247
f 249/194/249 244/188/244 250/195/250
f 250/195/250 256/204/256 249/194/249
f 250/195/250 246/190/246 251/196/251
f 251/196/251 257/205/257 250/195/250
f 252/197/252 242/186/242 248/193/248
f 248/193/248 265/215/265 252/197/252
f 251/196/251 245/251/245 252/197/252
f 252/197/252 258/206/258 251/196/251
f 69/199/69 68/192/68 253/198/253
f 253/198/253 163/200/163 69/199/69
f 253/198/253 247/191/247 254/201/254
f 254/201/254 255/202/255 253/198/253
f 163/200/163 253/198/253 255/202/255
f 255/202/255 165/203/165 163/200/163
f 254/201/254 249/194/249 256/204/256
f 256/204/256 260/209/260 254/201/254
f 256/204/256 250/195/250 257/205/257
f 257/205/257 261/252/261 256/204/256
f 257/205/257 251/196/251 258/206/258
f 258/206/258 264/214/264 257/205/257
f 165/203/165 255/202/255 259/207/259
f 259/207/259 168/208/168 165/203/165
f 255/202/255 254/201/254 260/209/260
f 260/209/260 259/207/259 255/202/255
f 260/209/260 256/204/256 261/252/261
f 261/252/261 263/254/263 260/209/260
f 168/208/168 259/207/259 262/253/262
f 262/253/262 171/21/171 168/208/168
f 259/207/259 260/209/260 263/254/263
f 263/254/263 262/253/262 259/207/259
f 261/252/261 257/205/257 264/214/264
f 264/214/264 268/257/268 261/252/261
f 258/206/258 252/197/252 265/215/265
f 265/215/265 269/258/269 258/206/258
f 171/21/171 262/253/262 266/216/266
f 266/216/266 175/255/175 171/21/171
f 262/253/262 263/254/263 267/256/267
f 267/256/267 266/216/266 262/253/262
f 263/254/263 261/252/261 268/257/268
f 268/257/268 267/256/267 263/254/263
f 264/214/264 258/206/258 269/258/269
f 269/258/269 274/229/274 264/214/264
f 271/223/271 270/260/270 139/259/139
f 139/259/139 136/224/136 271/223/271
f 272/225/272 271/223/271 136/224/136
f 136/224/136 133/226/133 272/225/272
f 273/227/273 272/225/272 133/226/133
f 133/226/133 130/228/130 273/227/273
f 268/257/268 264/214/264 274/229/274
f 274/229/274 276/232/276 268/257/268
f 275/230/275 273/227/273 130/228/130
f 130/228/130 127/231/127 275/230/275
f 267/256/267 268/257/268 276/232/276
f 276/232/276 278/32/278 267/256/267
f 277/233/277 275/230/275 127/231/127
f 127/231/127 125/261/125 277/233/277
f 266/216/266 267/256/267 278/32/278
f 278/32/278 280/30/280 266/216/266
f 279/262/279 277/233/277 125/261/125
f 125/261/125 123/263/123 279/262/279
f 175/255/175 266/216/266 280/30/280
f 280/30/280 180/239/180 175/255/175
f 281/240/281 279/262/279 123/263/123
f 123/263/123 121/241/121 281/240/281
f 212/242/212 281/240/281 121/241/121
f 121/241/121 122/243/122 212/242/212
f 81/249/81 47/174/47 282/178/282
f 282/178/282 283/184/283 81/249/81
f 78/250/78 81/249/81 283/184/283
f 283/184/283 285/191/285 78/250/78
f 283/184/283 282/178/282 284/188/284
f 284/188/284 286/194/286 283/184/283
f 75/192/75 78/250/78 285/191/285
f 285/191/285 288/198/288 75/192/75
f 285/191/285 283/184/283 286/194/286
f 286/194/286 289/201/289 285/191/285
f 286/194/286 284/188/284 287/195/287
f 287/195/287 290/204/290 286/194/286
f 74/199/74 75/192/75 288/198/288
f 288/198/288 226/200/226 74/199/74
f 288/198/288 285/191/285 289/201/289
f 289/201/289 292/202/292 288/198/288
f 289/201/289 286/194/286 290/204/290
f 290/204/290 293/209/293 289/201/289
f 290/204/290 287/195/287 291/205/291
f 291/205/291 294/252/294 290/204/290
f 226/200/226 288/198/288 292/202/292
f 292/202/292 228/203/228 226/200/226
f 292/202/292 289/201/289 293/209/293
f 293/209/293 296/207/296 292/202/292
f 293/209/293 290/204/290 294/252/294
f 294/252/294 299/254/299 293/209/293
f 294/252/294 291/205/291 295/214/295
f 295/214/295 297/257/297 294/252/294
f 228/203/228 292/202/292 296/207/296
f 296/207/296 231/208/231 228/203/228
f 297/257/297 295/214/295 298/229/298
f 298/229/298 301/232/301 297/257/297
f 296/207/296 293/209/293 299/254/299
f 299/254/299 300/253/300 296/207/296
f 299/254/299 294/252/294 297/257/297
f 297/257/297 302/256/302 299/254/299
f 231/208/231 296/207/296 300/253/300
f 300/253/300 234/21/234 231/208/231
f 300/253/300 299/254/299 302/256/302
f 302/256/302 303/216/303 300/253/300
f 302/256/302 297/257/297 301/232/301
f 301/232/301 306/32/306 302/256/302
f 234/21/234 300/253/300 303/216/303
f 303/216/303 238/255/238 234/21/234
f 305/233/305 304/230/304 151/231/151
f 151/231/151 147/261/147 305/233/305
f 303/216/303 302/256/302 306/32/306
f 306/32/306 307/30/307 303/216/303
f 238/255/238 303/216/303 307/30/307
f 307/30/307 243/239/243 238/255/238
f 308/262/308 305/233/305 147/261/147
f 147/261/147 144/263/144 308/262/308
f 309/240/309 308/262/308 144/263/144
f 144/263/144 140/241/140 309/240/309
f 270/242/270 309/240/309 140/241/140
f 140/241/140 139/243/139 270/242/270
f 52/163/52 54/245/54 310/244/310
f 310/244/310 311/166/311 52/163/52
f 50/167/50 52/163/52 311/166/311
f 311/166/311 313/247/313 50/167/50
f 311/166/311 310/244/310 312/246/312
f 312/246/312 314/171/314 311/166/311
f 48/170/48 50/167/50 313/247/313
f 313/247/313 316/173/316 48/170/48
f 313/247/313 311/166/311 314/171/314
f 314/171/314 319/248/319 313/247/313
f 314/171/314 312/246/312 315/172/315
f 315/172/315 317/175/317 314/171/314
f 47/174/47 48/170/48 316/173/316
f 316/173/316 282/178/282 47/174/47
f 317/175/317 315/172/315 318/264/318
f 318/264/318 321/265/321 317/175/317
f 316/173/316 313/247/313 319/248/319
f 319/248/319 320/183/320 316/173/316
f 319/248/319 314/171/314 317/175/317
f 317/175/317 323/182/323 319/248/319
f 282/178/282 316/173/316 320/183/320
f 320/183/320 284/188/284 282/178/282
f 321/265/321 318/264/318 322/181/322
f 322/181/322 325/186/325 321/265/321
f 320/183/320 319/248/319 323/182/323
f 323/182/323 324/190/324 320/183/320
f 323/182/323 317/175/317 321/265/321
f 321/265/321 327/266/327 323/182/323
f 284/188/284 320/183/320 324/190/324
f 324/190/324 287/195/287 284/188/284
f 325/186/325 322/181/322 326/187/326
f 326/187/326 329/193/329 325/186/325
f 324/190/324 323/182/323 327/266/327
f 327/266/327 328/267/328 324/190/324
f 327/266/327 321/265/321 325/186/325
f 325/186/325 330/197/330 327/266/327
f 287/195/287 324/190/324 328/267/328
f 328/267/328 291/205/291 287/195/287
f 328/267/328 327/266/327 330/197/330
f 330/197/330 331/206/331 328/267/328
f 330/197/330 325/186/325 329/193/329
f 329/193/329 334/215/334 330/197/330
f 291/205/291 328/267/328 331/206/331
f 331/206/331 295/214/295 291/205/291
f 333/223/333 332/260/332 154/259/154
f 154/259/154 152/224/152 333/223/333
f 331/206/331 330/197/330 334/215/334
f 334/215/334 335/258/335 331/206/331
f 295/214/295 331/206/331 335/258/335
f 335/258/335 298/229/298 295/214/295
f 336/225/336 333/223/333 152/224/152
f 152/224/152 156/226/156 336/225/336
f 337/227/337 336/225/336 156/226/156
f 156/226/156 158/228/158 337/227/337
f 304/230/304 337/227/337 158/228/158
f 158/228/158 151/231/151 304/230/304
f 17/163/17 16/165/16 191/164/191
f 191/164/191 338/166/338 17/163/17
f 19/167/19 17/163/17 338/166/338
f 338/166/338 339/169/339 19/167/19
f 338/166/338 191/164/191 194/168/194
f 194/168/194 340/171/340 338/166/338
f 23/170/23 19/167/19 339/169/339
f 339/169/339 341/173/341 23/170/23
f 339/169/339 338/166/338 340/171/340
f 340/171/340 343/177/343 339/169/339
f 340/171/340 194/168/194 199/172/199
f 199/172/199 342/175/342 340/171/340
f 29/174/29 23/170/23 341/173/341
f 341/173/341 344/178/344 29/174/29
f 342/175/342 199/172/199 203/264/203
f 203/264/203 345/265/345 342/175/342
f 341/173/341 339/169/339 343/177/343
f 343/177/343 347/183/347 341/173/341
f 343/177/343 340/171/340 342/175/342
f 342/175/342 346/182/346 343/177/343
f 34/179/34 29/174/29 344/178/344
f 344/178/344 348/184/348 34/179/34
f 345/265/345 203/264/203 208/181/208
f 208/181/208 349/186/349 345/265/345
f 346/182/346 342/175/342 345/265/345
f 345/265/345 351/266/351 346/182/346
f 344/178/344 341/173/341 347/183/347
f 347/183/347 350/188/350 344/178/344
f 347/183/347 343/177/343 346/182/346
f 346/182/346 352/190/352 347/183/347
f 40/185/40 34/179/34 348/184/348
f 348/184/348 353/191/353 40/185/40
f 349/186/349 208/181/208 223/187/223
f 223/187/223 354/193/354 349/186/349
f 348/184/348 344/178/344 350/188/350
f 350/188/350 355/194/355 348/184/348
f 351/266/351 345/265/345 349/186/349
f 349/186/349 358/197/358 351/266/351
f 350/188/350 347/183/347 352/190/352
f 352/190/352 356/195/356 350/188/350
f 352/190/352 346/182/346 351/266/351
f 351/266/351 357/267/357 352/190/352
f 53/192/53 40/185/40 353/191/353
f 353/191/353 359/198/359 53/192/53
f 353/191/353 348/184/348 355/194/355
f 355/194/355 360/201/360 353/191/353
f 355/194/355 350/188/350 356/195/356
f 356/195/356 362/204/362 355/194/355
f 356/195/356 352/190/352 357/267/357
f 357/267/357 363/205/363 356/195/356
f 358/197/358 349/186/349 354/193/354
f 354/193/354 371/215/371 358/197/358
f 357/267/357 351/266/351 358/197/358
f 358/197/358 364/206/364 357/267/357
f 54/199/54 53/192/53 359/198/359
f 359/198/359 310/200/310 54/199/54
f 359/198/359 353/191/353 360/201/360
f 360/201/360 361/202/361 359/198/359
f 310/200/310 359/198/359 361/202/361
f 361/202/361 312/203/312 310/200/310
f 360/201/360 355/194/355 362/204/362
f 362/204/362 366/209/366 360/201/360
f 362/204/362 356/195/356 363/205/363
f 363/205/363 367/210/367 362/204/362
f 363/205/363 357/267/357 364/206/364
f 364/206/364 370/214/370 363/205/363
f 312/203/312 361/202/361 365/207/365
f 365/207/365 315/208/315 312/203/312
f 361/202/361 360/201/360 366/209/366
f 366/209/366 365/207/365 361/202/361
f 366/209/366 362/204/362 367/210/367
f 367/210/367 369/213/369 366/209/366
f 315/208/315 365/207/365 368/211/368
f 368/211/368 318/212/318 315/208/315
f 365/207/365 366/209/366 369/213/369
f 369/213/369 368/211/368 365/207/365
f 367/210/367 363/205/363 370/214/370
f 370/214/370 374/219/374 367/210/367
f 364/206/364 358/197/358 371/215/371
f 371/215/371 375/220/375 364/206/364
f 318/212/318 368/211/368 372/216/372
f 372/216/372 322/217/322 318/212/318
f 368/211/368 369/213/369 373/218/373
f 373/218/373 372/216/372 368/211/368
f 369/213/369 367/210/367 374/219/374
f 374/219/374 373/218/373 369/213/369
f 370/214/370 364/206/364 375/220/375
f 375/220/375 379/229/379 370/214/370
f 376/223/376 225/222/225 96/221/96
f 96/221/96 94/224/94 376/223/376
f 377/225/377 376/223/376 94/224/94
f 94/224/94 93/226/93 377/225/377
f 378/227/378 377/225/377 93/226/93
f 93/226/93 98/228/98 378/227/378
f 374/219/374 370/214/370 379/229/379
f 379/229/379 381/232/381 374/219/374
f 380/230/380 378/227/378 98/228/98
f 98/228/98 101/231/101 380/230/380
f 373/218/373 374/219/374 381/232/381
f 381/232/381 383/235/383 373/218/373
f 382/233/382 380/230/380 101/231/101
f 101/231/101 105/234/105 382/233/382
f 372/216/372 373/218/373 383/235/383
f 383/235/383 385/238/385 372/216/372
f 384/236/384 382/233/382 105/234/105
f 105/234/105 111/237/111 384/236/384
f 322/217/322 372/216/372 385/238/385
f 385/238/385 326/239/326 322/217/322
f 386/240/386 384/236/384 111/237/111
f 111/237/111 153/241/153 386/240/386
f 332/242/332 386/240/386 153/241/153
f 153/241/153 154/243/154 332/242/332
f 387/268/387 185/193/185 180/187/180
f 180/187/180 388/269/388 387/268/387
f 389/270/389 387/268/387 388/269/388
f 388/269/388 390/271/388 389/270/389
f 391/272/390 389/270/389 390/271/388
f 390/271/388 392/273/388 391/272/390
f 393/274/391 391/272/390 392/273/388
f 392/273/388 394/275/388 393/274/391
f 395/276/392 206/215/206 185/193/185
f 185/193/185 387/268/387 395/276/392
f 396/277/393 395/276/392 387/268/387
f 387/268/387 389/270/389 396/277/393
f 397/278/394 396/277/393 389/270/389
f 389/270/389 391/272/390 397/278/394
f 398/279/395 397/278/394 391/272/390
f 391/272/390 393/274/391 398/279/395
f 399/280/396 211/220/211 206/215/206
f 206/215/206 395/276/392 399/280/396
f 400/281/397 399/280/396 395/276/392
f 395/276/392 396/277/393 400/281/397
f 401/282/398 400/281/397 396/277/393
f 396/277/393 397/278/394 401/282/398
f 402/283/399 401/282/398 397/278/394
f 397/278/394 398/279/395 402/283/399
f 403/284/400 216/229/216 211/220/211
f 211/220/211 399/280/396 403/284/400
f 404/285/400 403/284/400 399/280/396
f 399/280/396 400/281/397 404/285/400
f 405/286/400 404/285/400 400/281/397
f 400/281/397 401/282/398 405/286/400
f 406/287/400 405/286/400 401/282/398
f 401/282/398 402/283/399 406/287/400
f 405/286/400 406/287/400 407/288/401
f 407/288/401 408/289/402 405/286/400
f 404/285/400 405/286/400 408/289/402
f 408/289/402 409/290/403 404/285/400
f 403/284/400 404/285/400 409/290/403
f 409/290/403 410/291/404 403/284/400
f 216/229/216 403/284/400 410/291/404
f 410/291/404 218/232/218 216/229/216
f 408/289/402 407/288/401 411/292/405
f 411/292/405 412/293/406 408/289/402
f 409/290/403 408/289/402 412/293/406
f 412/293/406 413/294/407 409/290/403
f 410/291/404 409/290/403 413/294/407
f 413/294/407 414/295/408 410/291/404
f 218/232/218 410/291/404 414/295/408
f 414/295/408 220/235/220 218/232/218
f 412/293/406 411/292/405 415/296/409
f 415/296/409 416/297/410 412/293/406
f 413/294/407 412/293/406 416/297/410
f 416/297/410 417/298/411 413/294/407
f 414/295/408 413/294/407 417/298/411
f 417/298/411 418/299/412 414/295/408
f 220/235/220 414/295/408 418/299/412
f 418/299/412 222/238/222 220/235/220
f 416/297/410 415/296/409 419/300/413
f 419/300/413 420/301/413 416/297/410
f 417/298/411 416/297/410 420/301/413
f 420/301/413 421/302/413 417/298/411
f 418/299/412 417/298/411 421/302/413
f 421/302/413 422/303/413 418/299/412
f 222/238/222 418/299/412 422/303/413
f 422/303/413 223/239/223 222/238/222
f 423/304/414 248/193/248 243/187/243
f 243/187/243 424/305/415 423/304/414
f 425/270/416 423/304/414 424/305/415
f 424/305/415 426/306/415 425/270/416
f 427/272/417 425/270/416 426/306/415
f 426/306/415 428/273/415 427/272/417
f 429/307/418 427/272/417 428/273/415
f 428/273/415 430/275/415 429/307/418
f 431/308/419 265/215/265 248/193/248
f 248/193/248 423/304/414 431/308/419
f 432/277/420 431/308/419 423/304/414
f 423/304/414 425/270/416 432/277/420
f 433/309/421 432/277/420 425/270/416
f 425/270/416 427/272/417 433/309/421
f 434/279/422 433/309/421 427/272/417
f 427/272/417 429/307/418 434/279/422
f 435/280/423 269/258/269 265/215/265
f 265/215/265 431/308/419 435/280/423
f 436/281/424 435/280/423 431/308/419
f 431/308/419 432/277/420 436/281/424
f 437/282/425 436/281/424 432/277/420
f 432/277/420 433/309/421 437/282/425
f 438/283/426 437/282/425 433/309/421
f 433/309/421 434/279/422 438/283/426
f 439/284/427 274/229/274 269/258/269
f 269/258/269 435/280/423 439/284/427
f 440/285/427 439/284/427 435/280/423
f 435/280/423 436/281/424 440/285/427
f 441/286/427 440/285/427 436/281/424
f 436/281/424 437/282/425 441/286/427
f 442/287/427 441/286/427 437/282/425
f 437/282/425 438/283/426 442/287/427
f 441/286/427 442/287/427 443/310/428
f 443/310/428 444/289/429 441/286/427
f 440/285/427 441/286/427 444/289/429
f 444/289/429 445/290/430 440/285/427
f 439/284/427 440/285/427 445/290/430
f 445/290/430 446/291/431 439/284/427
f 274/229/274 439/284/427 446/291/431
f 446/291/431 276/232/276 274/229/274
f 444/289/429 443/310/428 447/311/432
f 447/311/432 448/293/433 444/289/429
f 445/290/430 444/289/429 448/293/433
f 448/293/433 449/312/434 445/290/430
f 446/291/431 445/290/430 449/312/434
f 449/312/434 450/295/435 446/291/431
f 276/232/276 446/291/431 450/295/435
f 450/295/435 278/32/278 276/232/276
f 448/293/433 447/311/432 451/296/436
f 451/296/436 452/313/437 448/293/433
f 449/312/434 448/293/433 452/313/437
f 452/313/437 453/298/438 449/312/434
f 450/295/435 449/312/434 453/298/438
f 453/298/438 454/299/439 450/295/435
f 278/32/278 450/295/435 454/299/439
f 454/299/439 280/30/280 278/32/278
f 452/313/437 451/296/436 394/314/388
f 394/314/388 392/301/388 452/313/437
f 453/298/438 452/313/437 392/301/388
f 392/301/388 390/302/388 453/298/438
f 454/299/439 453/298/438 390/302/388
f 390/302/388 388/303/388 454/299/439
f 280/30/280 454/299/439 388/303/388
f 388/303/388 180/239/180 280/30/280
f 457/289/441 456/286/440 455/287/440
f 455/287/440 458/310/442 457/289/441
f 460/290/443 459/285/440 456/286/440
f 456/286/440 457/289/441 460/290/443
f 462/291/444 461/284/440 459/285/440
f 459/285/440 460/290/443 462/291/444
f 301/232/301 298/229/298 461/284/440
f 461/284/440 462/291/444 301/232/301
f 463/293/445 457/289/441 458/310/442
f 458/310/442 464/311/446 463/293/445
f 465/312/447 460/290/443 457/289/441
f 457/289/441 463/293/445 465/312/447
f 466/295/448 462/291/444 460/290/443
f 460/290/443 465/312/447 466/295/448
f 306/32/306 301/232/301 462/291/444
f 462/291/444 466/295/448 306/32/306
f 467/313/449 463/293/445 464/311/446
f 464/311/446 468/296/450 467/313/449
f 469/298/451 465/312/447 463/293/445
f 463/293/445 467/313/449 469/298/451
f 470/299/452 466/295/448 465/312/447
f 465/312/447 469/298/451 470/299/452
f 307/30/307 306/32/306 466/295/448
f 466/295/448 470/299/452 307/30/307
f 428/301/415 467/313/449 468/296/450
f 468/296/450 430/314/415 428/301/415
f 426/302/415 469/298/451 467/313/449
f 467/313/449 428/301/415 426/302/415
f 424/303/415 470/299/452 469/298/451
f 469/298/451 426/302/415 424/303/415
f 243/239/243 307/30/307 470/299/452
f 470/299/452 424/303/415 243/239/243
f 473/272/454 472/273/453 471/275/453
f 471/275/453 474/307/455 473/272/454
f 476/270/456 475/306/453 472/273/453
f 472/273/453 473/272/454 476/270/456
f 478/304/457 477/305/453 475/306/453
f 475/306/453 476/270/456 478/304/457
f 329/193/329 326/187/326 477/305/453
f 477/305/453 478/304/457 329/193/329
f 479/309/458 473/272/454 474/307/455
f 474/307/455 480/279/459 479/309/458
f 481/277/460 476/270/456 473/272/454
f 473/272/454 479/309/458 481/277/460
f 482/308/461 478/304/457 476/270/456
f 476/270/456 481/277/460 482/308/461
f 334/215/334 329/193/329 478/304/457
f 478/304/457 482/308/461 334/215/334
f 483/282/462 479/309/458 480/279/459
f 480/279/459 484/283/463 483/282/462
f 485/281/464 481/277/460 479/309/458
f 479/309/458 483/282/462 485/281/464
f 486/280/465 482/308/461 481/277/460
f 481/277/460 485/281/464 486/280/465
f 335/258/335 334/215/334 482/308/461
f 482/308/461 486/280/465 335/258/335
f 456/286/440 483/282/462 484/283/463
f 484/283/463 455/287/440 456/286/440
f 459/285/440 485/281/464 483/282/462
f 483/282/462 456/286/440 459/285/440
f 461/284/440 486/280/465 485/281/464
f 485/281/464 459/285/440 461/284/440
f 298/229/298 335/258/335 486/280/465
f 486/280/465 461/284/440 298/229/298
f 487/272/466 420/273/413 419/275/413
f 419/275/413 488/274/467 487/272/466
f 489/270/468 421/271/413 420/273/413
f 420/273/413 487/272/466 489/270/468
f 490/268/469 422/269/413 421/271/413
f 421/271/413 489/270/468 490/268/469
f 354/193/354 223/187/223 422/269/413
f 422/269/413 490/268/469 354/193/354
f 491/278/470 487/272/466 488/274/467
f 488/274/467 492/279/471 491/278/470
f 493/277/472 489/270/468 487/272/466
f 487/272/466 491/278/470 493/277/472
f 494/276/473 490/268/469 489/270/468
f 489/270/468 493/277/472 494/276/473
f 371/215/371 354/193/354 490/268/469
f 490/268/469 494/276/473 371/215/371
f 495/282/474 491/278/470 492/279/471
f 492/279/471 496/283/475 495/282/474
f 497/281/476 493/277/472 491/278/470
f 491/278/470 495/282/474 497/281/476
f 498/280/477 494/276/473 493/277/472
f 493/277/472 497/281/476 498/280/477
f 375/220/375 371/215/371 494/276/473
f 494/276/473 498/280/477 375/220/375
f 499/286/478 495/282/474 496/283/475
f 496/283/475 500/287/478 499/286/478
f 501/285/478 497/281/476 495/282/474
f 495/282/474 499/286/478 501/285/478
f 502/284/478 498/280/477 497/281/476
f 497/281/476 501/285/478 502/284/478
f 379/229/379 375/220/375 498/280/477
f 498/280/477 502/284/478 379/229/379
f 503/289/479 499/286/478 500/287/478
f 500/287/478 504/288/480 503/289/479
f 505/290/481 501/285/478 499/286/478
f 499/286/478 503/289/479 505/290/481
f 506/291/482 502/284/478 501/285/478
f 501/285/478 505/290/481 506/291/482
f 381/232/381 379/229/379 502/284/478
f 502/284/478 506/291/482 381/232/381
f 507/293/483 503/289/479 504/288/480
f 504/288/480 508/292/484 507/293/483
f 509/294/485 505/290/481 503/289/479
f 503/289/479 507/293/483 509/294/485
f 510/295/486 506/291/482 505/290/481
f 505/290/481 509/294/485 510/295/486
f 383/235/383 381/232/381 506/291/482
f 506/291/482 510/295/486 383/235/383
f 511/297/487 507/293/483 508/292/484
f 508/292/484 512/296/488 511/297/487
f 513/298/489 509/294/485 507/293/483
f 507/293/483 511/297/487 513/298/489
f 514/299/490 510/295/486 509/294/485
f 509/294/485 513/298/489 514/299/490
f 385/238/385 383/235/383 510/295/486
f 510/295/486 514/299/490 385/238/385
f 472/301/453 511/297/487 512/296/488
f 512/296/488 471/300/453 472/301/453
f 475/302/453 513/298/489 511/297/487
f 511/297/487 472/301/453 475/302/453
f 477/303/453 514/299/490 513/298/489
f 513/298/489 475/302/453 477/303/453
f 326/239/326 385/238/385 514/299/490
f 514/299/490 477/303/453 326/239/326
f 515/315/491 393/274/391 394/275/388
f 394/275/388 516/316/492 515/315/491
f 517/317/493 515/315/491 516/316/492
f 516/316/492 518/318/492 517/317/493
f 519/319/494 517/317/493 518/318/492
f 518/318/492 520/320/492 519/319/494
f 213/223/213 519/319/494 520/320/492
f 520/320/492 212/222/212 213/223/213
f 521/321/495 398/279/395 393/274/391
f 393/274/391 515/315/491 521/321/495
f 522/322/496 521/321/495 515/315/491
f 515/315/491 517/317/493 522/322/496
f 523/323/497 522/322/496 517/317/493
f 517/317/493 519/319/494 523/323/497
f 214/225/214 523/323/497 519/319/494
f 519/319/494 213/223/213 214/225/214
f 524/324/498 402/283/399 398/279/395
f 398/279/395 521/321/495 524/324/498
f 525/325/499 524/324/498 521/321/495
f 521/321/495 522/322/496 525/325/499
f 526/326/500 525/325/499 522/322/496
f 522/322/496 523/323/497 526/326/500
f 215/227/215 526/326/500 523/323/497
f 523/323/497 214/225/214 215/227/215
f 527/327/400 406/287/400 402/283/399
f 402/283/399 524/324/498 527/327/400
f 528/328/400 527/327/400 524/324/498
f 524/324/498 525/325/499 528/328/400
f 529/329/400 528/328/400 525/325/499
f 525/325/499 526/326/500 529/329/400
f 217/230/217 529/329/400 526/326/500
f 526/326/500 215/227/215 217/230/217
f 529/329/400 217/230/217 219/233/219
f 219/233/219 530/330/501 529/329/400
f 528/328/400 529/329/400 530/330/501
f 530/330/501 531/331/502 528/328/400
f 527/327/400 528/328/400 531/331/502
f 531/331/502 532/332/503 527/327/400
f 406/287/400 527/327/400 532/332/503
f 532/332/503 407/288/401 406/287/400
f 530/330/501 219/233/219 221/236/221
f 221/236/221 533/333/504 530/330/501
f 531/331/502 530/330/501 533/333/504
f 533/333/504 534/334/505 531/331/502
f 532/332/503 531/331/502 534/334/505
f 534/334/505 535/335/506 532/332/503
f 407/288/401 532/332/503 535/335/506
f 535/335/506 411/292/405 407/288/401
f 533/333/504 221/236/221 224/240/224
f 224/240/224 536/336/507 533/333/504
f 534/334/505 533/333/504 536/336/507
f 536/336/507 537/337/508 534/334/505
f 535/335/506 534/334/505 537/337/508
f 537/337/508 538/338/509 535/335/506
f 411/292/405 535/335/506 538/338/509
f 538/338/509 415/296/409 411/292/405
f 536/336/507 224/240/224 225/242/225
f 225/242/225 539/339/510 536/336/507
f 537/337/508 536/336/507 539/339/510
f 539/339/510 540/340/510 537/337/508
f 538/338/509 537/337/508 540/340/510
f 540/340/510 541/341/510 538/338/509
f 415/296/409 538/338/509 541/341/510
f 541/341/510 419/300/413 415/296/409
f 542/315/511 429/307/418 430/275/415
f 430/275/415 543/316/512 542/315/511
f 544/317/513 542/315/511 543/316/512
f 543/316/512 545/318/512 544/317/513
f 546/342/514 544/317/513 545/318/512
f 545/318/512 547/320/512 546/342/514
f 271/223/271 546/342/514 547/320/512
f 547/320/512 270/260/270 271/223/271
f 548/343/515 434/279/422 429/307/418
f 429/307/418 542/315/511 548/343/515
f 549/322/516 548/343/515 542/315/511
f 542/315/511 544/317/513 549/322/516
f 550/344/517 549/322/516 544/317/513
f 544/317/513 546/342/514 550/344/517
f 272/225/272 550/344/517 546/342/514
f 546/342/514 271/223/271 272/225/272
f 551/324/518 438/283/426 434/279/422
f 434/279/422 548/343/515 551/324/518
f 552/325/519 551/324/518 548/343/515
f 548/343/515 549/322/516 552/325/519
f 553/326/520 552/325/519 549/322/516
f 549/322/516 550/344/517 553/326/520
f 273/227/273 553/326/520 550/344/517
f 550/344/517 272/225/272 273/227/273
f 554/327/427 442/287/427 438/283/426
f 438/283/426 551/324/518 554/327/427
f 555/328/427 554/327/427 551/324/518
f 551/324/518 552/325/519 555/328/427
f 556/329/427 555/328/427 552/325/519
f 552/325/519 553/326/520 556/329/427
f 275/230/275 556/329/427 553/326/520
f 553/326/520 273/227/273 275/230/275
f 556/329/427 275/230/275 277/233/277
f 277/233/277 557/330/521 556/329/427
f 555/328/427 556/329/427 557/330/521
f 557/330/521 558/345/522 555/328/427
f 554/327/427 555/328/427 558/345/522
f 558/345/522 559/346/523 554/327/427
f 442/287/427 554/327/427 559/346/523
f 559/346/523 443/310/428 442/287/427
f 557/330/521 277/233/277 279/262/279
f 279/262/279 560/333/524 557/330/521
f 558/345/522 557/330/521 560/333/524
f 560/333/524 561/347/525 558/345/522
f 559/346/523 558/345/522 561/347/525
f 561/347/525 562/335/526 559/346/523
f 443/310/428 559/346/523 562/335/526
f 562/335/526 447/311/432 443/310/428
f 560/333/524 279/262/279 281/240/281
f 281/240/281 563/336/527 560/333/524
f 561/347/525 560/333/524 563/336/527
f 563/336/527 564/337/528 561/347/525
f 562/335/526 561/347/525 564/337/528
f 564/337/528 565/338/529 562/335/526
f 447/311/432 562/335/526 565/338/529
f 565/338/529 451/296/436 447/311/432
f 563/336/527 281/240/281 212/242/212
f 212/242/212 520/339/492 563/336/527
f 564/337/528 563/336/527 520/339/492
f 520/339/492 518/340/492 564/337/528
f 565/338/529 564/337/528 518/340/492
f 518/340/492 516/348/492 565/338/529
f 451/296/436 565/338/529 516/348/492
f 516/348/492 394/314/388 451/296/436
f 567/330/530 566/329/440 304/230/304
f 304/230/304 305/233/305 567/330/530
f 569/345/531 568/328/440 566/329/440
f 566/329/440 567/330/530 569/345/531
f 571/346/532 570/327/440 568/328/440
f 568/328/440 569/345/531 571/346/532
f 458/310/442 455/287/440 570/327/440
f 570/327/440 571/346/532 458/310/442
f 572/333/533 567/330/530 305/233/305
f 305/233/305 308/262/308 572/333/533
f 573/347/534 569/345/531 567/330/530
f 567/330/530 572/333/533 573/347/534
f 574/335/535 571/346/532 569/345/531
f 569/345/531 573/347/534 574/335/535
f 464/311/446 458/310/442 571/346/532
f 571/346/532 574/335/535 464/311/446
f 575/336/536 572/333/533 308/262/308
f 308/262/308 309/240/309 575/336/536
f 576/337/537 573/347/534 572/333/533
f 572/333/533 575/336/536 576/337/537
f 577/338/538 574/335/535 573/347/534
f 573/347/534 576/337/537 577/338/538
f 468/296/450 464/311/446 574/335/535
f 574/335/535 577/338/538 468/296/450
f 547/339/512 575/336/536 309/240/309
f 309/240/309 270/242/270 547/339/512
f 545/340/512 576/337/537 575/336/536
f 575/336/536 547/339/512 545/340/512
f 543/348/512 577/338/538 576/337/537
f 576/337/537 545/340/512 543/348/512
f 430/314/415 468/296/450 577/338/538
f 577/338/538 543/348/512 430/314/415
f 579/342/540 578/320/539 332/260/332
f 332/260/332 333/223/333 579/342/540
f 581/317/541 580/318/539 578/320/539
f 578/320/539 579/342/540 581/317/541
f 583/315/542 582/316/539 580/318/539
f 580/318/539 581/317/541 583/315/542
f 474/307/455 471/275/453 582/316/539
f 582/316/539 583/315/542 474/307/455
f 584/344/543 579/342/540 333/223/333
f 333/223/333 336/225/336 584/344/543
f 585/322/544 581/317/541 579/342/540
f 579/342/540 584/344/543 585/322/544
f 586/343/545 583/315/542 581/317/541
f 581/317/541 585/322/544 586/343/545
f 480/279/459 474/307/455 583/315/542
f 583/315/542 586/343/545 480/279/459
f 587/326/546 584/344/543 336/225/336
f 336/225/336 337/227/337 587/326/546
f 588/325/547 585/322/544 584/344/543
f 584/344/543 587/326/546 588/325/547
f 589/324/548 586/343/545 585/322/544
f 585/322/544 588/325/547 589/324/548
f 484/283/463 480/279/459 586/343/545
f 586/343/545 589/324/548 484/283/463
f 566/329/440 587/326/546 337/227/337
f 337/227/337 304/230/304 566/329/440
f 568/328/440 588/325/547 587/326/546
f 587/326/546 566/329/440 568/328/440
f 570/327/440 589/324/548 588/325/547
f 588/325/547 568/328/440 570/327/440
f 455/287/440 484/283/463 589/324/548
f 589/324/548 570/327/440 455/287/440
f 590/319/549 539/320/510 225/222/225
f 225/222/225 376/223/376 590/319/549
f 591/317/550 540/318/510 539/320/510
f 539/320/510 590/319/549 591/317/550
f 592/315/551 541/316/510 540/318/510
f 540/318/510 591/317/550 592/315/551
f 488/274/467 419/275/413 541/316/510
f 541/316/510 592/315/551 488/274/467
f 593/323/552 590/319/549 376/223/376
f 376/223/376 377/225/377 593/323/552
f 594/322/553 591/317/550 590/319/549
f 590/319/549 593/323/552 594/322/553
f 595/321/554 592/315/551 591/317/550
f 591/317/550 594/322/553 595/321/554
f 492/279/471 488/274/467 592/315/551
f 592/315/551 595/321/554 492/279/471
f 596/326/555 593/323/552 377/225/377
f 377/225/377 378/227/378 596/326/555
f 597/325/556 594/322/553 593/323/552
f 593/323/552 596/326/555 597/325/556
f 598/324/557 595/321/554 594/322/553
f 594/322/553 597/325/556 598/324/557
f 496/283/475 492/279/471 595/321/554
f 595/321/554 598/324/557 496/283/475
f 599/329/478 596/326/555 378/227/378
f 378/227/378 380/230/380 599/329/478
f 600/328/478 597/325/556 596/326/555
f 596/326/555 599/329/478 600/328/478
f 601/327/478 598/324/557 597/325/556
f 597/325/556 600/328/478 601/327/478
f 500/287/478 496/283/475 598/324/557
f 598/324/557 601/327/478 500/287/478
f 602/330/558 599/329/478 380/230/380
f 380/230/380 382/233/382 602/330/558
f 603/331/559 600/328/478 599/329/478
f 599/329/478 602/330/558 603/331/559
f 604/332/560 601/327/478 600/328/478
f 600/328/478 603/331/559 604/332/560
f 504/288/480 500/287/478 601/327/478
f 601/327/478 604/332/560 504/288/480
f 605/333/561 602/330/558 382/233/382
f 382/233/382 384/236/384 605/333/561
f 606/334/562 603/331/559 602/330/558
f 602/330/558 605/333/561 606/334/562
f 607/335/563 604/332/560 603/331/559
f 603/331/559 606/334/562 607/335/563
f 508/292/484 504/288/480 604/332/560
f 604/332/560 607/335/563 508/292/484
f 608/336/564 605/333/561 384/236/384
f 384/236/384 386/240/386 608/336/564
f 609/337/565 606/334/562 605/333/561
f 605/333/561 608/336/564 609/337/565
f 610/338/566 607/335/563 606/334/562
f 606/334/562 609/337/565 610/338/566
f 512/296/488 508/292/484 607/335/563
f 607/335/563 610/338/566 512/296/488
f 578/339/539 608/336/564 386/240/386
f 386/240/386 332/242/332 578/339/539
f 580/340/539 609/337/565 608/336/564
f 608/336/564 578/339/539 580/340/539
f 582/341/539 610/338/566 609/337/565
f 609/337/565 580/340/539 582/341/539
f 471/300/453 512/296/488 610/338/566
f 610/338/566 582/341/539 471/300/453

